<svg width="274" height="75" viewBox="0 0 274 75" fill="none" xmlns="http://www.w3.org/2000/svg">
<path d="M9.918 37.42C8.44867 37.42 7.676 37.3567 7.6 37.23C7.70133 36.2673 7.752 35.2667 7.752 34.228V31.226H4.712C4.028 31.226 3.02733 31.2767 1.71 31.378C1.634 31.302 1.596 30.5927 1.596 29.25C1.596 27.882 1.634 27.16 1.71 27.084C2.67267 27.1853 3.67333 27.236 4.712 27.236H7.752V25.032H2.926V11.428H7.752V9.224H4.902C3.96467 9.224 3.01467 9.262 2.052 9.338C1.976 9.28733 1.938 8.59067 1.938 7.248C1.938 5.90533 1.976 5.20867 2.052 5.158C2.736 5.234 3.686 5.272 4.902 5.272H7.752V3.524C7.752 3.04267 7.72667 2.422 7.676 1.662C8.664 1.61133 9.67733 1.624 10.716 1.7C12.008 1.80133 12.654 1.966 12.654 2.194C12.2487 2.70067 12.046 3.20733 12.046 3.714V5.272H14.858C15.8207 5.272 16.758 5.234 17.67 5.158C17.746 5.20867 17.784 5.90533 17.784 7.248C17.784 8.59067 17.746 9.28733 17.67 9.338C16.986 9.262 16.0487 9.224 14.858 9.224H12.046V11.428H16.948V25.032H12.046V27.236H17.784V29.478H19.57V24.272H26.22V22.79H19.266V18.724C19.266 17.128 19.2027 15.7853 19.076 14.696C19.076 14.5693 19.1393 14.506 19.266 14.506C20.33 14.6327 21.6093 14.696 23.104 14.696H26.98H30.856C32.3507 14.696 33.63 14.6327 34.694 14.506C34.8207 14.506 34.884 14.5693 34.884 14.696C34.7573 15.7853 34.694 17.128 34.694 18.724V22.79H30.362V24.272H32.756C33.5667 24.272 34.352 24.234 35.112 24.158C35.188 24.2087 35.226 24.766 35.226 25.83C35.226 26.8687 35.188 27.4133 35.112 27.464C34.5547 27.388 33.7693 27.35 32.756 27.35H30.362V29.478H33.44C34.1493 29.478 35.1627 29.4273 36.48 29.326C36.556 29.402 36.594 30.0353 36.594 31.226C36.594 32.3913 36.556 33.012 36.48 33.088C35.4667 32.9867 34.4533 32.936 33.44 32.936H30.362V35.102C30.362 35.9887 30.4 36.698 30.476 37.23C30.4253 37.3567 29.7033 37.42 28.31 37.42C26.8913 37.42 26.1567 37.3567 26.106 37.23C26.182 36.698 26.22 35.9887 26.22 35.102V32.936H17.632V31.226H12.046V34.228C12.046 35.2667 12.0967 36.2673 12.198 37.23C12.122 37.3567 11.362 37.42 9.918 37.42ZM23.294 29.478H26.22V27.35H24.738H23.294V29.478ZM6.802 21.84H12.882V19.636H9.842H6.802V21.84ZM23.37 19.902H30.362V17.584H26.866H23.37V19.902ZM6.802 16.824H12.882V14.62H9.842H6.802V16.824ZM17.708 13.67C17.632 13.5687 17.594 12.9353 17.594 11.77C17.594 10.5793 17.632 9.95867 17.708 9.908C18.24 9.984 18.9493 10.022 19.836 10.022H21.964C22.116 9.338 22.268 8.616 22.42 7.856H20.938C20.6087 7.856 20.1147 7.88133 19.456 7.932C19.38 7.88133 19.342 7.31133 19.342 6.222C19.342 5.13267 19.38 4.57533 19.456 4.55C20.0133 4.60066 20.596 4.626 21.204 4.626H22.99C23.0153 4.49933 23.0407 4.322 23.066 4.094C23.2433 3.05533 23.3573 2.29533 23.408 1.814C24.4973 1.89 25.498 2.004 26.41 2.156C27.398 2.308 27.8793 2.43467 27.854 2.536C27.854 2.63733 27.7907 2.726 27.664 2.802C27.4613 2.92867 27.3473 3.106 27.322 3.334C27.2207 3.89133 27.1447 4.322 27.094 4.626H33.668V10.022H35.074C35.378 10.022 35.834 9.99667 36.442 9.946C36.518 9.97133 36.556 10.5793 36.556 11.77C36.556 12.9353 36.518 13.5687 36.442 13.67C35.1753 13.5433 33.6173 13.48 31.768 13.48H27.056H22.382C20.9887 13.48 19.4307 13.5433 17.708 13.67ZM26.068 10.022H29.83V7.856H26.524C26.4227 8.36267 26.3467 8.73 26.296 8.958C26.2453 9.21133 26.1693 9.566 26.068 10.022ZM43.168 37.61C41.7493 37.61 40.9513 37.5467 40.774 37.42C41.002 35.3427 41.116 32.518 41.116 28.946V20.434V11.922C41.116 8.37533 41.002 5.538 40.774 3.41C40.774 3.106 40.888 2.954 41.116 2.954C43.9787 3.258 47.7787 3.41 52.516 3.41H62.7C66.8293 3.41 70.2113 3.27066 72.846 2.992C73.15 2.992 73.302 3.13133 73.302 3.41C72.998 6.222 72.846 9.984 72.846 14.696V26.02C72.846 30.7573 72.998 34.5573 73.302 37.42C73.074 37.5467 72.2127 37.61 70.718 37.61C69.2233 37.61 68.4633 37.5467 68.438 37.42C68.438 37.3693 68.438 37.2553 68.438 37.078C68.4633 36.8753 68.476 36.7233 68.476 36.622V35.824H45.296V36.622C45.296 36.7233 45.3087 36.8753 45.334 37.078C45.334 37.2553 45.334 37.3693 45.334 37.42C45.3087 37.5467 44.5867 37.61 43.168 37.61ZM45.296 31.796H68.476V7.476H63.84C65.1827 8.16 66.234 8.89467 66.994 9.68L65.474 11.276H66.386C66.5127 11.276 66.6773 11.2633 66.88 11.238C67.0573 11.238 67.184 11.238 67.26 11.238C67.336 11.2633 67.374 11.8207 67.374 12.91C67.374 13.974 67.336 14.544 67.26 14.62C66.196 14.5187 65.094 14.468 63.954 14.468H60.61C60.8127 16.824 61.0533 18.762 61.332 20.282C62.0413 18.838 62.624 17.2547 63.08 15.532C63.992 15.7093 64.828 16.0133 65.588 16.444C66.424 16.9 66.7913 17.3053 66.69 17.66C66.614 17.9133 66.4493 18.1287 66.196 18.306C65.7907 18.6353 65.474 19.142 65.246 19.826C64.5367 21.574 63.6373 23.2713 62.548 24.918C63.08 26.134 63.65 26.8053 64.258 26.932C64.6633 27.084 64.9547 25.906 65.132 23.398C65.892 24.2087 66.804 24.918 67.868 25.526C67.564 27.806 66.9687 29.364 66.082 30.2C65.2207 30.9853 64.1567 31.0867 62.89 30.504C61.8007 30.1493 60.8633 29.3133 60.078 27.996C58.786 29.3387 57.494 30.4153 56.202 31.226C55.4673 30.1367 54.6693 29.2247 53.808 28.49C54.0867 28.338 54.4793 28.0847 54.986 27.73C54.378 27.8313 53.4913 27.9707 52.326 28.148C49.6913 28.528 47.804 28.8193 46.664 29.022L46.246 25.716C50.0967 25.2853 53.58 24.8547 56.696 24.424L56.772 26.324C57.228 25.944 57.8487 25.3107 58.634 24.424C57.95 21.9667 57.418 18.648 57.038 14.468H51.87C50.1473 14.468 48.4247 14.544 46.702 14.696C46.626 14.5693 46.588 13.9613 46.588 12.872C46.588 11.7573 46.626 11.1493 46.702 11.048C47.9687 11.2 49.6407 11.276 51.718 11.276H56.772C56.7467 10.9213 56.7087 10.3767 56.658 9.642C56.6327 8.93267 56.6073 8.40067 56.582 8.046H60.23C60.2807 9.46467 60.3313 10.5413 60.382 11.276H64.41C63.4727 10.4653 62.5227 9.794 61.56 9.262L63.308 7.476H45.296V19.636V31.796ZM47.614 23.322V16.102H51.756H55.936V23.322H47.614ZM50.464 20.928H51.68H52.934V18.496H50.464V20.928ZM91.466 37.496C90.326 37.496 89.6927 37.4327 89.566 37.306C89.718 36.0647 89.794 34.3927 89.794 32.29V27.236V22.182C89.794 20.054 89.718 18.3693 89.566 17.128C89.566 16.976 89.642 16.9 89.794 16.9C91.01 17.052 92.6693 17.128 94.772 17.128H99.788V33.506C99.788 34.3167 99.7247 34.9373 99.598 35.368C99.446 35.9 99.1547 36.3053 98.724 36.584C98.0147 37.0653 96.8873 37.306 95.342 37.306C95.2153 36.242 94.8227 35.0893 94.164 33.848H96.026C96.2793 33.848 96.406 33.7087 96.406 33.43V30.466L95.418 31.644C94.962 30.9853 94.2147 30.2507 93.176 29.44V33.392C93.176 34.9373 93.2393 36.242 93.366 37.306C93.2647 37.4327 92.6313 37.496 91.466 37.496ZM103.588 37.268C103.309 35.8747 102.828 34.2153 102.144 32.29C101.485 30.3647 100.738 28.452 99.902 26.552C101.067 22.98 101.929 19.75 102.486 16.862C103.423 17.0393 104.297 17.3433 105.108 17.774C105.995 18.23 106.387 18.6227 106.286 18.952C106.21 19.2053 106.058 19.446 105.83 19.674C105.475 20.0033 105.197 20.5227 104.994 21.232C104.538 22.7773 103.981 24.538 103.322 26.514C105.07 30.162 106.324 33.3413 107.084 36.052L103.588 37.268ZM109.326 37.268C108.997 35.9 108.427 34.2407 107.616 32.29C106.628 29.9593 105.716 28.0467 104.88 26.552C106.349 23.0307 107.464 19.8007 108.224 16.862C109.161 17.0647 110.035 17.3813 110.846 17.812C111.707 18.2933 112.087 18.6987 111.986 19.028C111.91 19.3067 111.745 19.5347 111.492 19.712C111.087 20.0413 110.77 20.548 110.542 21.232C110.238 22.0427 109.795 23.1953 109.212 24.69C108.883 25.5007 108.642 26.1087 108.49 26.514C110.491 30.086 111.935 33.2527 112.822 36.014L109.326 37.268ZM77.9 32.366L77.216 28.072C77.7733 27.996 78.7233 27.8187 80.066 27.54C80.674 27.4133 81.1427 27.3247 81.472 27.274V19.788H79.838C79.458 19.788 78.9133 19.8133 78.204 19.864C78.128 19.8133 78.09 19.1293 78.09 17.812C78.09 16.4693 78.128 15.7853 78.204 15.76C78.7107 15.8107 79.2553 15.836 79.838 15.836H81.472V8.996H79.648C79.2173 8.996 78.622 9.02133 77.862 9.072C77.786 9.02133 77.748 8.312 77.748 6.944C77.748 5.576 77.786 4.86667 77.862 4.816C78.546 4.892 79.4707 4.93 80.636 4.93H83.41H86.222C87.1593 4.93 88.084 4.892 88.996 4.816C89.072 4.86667 89.11 5.576 89.11 6.944C89.11 8.312 89.072 9.02133 88.996 9.072C88.4387 9.02133 87.856 8.996 87.248 8.996H85.5V15.836H87.02C87.3493 15.836 87.8433 15.8107 88.502 15.76C88.578 15.7853 88.616 16.4693 88.616 17.812C88.616 19.1293 88.578 19.8133 88.502 19.864C88.046 19.8133 87.552 19.788 87.02 19.788H85.5V26.4L88.882 25.64L89.262 29.744C85.7407 30.6053 81.9533 31.4793 77.9 32.366ZM96.406 28.642V24.918L95.532 26.02C95.304 25.7667 94.962 25.4627 94.506 25.108C94.05 24.728 93.6067 24.386 93.176 24.082V27.73L94.05 26.856C95.038 27.5147 95.8233 28.11 96.406 28.642ZM96.406 23.132V20.586H93.176V22.866L94.126 21.688C94.5313 21.8907 94.924 22.106 95.304 22.334C95.76 22.638 96.1273 22.904 96.406 23.132ZM89.718 16.444C89.1353 15 88.3627 13.7967 87.4 12.834C90.516 11.4407 93.366 9.19867 95.95 6.108H93.784C93.0493 6.108 92.34 6.146 91.656 6.222C91.58 6.17133 91.542 5.538 91.542 4.322C91.542 3.106 91.58 2.47266 91.656 2.422C92.3147 2.498 93.214 2.536 94.354 2.536H97.09H102.524C103.385 4.63866 104.753 6.57666 106.628 8.35C108.503 10.098 110.618 11.4407 112.974 12.378C112.594 12.758 112.151 13.3407 111.644 14.126C111.163 14.8607 110.783 15.532 110.504 16.14C108.528 15.152 106.704 13.898 105.032 12.378V14.886H94.962V12.454C93.3153 13.9993 91.5673 15.3293 89.718 16.444ZM95.988 11.466H100.016H104.044C102.524 9.97133 101.219 8.32467 100.13 6.526C98.99 8.198 97.6093 9.84467 95.988 11.466Z" fill="#152A77"/>
<path d="M122.512 37.458C121.043 37.458 120.219 37.3947 120.042 37.268C120.27 35.3427 120.384 32.7207 120.384 29.402V21.498C119.016 22.866 117.901 23.892 117.04 24.576C116.863 24.044 116.546 23.284 116.09 22.296C115.609 21.232 115.216 20.434 114.912 19.902C116.635 18.6607 118.294 17.204 119.89 15.532C121.613 13.7333 122.993 11.9347 124.032 10.136C125.045 10.592 125.983 11.124 126.844 11.732C127.731 12.34 128.111 12.758 127.984 12.986C127.883 13.1633 127.705 13.29 127.452 13.366C127.047 13.4927 126.705 13.784 126.426 14.24C125.666 15.304 125.071 16.102 124.64 16.634V26.97V32.138C124.64 34.3167 124.716 36.0267 124.868 37.268C124.767 37.3947 123.981 37.458 122.512 37.458ZM137.218 37.268C137.041 36.0773 136.572 34.7347 135.812 33.24C136.876 33.2907 138.143 33.316 139.612 33.316C140.068 33.2907 140.296 33.088 140.296 32.708V27.426H132.468C134.469 29.3767 135.888 30.96 136.724 32.176L133.418 34.57C132.582 33.126 131.151 31.3653 129.124 29.288L131.898 27.426H129.276C128.415 27.426 127.541 27.464 126.654 27.54C126.578 27.4893 126.54 26.8053 126.54 25.488C126.54 24.1707 126.578 23.436 126.654 23.284C128.427 23.4867 130.695 23.588 133.456 23.588H140.296V21.422H133.912C132.113 21.422 129.998 21.5107 127.566 21.688C127.49 21.5613 127.452 20.8647 127.452 19.598C127.452 18.306 127.49 17.6093 127.566 17.508C128.909 17.66 130.695 17.736 132.924 17.736H138.32H143.716C145.54 17.736 147.339 17.66 149.112 17.508C149.188 17.6093 149.226 18.2933 149.226 19.56C149.226 20.8267 149.188 21.4853 149.112 21.536C148.58 21.46 147.871 21.422 146.984 21.422H144.818V23.588H149.872L149.91 27.426H144.818V32.822C144.818 33.9113 144.691 34.722 144.438 35.254C144.185 35.862 143.703 36.318 142.994 36.622C142.361 36.9007 141.537 37.0907 140.524 37.192C139.891 37.2427 138.789 37.268 137.218 37.268ZM147.896 16.444C145.363 16.1907 142.297 16.064 138.7 16.064H129.466V9.49C129.466 7.00733 129.377 4.816 129.2 2.916C129.2 2.78933 129.289 2.726 129.466 2.726C130.733 2.85267 132.265 2.916 134.064 2.916H138.662H147.896V9.49C147.896 11.9727 147.985 14.164 148.162 16.064C148.162 16.3173 148.073 16.444 147.896 16.444ZM117.496 13.138C117.065 12.0487 116.343 10.7693 115.33 9.3C116.799 8.36267 118.256 7.21 119.7 5.842C121.169 4.42333 122.284 3.09333 123.044 1.852C124.108 2.308 125.096 2.86533 126.008 3.524C126.92 4.18267 127.287 4.63867 127.11 4.892C126.958 5.06933 126.755 5.196 126.502 5.272C126.046 5.37333 125.615 5.69 125.21 6.222C124.526 7.00733 123.715 7.86866 122.778 8.806C121.081 10.4527 119.32 11.8967 117.496 13.138ZM133.76 12.91H138.586H143.412V10.934H133.76V12.91ZM133.76 7.97H138.586H143.412V6.07H133.76V7.97ZM165.87 37.344C165.718 36.2547 165.262 34.912 164.502 33.316C166.123 33.392 167.339 33.4047 168.15 33.354C168.555 33.354 168.758 33.1767 168.758 32.822V28.072H161.5C159.245 28.072 156.839 28.1733 154.28 28.376C154.204 28.224 154.166 27.54 154.166 26.324C154.166 25.0827 154.204 24.3733 154.28 24.196C156.383 24.424 159.169 24.538 162.64 24.538H171.038H179.436C182.273 24.538 185.073 24.424 187.834 24.196C187.91 24.3733 187.948 25.0827 187.948 26.324C187.948 27.54 187.91 28.224 187.834 28.376C185.883 28.1733 183.451 28.072 180.538 28.072H173.242V32.974C173.242 34.038 173.128 34.8233 172.9 35.33C172.647 35.9127 172.178 36.356 171.494 36.66C170.861 36.964 170.05 37.154 169.062 37.23C168.378 37.306 167.314 37.344 165.87 37.344ZM157.282 37.154C156.167 35.862 155.078 34.8487 154.014 34.114C155.483 33.43 156.889 32.5813 158.232 31.568C159.625 30.5293 160.753 29.4653 161.614 28.376C162.627 28.7307 163.565 29.1993 164.426 29.782C165.313 30.3393 165.667 30.7193 165.49 30.922C165.363 31.074 165.186 31.1753 164.958 31.226C164.578 31.2767 164.223 31.5047 163.894 31.91C163.362 32.4673 162.653 33.126 161.766 33.886C160.271 35.2287 158.777 36.318 157.282 37.154ZM183.996 36.736C183.211 35.9 181.982 34.8993 180.31 33.734C178.79 32.6447 177.245 31.644 175.674 30.732L178.942 28.49C180.361 29.2247 181.906 30.1493 183.578 31.264C185.199 32.328 186.517 33.3033 187.53 34.19L183.996 36.736ZM158.726 23.36C158.65 23.132 158.612 22.4227 158.612 21.232C158.612 20.016 158.65 19.3447 158.726 19.218C160.499 19.3953 162.551 19.484 164.882 19.484H171.038H177.194C178.917 19.484 180.969 19.3953 183.35 19.218C183.426 19.3447 183.464 20.0033 183.464 21.194C183.464 22.3847 183.426 23.0433 183.35 23.17C181.45 22.9927 179.246 22.904 176.738 22.904H170.126C166.326 22.904 162.526 23.056 158.726 23.36ZM185.136 18.382C182.299 18.078 178.499 17.926 173.736 17.926H156.978V13.29C156.978 11.466 156.915 9.92066 156.788 8.654C156.788 8.52733 156.851 8.464 156.978 8.464C158.042 8.59066 159.334 8.654 160.854 8.654H164.768V6.602H159.79C158.118 6.602 156.459 6.678 154.812 6.83C154.736 6.70333 154.698 6.032 154.698 4.816C154.698 3.6 154.736 2.90333 154.812 2.726C156.839 2.954 159.524 3.068 162.868 3.068H170.924H179.018C181.729 3.068 184.414 2.954 187.074 2.726C187.15 2.90333 187.188 3.6 187.188 4.816C187.188 6.032 187.15 6.70333 187.074 6.83C185.833 6.678 184.135 6.602 181.982 6.602H176.852V8.654H185.136V13.29C185.136 15.114 185.199 16.6593 185.326 17.926C185.326 18.23 185.263 18.382 185.136 18.382ZM161.044 14.696H164.768V11.846H162.906H161.044V14.696ZM168.834 14.696H172.71V11.846H170.772H168.834V14.696ZM176.852 14.696H178.79H180.766V11.846H176.852V14.696ZM168.834 8.654H170.772H172.71V6.602H168.834V8.654ZM202.692 37.496C201.273 37.496 200.501 37.4327 200.374 37.306C200.551 35.4567 200.64 33.316 200.64 30.884V24.462H198.018V25.184C198.018 27.16 197.815 29.022 197.41 30.77C196.853 33.202 195.928 35.1147 194.636 36.508C193.775 35.7733 192.66 35.0767 191.292 34.418C193.116 32.366 194.028 29.25 194.028 25.07V24.462H192.888C192.635 24.462 192.255 24.4873 191.748 24.538C191.672 24.4873 191.634 23.7907 191.634 22.448C191.634 21.08 191.672 20.3453 191.748 20.244C192.964 20.3707 194.446 20.434 196.194 20.434H200.64V16.292H194.864V16.254H193.078V9.87C193.078 7.53933 192.989 5.36066 192.812 3.334C193.851 3.28333 194.915 3.296 196.004 3.372C197.321 3.47333 197.98 3.638 197.98 3.866C197.372 5.082 197.068 6.298 197.068 7.514V12.264H200.64V7.02C200.64 4.892 200.564 3.106 200.412 1.662C201.451 1.61133 202.54 1.624 203.68 1.7C205.048 1.80133 205.732 1.966 205.732 2.194C205.124 3.41 204.82 4.626 204.82 5.842V17.622V33.43C207.632 31.3527 209.722 28.756 211.09 25.64C212.129 23.208 212.775 20.3073 213.028 16.938H209.532C208.747 16.938 207.594 16.9887 206.074 17.09C205.998 17.014 205.96 16.216 205.96 14.696C205.96 13.176 205.998 12.378 206.074 12.302C207.239 12.4033 208.417 12.454 209.608 12.454H213.142V7.134C213.142 4.95533 213.066 3.144 212.914 1.7C213.978 1.64933 215.08 1.662 216.22 1.738C217.613 1.83933 218.31 2.004 218.31 2.232C217.702 3.448 217.398 4.664 217.398 5.88V12.454H221.882C223.225 12.454 224.719 12.3907 226.366 12.264C226.442 12.3653 226.48 13.176 226.48 14.696C226.48 16.216 226.442 17.0267 226.366 17.128C225.277 17.0013 223.921 16.938 222.3 16.938H218.234C219.146 24.7913 222.021 30.2887 226.86 33.43C225.568 34.342 224.491 35.5833 223.63 37.154C220.083 34.6713 217.487 30.7953 215.84 25.526C214.32 30.4153 211.407 34.38 207.1 37.42C206.568 36.432 205.808 35.4693 204.82 34.532V35.938C204.82 36.394 204.845 36.85 204.896 37.306C204.871 37.4327 204.136 37.496 202.692 37.496ZM222.224 11.314C221.92 10.478 221.363 9.36333 220.552 7.97C219.893 6.77933 219.133 5.58866 218.272 4.398L221.768 2.764C223.82 5.39866 225.226 7.628 225.986 9.452L222.224 11.314ZM241.376 37.344C241.123 36.7613 240.73 36.1153 240.198 35.406C239.666 34.6713 239.159 34.1013 238.678 33.696C240.73 32.8853 242.275 31.8213 243.314 30.504C244.251 29.3387 244.91 27.806 245.29 25.906C245.543 24.538 245.721 22.4607 245.822 19.674H242.668V11.58C242.668 8.18533 242.554 5.48733 242.326 3.486C242.326 3.334 242.44 3.258 242.668 3.258C243.884 3.41 245.518 3.486 247.57 3.486H252.51H257.45C259.527 3.486 261.174 3.41 262.39 3.258C262.618 3.258 262.732 3.334 262.732 3.486C262.504 5.48733 262.39 8.18533 262.39 11.58V19.674H257.412V31.492C257.412 32.1 257.45 32.4927 257.526 32.67C257.627 32.822 257.843 32.898 258.172 32.898H259.844C260.173 32.898 260.389 32.5813 260.49 31.948C260.617 31.3147 260.705 29.8453 260.756 27.54C261.541 28.1987 262.833 28.794 264.632 29.326C264.455 32.29 264.049 34.304 263.416 35.368C262.808 36.432 261.757 36.964 260.262 36.964H257.374C255.626 36.964 254.448 36.5713 253.84 35.786C253.283 35.026 253.004 33.6073 253.004 31.53V19.674H250.154C249.951 24.5887 249.369 28.1987 248.406 30.504C247.139 33.544 244.796 35.824 241.376 37.344ZM234.688 36.85L230.926 34.076C231.99 32.5813 233.219 30.7067 234.612 28.452C236.031 26.1213 237.31 23.8413 238.45 21.612C239.387 22.448 240.173 23.2333 240.806 23.968C241.566 24.88 241.87 25.488 241.718 25.792C241.591 26.02 241.389 26.21 241.11 26.362C240.679 26.59 240.299 27.0207 239.97 27.654C238.298 30.8207 236.537 33.886 234.688 36.85ZM236.702 19.636C236.069 19.0787 234.992 18.3693 233.472 17.508C232.155 16.748 230.85 16.1147 229.558 15.608L231.838 12.226C233.13 12.6567 234.46 13.2013 235.828 13.86C237.272 14.5693 238.374 15.228 239.134 15.836L236.702 19.636ZM247 15.494H257.83V7.666H252.396H247V15.494ZM238.564 9.3C237.956 8.692 236.968 7.98267 235.6 7.172C234.46 6.488 233.219 5.86733 231.876 5.31L234.308 1.928C235.549 2.40933 236.791 2.96667 238.032 3.6C239.4 4.33467 240.439 5.006 241.148 5.614L238.564 9.3Z" fill="#282828"/>
<path d="M14.6147 55H6.98975L6.73975 60H6.78975C7.68975 59.5 8.71475 59.25 9.86475 59.25C11.5981 59.25 12.9481 59.7417 13.9147 60.725C14.8814 61.7083 15.3647 63.0917 15.3647 64.875C15.3647 66.975 14.7731 68.5667 13.5897 69.65C12.4064 70.7167 10.6647 71.25 8.36475 71.25C6.64808 71.25 5.06475 70.875 3.61475 70.125L4.23975 67.875C5.72308 68.625 7.09808 69 8.36475 69C11.1981 69 12.6147 67.625 12.6147 64.875C12.6147 62.5583 11.5314 61.4 9.36475 61.4C8.13141 61.4 7.13141 61.7667 6.36475 62.5H3.98975L4.48975 52.75H14.6147V55ZM20.4118 67.25H23.9118L21.1618 73.75H18.6618L20.4118 67.25ZM38.7114 55H31.0864L30.8364 60H30.8864C31.7864 59.5 32.8114 59.25 33.9614 59.25C35.6948 59.25 37.0448 59.7417 38.0114 60.725C38.9781 61.7083 39.4614 63.0917 39.4614 64.875C39.4614 66.975 38.8698 68.5667 37.6864 69.65C36.5031 70.7167 34.7614 71.25 32.4614 71.25C30.7448 71.25 29.1614 70.875 27.7114 70.125L28.3364 67.875C29.8198 68.625 31.1948 69 32.4614 69C35.2948 69 36.7114 67.625 36.7114 64.875C36.7114 62.5583 35.6281 61.4 33.4614 61.4C32.2281 61.4 31.2281 61.7667 30.4614 62.5H28.0864L28.5864 52.75H38.7114V55ZM49.0835 52.5C50.9502 52.5 52.3918 52.9667 53.4085 53.9C54.4418 54.8167 54.9585 56.1 54.9585 57.75C54.9585 59.4167 54.4252 61.025 53.3585 62.575C52.3085 64.125 50.2585 66.1667 47.2085 68.7V68.75H54.9585V71H43.4585V68.75C46.8585 66.05 49.1502 63.9417 50.3335 62.425C51.5168 60.8917 52.1085 59.4167 52.1085 58C52.1085 55.8667 50.9752 54.8 48.7085 54.8C47.1918 54.8 45.6085 55.35 43.9585 56.45L43.2085 54.25C44.9252 53.0833 46.8835 52.5 49.0835 52.5ZM64.8306 52.5C66.6972 52.5 68.1389 52.9667 69.1556 53.9C70.1889 54.8167 70.7056 56.1 70.7056 57.75C70.7056 59.4167 70.1722 61.025 69.1056 62.575C68.0556 64.125 66.0056 66.1667 62.9556 68.7V68.75H70.7056V71H59.2056V68.75C62.6056 66.05 64.8972 63.9417 66.0806 62.425C67.2639 60.8917 67.8556 59.4167 67.8556 58C67.8556 55.8667 66.7222 54.8 64.4556 54.8C62.9389 54.8 61.3556 55.35 59.7056 56.45L58.9556 54.25C60.6722 53.0833 62.6306 52.5 64.8306 52.5ZM76.0026 67.25H79.5026L76.7526 73.75H74.2526L76.0026 67.25ZM88.8022 71V56H88.7522L84.0522 60.25L83.0522 58L88.8022 52.75H91.5522V71H88.8022ZM104.549 71V56H104.499L99.7993 60.25L98.7993 58L104.549 52.75H107.299V71H104.549ZM120.421 52.5C122.538 52.5 124.171 53.1167 125.321 54.35C126.471 55.5833 127.046 57.3833 127.046 59.75C127.046 63.2167 126.171 65.95 124.421 67.95C122.688 69.95 120.288 71.05 117.221 71.25L116.721 69C118.671 68.8167 120.213 68.3167 121.346 67.5C122.496 66.6833 123.363 65.4417 123.946 63.775L123.896 63.725C122.746 64.6583 121.38 65.125 119.796 65.125C117.93 65.125 116.463 64.5833 115.396 63.5C114.33 62.4167 113.796 60.875 113.796 58.875C113.796 56.9417 114.396 55.4 115.596 54.25C116.813 53.0833 118.421 52.5 120.421 52.5ZM120.421 54.75C119.171 54.75 118.213 55.1083 117.546 55.825C116.88 56.525 116.546 57.5417 116.546 58.875C116.546 60.225 116.888 61.2583 117.571 61.975C118.271 62.6917 119.221 63.05 120.421 63.05C121.571 63.05 122.496 62.6833 123.196 61.95C123.896 61.2 124.246 60.175 124.246 58.875C124.246 57.5583 123.913 56.5417 123.246 55.825C122.58 55.1083 121.638 54.75 120.421 54.75ZM139.218 53.7V55H142.618V53.7H139.218ZM133.668 61.05H131.168V55H136.618V53.7H130.043V51.5H151.793V53.7H145.218V55H150.668V61.05H133.668ZM136.618 59.125V56.875H133.668V59.125H136.618ZM142.618 59.125V56.875H139.218V59.125H142.618ZM145.218 59.125H148.168V56.875H145.218V59.125ZM131.918 64.2V62.05H150.043V64.2H131.918ZM151.793 65.25V67.45H146.793C148.66 68.55 150.402 69.7 152.018 70.9L150.643 72.85C148.56 71.3333 146.485 69.9833 144.418 68.8L145.318 67.45H142.668V70.375C142.668 71.575 142.485 72.3167 142.118 72.6C141.752 72.9 140.81 73.05 139.293 73.05C138.393 73.05 137.243 73.0083 135.843 72.925L135.743 70.825C137.027 70.9083 138.018 70.95 138.718 70.95C139.302 70.95 139.643 70.9167 139.743 70.85C139.86 70.7667 139.918 70.525 139.918 70.125V67.45H135.993L137.093 68.75C135.393 70.3833 133.393 71.7333 131.093 72.8L129.868 70.825C131.802 69.9083 133.552 68.7833 135.118 67.45H130.043V65.25H151.793ZM165.14 63.3C165.14 67.8667 166.765 71.725 170.015 74.875H167.515C165.915 73.4083 164.682 71.675 163.815 69.675C162.949 67.675 162.515 65.55 162.515 63.3C162.515 61.05 162.949 58.9333 163.815 56.95C164.682 54.95 165.915 53.2167 167.515 51.75H170.015C166.765 54.9 165.14 58.75 165.14 63.3ZM173.195 52.75H184.445V55L179.07 60.225V60.275H179.57C181.186 60.275 182.445 60.7083 183.345 61.575C184.245 62.425 184.695 63.65 184.695 65.25C184.695 67.15 184.111 68.625 182.945 69.675C181.795 70.725 180.17 71.25 178.07 71.25C176.253 71.25 174.628 70.8333 173.195 70L173.945 67.75C175.461 68.5833 176.836 69 178.07 69C179.303 69 180.253 68.675 180.92 68.025C181.603 67.375 181.945 66.45 181.945 65.25C181.945 64.2333 181.578 63.4833 180.845 63C180.128 62.5 178.953 62.25 177.32 62.25H175.57V60.15L180.945 55.05V55H173.195V52.75ZM194.692 60.25C195.842 59.9833 196.725 59.5833 197.342 59.05C197.959 58.5167 198.267 57.9167 198.267 57.25C198.267 56.45 197.959 55.8167 197.342 55.35C196.725 54.8833 195.842 54.65 194.692 54.65C193.559 54.65 192.692 54.8833 192.092 55.35C191.509 55.8 191.217 56.4333 191.217 57.25C191.217 57.95 191.509 58.5667 192.092 59.1C192.692 59.6167 193.559 60 194.692 60.25ZM194.567 62.375C193.25 62.6917 192.25 63.1667 191.567 63.8C190.884 64.4167 190.542 65.1083 190.542 65.875C190.542 66.875 190.909 67.6667 191.642 68.25C192.392 68.8167 193.409 69.1 194.692 69.1C195.975 69.1 196.967 68.8167 197.667 68.25C198.384 67.6667 198.742 66.875 198.742 65.875C198.742 64.125 197.35 62.9583 194.567 62.375ZM199.642 69.825C198.459 70.775 196.809 71.25 194.692 71.25C192.575 71.25 190.917 70.775 189.717 69.825C188.534 68.875 187.942 67.6 187.942 66C187.942 65.0333 188.275 64.1417 188.942 63.325C189.609 62.4917 190.525 61.85 191.692 61.4V61.35C190.692 60.9167 189.917 60.325 189.367 59.575C188.834 58.8083 188.567 57.95 188.567 57C188.567 55.65 189.109 54.5667 190.192 53.75C191.275 52.9167 192.775 52.5 194.692 52.5C196.609 52.5 198.109 52.9167 199.192 53.75C200.275 54.5667 200.817 55.65 200.817 57C200.817 58.8667 199.775 60.2333 197.692 61.1V61.15C200.192 62 201.442 63.6167 201.442 66C201.442 67.6 200.842 68.875 199.642 69.825ZM204.864 71V67.25H208.114V71H204.864ZM218.425 71.25C216.309 71.25 214.675 70.6333 213.525 69.4C212.375 68.1667 211.8 66.325 211.8 63.875C211.8 60.525 212.642 57.8417 214.325 55.825C216.025 53.8083 218.375 52.7 221.375 52.5L221.875 54.75C220.025 54.9167 218.542 55.4167 217.425 56.25C216.325 57.0833 215.484 58.325 214.9 59.975L214.95 60.025C216.1 59.0917 217.467 58.625 219.05 58.625C220.934 58.625 222.4 59.1667 223.45 60.25C224.517 61.3167 225.05 62.8167 225.05 64.75C225.05 66.7333 224.45 68.3167 223.25 69.5C222.05 70.6667 220.442 71.25 218.425 71.25ZM218.425 69C219.675 69 220.634 68.6417 221.3 67.925C221.967 67.2083 222.3 66.15 222.3 64.75C222.3 63.4667 221.959 62.475 221.275 61.775C220.592 61.0583 219.642 60.7 218.425 60.7C217.259 60.7 216.325 61.0667 215.625 61.8C214.942 62.5167 214.6 63.5 214.6 64.75C214.6 66.1333 214.934 67.1917 215.6 67.925C216.267 68.6417 217.209 69 218.425 69ZM233.797 71V56H233.747L229.047 60.25L228.047 58L233.797 52.75H236.547V71H233.797ZM256.469 52.75H259.219L248.969 71H246.219L256.469 52.75ZM254.994 62.775C255.761 61.925 256.836 61.5 258.219 61.5C259.603 61.5 260.678 61.925 261.444 62.775C262.211 63.6083 262.594 64.8083 262.594 66.375C262.594 67.9417 262.211 69.15 261.444 70C260.678 70.8333 259.603 71.25 258.219 71.25C256.836 71.25 255.761 70.8333 254.994 70C254.228 69.15 253.844 67.9417 253.844 66.375C253.844 64.8083 254.228 63.6083 254.994 62.775ZM243.994 53.775C244.761 52.925 245.836 52.5 247.219 52.5C248.603 52.5 249.678 52.925 250.444 53.775C251.211 54.6083 251.594 55.8083 251.594 57.375C251.594 58.9417 251.211 60.15 250.444 61C249.678 61.8333 248.603 62.25 247.219 62.25C245.836 62.25 244.761 61.8333 243.994 61C243.228 60.15 242.844 58.9417 242.844 57.375C242.844 55.8083 243.228 54.6083 243.994 53.775ZM256.469 66.375C256.469 68.2917 257.053 69.25 258.219 69.25C259.386 69.25 259.969 68.2917 259.969 66.375C259.969 64.4583 259.386 63.5 258.219 63.5C257.053 63.5 256.469 64.4583 256.469 66.375ZM245.469 57.375C245.469 59.2917 246.053 60.25 247.219 60.25C248.386 60.25 248.969 59.2917 248.969 57.375C248.969 55.4583 248.386 54.5 247.219 54.5C246.053 54.5 245.469 55.4583 245.469 57.375ZM263.331 51.75H265.831C267.431 53.2167 268.664 54.95 269.531 56.95C270.397 58.9333 270.831 61.05 270.831 63.3C270.831 65.55 270.397 67.675 269.531 69.675C268.664 71.675 267.431 73.4083 265.831 74.875H263.331C266.581 71.725 268.206 67.8667 268.206 63.3C268.206 58.75 266.581 54.9 263.331 51.75Z" fill="#282828"/>
</svg>
