<svg width="79" height="252" viewBox="0 0 79 252" fill="none" xmlns="http://www.w3.org/2000/svg">
<path d="M13.976 4.296V3.016H8.712V4.296H13.976ZM13.976 6.456V5.16H8.712V6.456H13.976ZM15.16 2.12V7.368H7.56V2.12H15.16ZM5.048 1.672L6.184 2.104C5.24 3.464 3.688 4.952 2.28 5.896C2.152 5.624 1.864 5.176 1.656 4.936C2.92 4.12 4.344 2.792 5.048 1.672ZM5.336 5.16L6.376 5.576C6.008 6.232 5.544 6.904 5.064 7.544V16.216H3.896V8.888C3.288 9.544 2.648 10.136 2.024 10.616C1.928 10.376 1.608 9.768 1.4 9.48C2.84 8.424 4.392 6.808 5.336 5.16ZM7.592 12.664L8.44 12.12C9.176 12.776 10.056 13.72 10.472 14.344L9.56 14.984C9.176 14.344 8.328 13.368 7.592 12.664ZM16.2 10.824V11.848H13.816V14.92C13.816 15.56 13.672 15.864 13.208 16.056C12.728 16.232 11.976 16.248 10.776 16.248C10.728 15.912 10.552 15.48 10.392 15.16C11.288 15.192 12.088 15.192 12.312 15.176C12.568 15.16 12.632 15.096 12.632 14.888V11.848H6.216V10.824H12.632V9.464H6.584V8.44H15.912V9.464H13.816V10.824H16.2ZM26.184 4.472V3.24H23.672V4.472H26.184ZM29.88 5.368H27.32V7.208H29.88V5.368ZM23.672 5.368V7.208H26.184V5.368H23.672ZM20.136 5.368V7.208H22.568V5.368H20.136ZM22.568 4.472V3.24H18.072V2.248H31.832V3.24H27.32V4.472H31.048V8.12H19.032V4.472H22.568ZM30.2 10.12H19.848V9.176H30.2V10.12ZM21.368 12.6L22.456 12.984C21.512 14.152 19.992 15.272 18.664 15.976C18.472 15.768 18.024 15.368 17.768 15.192C19.112 14.584 20.536 13.624 21.368 12.6ZM27.32 13.272L28.168 12.648C29.464 13.336 31.16 14.408 32.04 15.144L31.128 15.832C30.312 15.112 28.632 14.024 27.32 13.272ZM17.896 11.224H32.136V12.2H25.608V14.968C25.608 15.592 25.48 15.88 25 16.056C24.536 16.232 23.784 16.248 22.632 16.248C22.584 15.912 22.408 15.48 22.248 15.176C23.144 15.208 23.896 15.208 24.136 15.192C24.376 15.176 24.424 15.112 24.424 14.936V12.2H17.896V11.224ZM48.12 10.376L47.24 11.128C46.472 10.456 44.888 9.496 43.64 8.856L44.472 8.184C45.688 8.776 47.288 9.72 48.12 10.376ZM46.408 4.936L47.448 5.48C46.632 6.216 45.608 6.952 44.792 7.464L43.944 6.952C44.728 6.424 45.8 5.56 46.408 4.936ZM38.344 5.88L38.792 6.168C39.208 5.64 39.64 5 39.944 4.488H34.392V3.416H40.36V1.624H41.544V3.416H47.656V4.488H40.696L41.112 4.648C40.616 5.336 40.024 6.072 39.512 6.632C39.96 6.952 40.392 7.272 40.728 7.56C41.368 6.824 41.96 6.088 42.408 5.448L43.352 5.896C42.408 7.08 41.16 8.472 40.008 9.576L42.76 9.432C42.456 9 42.136 8.584 41.816 8.216L42.68 7.832C43.464 8.712 44.344 9.896 44.696 10.712L43.784 11.192C43.672 10.936 43.512 10.616 43.32 10.296C41.288 10.44 39.256 10.568 37.72 10.68L37.56 9.672C37.912 9.656 38.328 9.64 38.76 9.624C39.176 9.224 39.624 8.776 40.072 8.296C39.448 7.752 38.52 7.08 37.752 6.584L38.344 5.88ZM37.752 6.872L36.92 7.592C36.392 7.08 35.304 6.328 34.408 5.816L35.208 5.16C36.088 5.624 37.208 6.36 37.752 6.872ZM37.864 8.36L38.088 9.256C36.824 9.848 35.512 10.488 34.44 10.952L33.848 9.992C34.872 9.624 36.376 8.984 37.864 8.36ZM41.544 10.68V11.912H48.104V13.016H41.544V16.264H40.36V13.016H33.912V11.912H40.36V10.68H41.544ZM55.2045 9.18182C55.2045 7.75 55.3902 6.43371 55.7614 5.23295C56.1364 4.02841 56.6705 2.92045 57.3636 1.90909H58.5455C58.2727 2.28409 58.017 2.74621 57.7784 3.29545C57.5436 3.84091 57.3371 4.44129 57.1591 5.09659C56.9811 5.74811 56.8409 6.42235 56.7386 7.11932C56.6402 7.81629 56.5909 8.50379 56.5909 9.18182C56.5909 10.0833 56.678 10.9981 56.8523 11.9261C57.0265 12.8542 57.2614 13.7159 57.5568 14.5114C57.8523 15.3068 58.1818 15.9545 58.5455 16.4545H57.3636C56.6705 15.4432 56.1364 14.3371 55.7614 13.1364C55.3902 11.9318 55.2045 10.6136 55.2045 9.18182ZM66.4332 12.8182V12.2045C66.4332 11.7803 66.5204 11.392 66.6946 11.0398C66.8726 10.6837 67.1302 10.3996 67.4673 10.1875C67.8082 9.97159 68.2211 9.86364 68.706 9.86364C69.1984 9.86364 69.6113 9.97159 69.9446 10.1875C70.2779 10.3996 70.5298 10.6837 70.7003 11.0398C70.8707 11.392 70.956 11.7803 70.956 12.2045V12.8182C70.956 13.2424 70.8688 13.6326 70.6946 13.9886C70.5241 14.3409 70.2704 14.625 69.9332 14.8409C69.5999 15.053 69.1908 15.1591 68.706 15.1591C68.2135 15.1591 67.7988 15.053 67.4616 14.8409C67.1245 14.625 66.8688 14.3409 66.6946 13.9886C66.5204 13.6326 66.4332 13.2424 66.4332 12.8182ZM67.5923 12.2045V12.8182C67.5923 13.1705 67.6757 13.4867 67.8423 13.767C68.009 14.0436 68.2969 14.1818 68.706 14.1818C69.1037 14.1818 69.384 14.0436 69.5469 13.767C69.7135 13.4867 69.7969 13.1705 69.7969 12.8182V12.2045C69.7969 11.8523 69.7173 11.5379 69.5582 11.2614C69.3991 10.9811 69.1151 10.8409 68.706 10.8409C68.3082 10.8409 68.0223 10.9811 67.848 11.2614C67.6776 11.5379 67.5923 11.8523 67.5923 12.2045ZM60.6378 6.15909V5.54545C60.6378 5.12121 60.7249 4.73295 60.8991 4.38068C61.0772 4.02462 61.3348 3.74053 61.6719 3.52841C62.0128 3.3125 62.4257 3.20455 62.9105 3.20455C63.4029 3.20455 63.8158 3.3125 64.1491 3.52841C64.4825 3.74053 64.7344 4.02462 64.9048 4.38068C65.0753 4.73295 65.1605 5.12121 65.1605 5.54545V6.15909C65.1605 6.58333 65.0734 6.97348 64.8991 7.32955C64.7287 7.68182 64.4749 7.96591 64.1378 8.18182C63.8045 8.39394 63.3954 8.5 62.9105 8.5C62.4181 8.5 62.0033 8.39394 61.6662 8.18182C61.3291 7.96591 61.0734 7.68182 60.8991 7.32955C60.7249 6.97348 60.6378 6.58333 60.6378 6.15909ZM61.7969 5.54545V6.15909C61.7969 6.51136 61.8802 6.82765 62.0469 7.10795C62.2135 7.38447 62.5014 7.52273 62.9105 7.52273C63.3082 7.52273 63.5885 7.38447 63.7514 7.10795C63.9181 6.82765 64.0014 6.51136 64.0014 6.15909V5.54545C64.0014 5.19318 63.9219 4.87879 63.7628 4.60227C63.6037 4.32197 63.3196 4.18182 62.9105 4.18182C62.5128 4.18182 62.2268 4.32197 62.0526 4.60227C61.8821 4.87879 61.7969 5.19318 61.7969 5.54545ZM61.0696 15L69.0696 3.36364H70.3651L62.3651 15H61.0696ZM76.3878 9.18182C76.3878 10.6136 76.2003 11.9318 75.8253 13.1364C75.4541 14.3371 74.9219 15.4432 74.2287 16.4545H73.0469C73.3196 16.0795 73.5734 15.6174 73.8082 15.0682C74.0469 14.5227 74.2552 13.9242 74.4332 13.2727C74.6113 12.6174 74.7495 11.9413 74.848 11.2443C74.9503 10.5436 75.0014 9.85606 75.0014 9.18182C75.0014 8.2803 74.9143 7.36553 74.7401 6.4375C74.5658 5.50947 74.331 4.64773 74.0355 3.85227C73.7401 3.05682 73.4105 2.40909 73.0469 1.90909H74.2287C74.9219 2.92045 75.4541 4.02841 75.8253 5.23295C76.2003 6.43371 76.3878 7.75 76.3878 9.18182Z" fill="#282828"/>
<rect x="1" y="53.7704" width="24" height="23.8889" fill="#3E8952" stroke="#282828"/>
<rect x="1" y="29.8815" width="24" height="23.8889" fill="#2C5E39" stroke="#282828"/>
<rect x="1" y="77.6592" width="24" height="23.8889" fill="#4DAD67" stroke="#282828"/>
<rect x="1" y="101.548" width="24" height="23.8889" fill="#70BF85" stroke="#282828"/>
<rect x="1" y="125.437" width="24" height="23.8889" fill="#D3D3D3" stroke="#282828"/>
<rect x="1" y="149.326" width="24" height="23.8889" fill="#536ECE" stroke="#282828"/>
<rect x="1" y="173.215" width="24" height="23.8889" fill="#294AC1" stroke="#282828"/>
<rect x="1" y="197.104" width="24" height="23.8889" fill="#2540A2" stroke="#282828"/>
<rect x="1" y="220.993" width="24" height="23.8889" fill="#152A77" stroke="#282828"/>
<path d="M17.272 228.702L16.696 229.326C16.344 228.974 15.608 228.478 14.984 228.206L15.544 227.614C16.168 227.902 16.904 228.334 17.272 228.702ZM13 235.166L13.048 235.998C11.384 236.318 9.688 236.654 8.376 236.894L8.216 235.998C9.432 235.806 11.208 235.486 13 235.166ZM11.608 233.758V232.158H9.768V233.758H11.608ZM8.936 231.406H12.472V234.51H8.936V231.406ZM16.04 231.134L17.016 231.342C16.616 232.846 16.008 234.158 15.24 235.262C15.576 236.11 16.008 236.654 16.536 236.734C16.76 236.798 16.92 236.11 17.032 235.086C17.224 235.278 17.576 235.518 17.8 235.614C17.592 237.358 17.048 237.998 16.216 237.678C15.528 237.534 14.984 236.974 14.552 236.126C13.928 236.846 13.224 237.454 12.44 237.966C12.296 237.774 11.944 237.39 11.736 237.214C12.68 236.67 13.48 235.966 14.152 235.134C13.72 233.854 13.448 232.206 13.272 230.398H8.376V229.502H13.192C13.144 228.942 13.096 228.382 13.064 227.806H14.088C14.12 228.382 14.152 228.942 14.184 229.502H17.672V230.398H14.264C14.392 231.774 14.584 233.054 14.856 234.078C15.368 233.214 15.768 232.222 16.04 231.134ZM7.496 238.43H18.472V227.406H7.496V238.43ZM6.36 226.318H19.64V240.238H18.472V239.502H7.496V240.238H6.36V226.318Z" fill="#E8E8E8"/>
<path d="M8.776 42.2309H13.304C13.16 41.5429 13.064 40.8069 13.016 40.0709H8.776V42.2309ZM17.672 36.4069H8.776V38.9509H17.672V36.4069ZM20.04 43.3509H14.808C15.624 46.0709 17.112 47.9269 18.584 47.9109C19.064 47.8949 19.24 47.2389 19.32 45.5429C19.608 45.7829 20.04 46.0069 20.376 46.1029C20.184 48.4549 19.688 49.0629 18.52 49.0629C16.328 49.0789 14.472 46.6789 13.56 43.3509H8.776V47.2709C10.328 47.0629 12.104 46.8069 13.8 46.5669L13.848 47.7189C11.112 48.1349 8.2 48.5669 6.184 48.8709L5.912 47.6389L7.576 47.4309V35.3189H18.872V40.0709H14.216C14.264 40.8229 14.376 41.5429 14.52 42.2309H20.04V43.3509Z" fill="#E8E8E8"/>
<path d="M35.9225 81.8188C35.6242 81.8141 35.3259 81.7572 35.0276 81.6483C34.7293 81.5394 34.4571 81.356 34.2108 81.0979C33.9646 80.8375 33.767 80.4859 33.6178 80.0432C33.4687 79.5981 33.3941 79.0394 33.3941 78.3671C33.3941 77.7231 33.4545 77.1526 33.5752 76.6554C33.6959 76.1559 33.8711 75.7357 34.1008 75.3948C34.3304 75.0515 34.6074 74.7911 34.9317 74.6135C35.2584 74.436 35.6266 74.3472 36.0361 74.3472C36.4433 74.3472 36.8055 74.4289 37.1228 74.5922C37.4424 74.7532 37.7028 74.9781 37.904 75.2669C38.1053 75.5558 38.2355 75.8884 38.2947 76.2648H37.4282C37.3477 75.9381 37.1914 75.667 36.9594 75.4516C36.7274 75.2362 36.4197 75.1285 36.0361 75.1285C35.4727 75.1285 35.0288 75.3735 34.7045 75.8635C34.3825 76.3536 34.2203 77.0413 34.218 77.9267H34.2748C34.4073 77.7255 34.5648 77.5539 34.7471 77.4118C34.9317 77.2674 35.1353 77.1562 35.3579 77.078C35.5804 76.9999 35.816 76.9608 36.0645 76.9608C36.4812 76.9608 36.8624 77.065 37.208 77.2733C37.5537 77.4793 37.8306 77.7646 38.039 78.1292C38.2473 78.4914 38.3515 78.9069 38.3515 79.3756C38.3515 79.8254 38.2509 80.2374 38.0496 80.6114C37.8484 80.9831 37.5655 81.279 37.2009 81.4992C36.8387 81.717 36.4126 81.8235 35.9225 81.8188ZM35.9225 81.0375C36.2208 81.0375 36.4883 80.963 36.7251 80.8138C36.9642 80.6647 37.1524 80.4646 37.2897 80.2137C37.4294 79.9627 37.4992 79.6834 37.4992 79.3756C37.4992 79.0749 37.4317 78.8015 37.2968 78.5553C37.1642 78.3067 36.9807 78.109 36.7464 77.9623C36.5144 77.8155 36.2492 77.7421 35.9509 77.7421C35.726 77.7421 35.5165 77.7871 35.3224 77.877C35.1282 77.9646 34.9578 78.0854 34.811 78.2392C34.6666 78.3931 34.5529 78.5695 34.4701 78.7684C34.3872 78.9649 34.3458 79.172 34.3458 79.3898C34.3458 79.6786 34.4133 79.9485 34.5482 80.1995C34.6855 80.4504 34.8725 80.6528 35.1093 80.8067C35.3484 80.9606 35.6195 81.0375 35.9225 81.0375ZM42.1201 81.8188C41.5851 81.8188 41.1294 81.6732 40.7529 81.382C40.3765 81.0884 40.0889 80.6635 39.89 80.1071C39.6911 79.5484 39.5917 78.8737 39.5917 78.083C39.5917 77.297 39.6911 76.6258 39.89 76.0695C40.0912 75.5108 40.3801 75.0847 40.7565 74.7911C41.1353 74.4952 41.5898 74.3472 42.1201 74.3472C42.6504 74.3472 43.1038 74.4952 43.4802 74.7911C43.859 75.0847 44.1478 75.5108 44.3467 76.0695C44.5479 76.6258 44.6485 77.297 44.6485 78.083C44.6485 78.8737 44.5491 79.5484 44.3502 80.1071C44.1514 80.6635 43.8637 81.0884 43.4873 81.382C43.1109 81.6732 42.6552 81.8188 42.1201 81.8188ZM42.1201 81.0375C42.6504 81.0375 43.0624 80.7819 43.3559 80.2705C43.6495 79.7591 43.7963 79.03 43.7963 78.083C43.7963 77.4533 43.7288 76.917 43.5938 76.4743C43.4613 76.0316 43.2695 75.6943 43.0186 75.4623C42.77 75.2303 42.4705 75.1142 42.1201 75.1142C41.5945 75.1142 41.1838 75.3735 40.8879 75.8919C40.5919 76.408 40.444 77.1384 40.444 78.083C40.444 78.7127 40.5103 79.2478 40.6428 79.6881C40.7754 80.1285 40.966 80.4634 41.2146 80.6931C41.4655 80.9227 41.7674 81.0375 42.1201 81.0375Z" fill="#282828"/>
<path d="M35.9225 201.345C35.6242 201.34 35.3259 201.283 35.0276 201.174C34.7293 201.065 34.4571 200.882 34.2108 200.624C33.9646 200.363 33.767 200.012 33.6178 199.569C33.4687 199.124 33.3941 198.565 33.3941 197.893C33.3941 197.249 33.4545 196.678 33.5752 196.181C33.6959 195.682 33.8711 195.261 34.1008 194.921C34.3304 194.577 34.6074 194.317 34.9317 194.139C35.2584 193.962 35.6266 193.873 36.0361 193.873C36.4433 193.873 36.8055 193.955 37.1228 194.118C37.4424 194.279 37.7028 194.504 37.904 194.793C38.1053 195.082 38.2355 195.414 38.2947 195.791H37.4282C37.3477 195.464 37.1914 195.193 36.9594 194.977C36.7274 194.762 36.4197 194.654 36.0361 194.654C35.4727 194.654 35.0288 194.899 34.7045 195.389C34.3825 195.879 34.2203 196.567 34.218 197.453H34.2748C34.4073 197.251 34.5648 197.08 34.7471 196.938C34.9317 196.793 35.1353 196.682 35.3579 196.604C35.5804 196.526 35.816 196.487 36.0645 196.487C36.4812 196.487 36.8624 196.591 37.208 196.799C37.5537 197.005 37.8306 197.29 38.039 197.655C38.2473 198.017 38.3515 198.433 38.3515 198.901C38.3515 199.351 38.2509 199.763 38.0496 200.137C37.8484 200.509 37.5655 200.805 37.2009 201.025C36.8387 201.243 36.4126 201.349 35.9225 201.345ZM35.9225 200.563C36.2208 200.563 36.4883 200.489 36.7251 200.34C36.9642 200.19 37.1524 199.99 37.2897 199.739C37.4294 199.488 37.4992 199.209 37.4992 198.901C37.4992 198.601 37.4317 198.327 37.2968 198.081C37.1642 197.832 36.9807 197.635 36.7464 197.488C36.5144 197.341 36.2492 197.268 35.9509 197.268C35.726 197.268 35.5165 197.313 35.3224 197.403C35.1282 197.49 34.9578 197.611 34.811 197.765C34.6666 197.919 34.5529 198.095 34.4701 198.294C34.3872 198.491 34.3458 198.698 34.3458 198.916C34.3458 199.204 34.4133 199.474 34.5482 199.725C34.6855 199.976 34.8725 200.179 35.1093 200.332C35.3484 200.486 35.6195 200.563 35.9225 200.563ZM42.1201 201.345C41.5851 201.345 41.1294 201.199 40.7529 200.908C40.3765 200.614 40.0889 200.189 39.89 199.633C39.6911 199.074 39.5917 198.399 39.5917 197.609C39.5917 196.823 39.6911 196.152 39.89 195.595C40.0912 195.037 40.3801 194.61 40.7565 194.317C41.1353 194.021 41.5898 193.873 42.1201 193.873C42.6504 193.873 43.1038 194.021 43.4802 194.317C43.859 194.61 44.1478 195.037 44.3467 195.595C44.5479 196.152 44.6485 196.823 44.6485 197.609C44.6485 198.399 44.5491 199.074 44.3502 199.633C44.1514 200.189 43.8637 200.614 43.4873 200.908C43.1109 201.199 42.6552 201.345 42.1201 201.345ZM42.1201 200.563C42.6504 200.563 43.0624 200.308 43.3559 199.796C43.6495 199.285 43.7963 198.556 43.7963 197.609C43.7963 196.979 43.7288 196.443 43.5938 196C43.4613 195.557 43.2695 195.22 43.0186 194.988C42.77 194.756 42.4705 194.64 42.1201 194.64C41.5945 194.64 41.1838 194.899 40.8879 195.418C40.5919 195.934 40.444 196.664 40.444 197.609C40.444 198.238 40.5103 198.774 40.6428 199.214C40.7754 199.654 40.966 199.989 41.2146 200.219C41.4655 200.448 41.7674 200.563 42.1201 200.563Z" fill="#282828"/>
<path d="M36.0055 57.9136C35.7072 57.9089 35.4089 57.8521 35.1106 57.7432C34.8123 57.6343 34.5401 57.4508 34.2939 57.1928C34.0476 56.9323 33.85 56.5808 33.7008 56.1381C33.5517 55.693 33.4771 55.1343 33.4771 54.4619C33.4771 53.818 33.5375 53.2474 33.6582 52.7503C33.7789 52.2508 33.9541 51.8305 34.1838 51.4896C34.4134 51.1464 34.6904 50.8859 35.0147 50.7084C35.3414 50.5308 35.7096 50.442 36.1191 50.442C36.5263 50.442 36.8886 50.5237 37.2058 50.6871C37.5254 50.8481 37.7858 51.073 37.987 51.3618C38.1883 51.6506 38.3185 51.9832 38.3777 52.3597H37.5112C37.4307 52.033 37.2744 51.7619 37.0424 51.5465C36.8104 51.331 36.5027 51.2233 36.1191 51.2233C35.5557 51.2233 35.1118 51.4683 34.7875 51.9584C34.4655 52.4484 34.3033 53.1362 34.301 54.0216H34.3578C34.4904 53.8204 34.6478 53.6487 34.8301 53.5067C35.0147 53.3623 35.2183 53.251 35.4409 53.1729C35.6634 53.0947 35.899 53.0557 36.1475 53.0557C36.5642 53.0557 36.9454 53.1599 37.291 53.3682C37.6367 53.5742 37.9136 53.8594 38.122 54.224C38.3303 54.5862 38.4345 55.0017 38.4345 55.4705C38.4345 55.9203 38.3339 56.3322 38.1326 56.7063C37.9314 57.0779 37.6485 57.3739 37.2839 57.594C36.9217 57.8118 36.4956 57.9184 36.0055 57.9136ZM36.0055 57.1324C36.3038 57.1324 36.5713 57.0578 36.8081 56.9087C37.0472 56.7595 37.2354 56.5595 37.3727 56.3085C37.5124 56.0576 37.5822 55.7782 37.5822 55.4705C37.5822 55.1698 37.5147 54.8964 37.3798 54.6501C37.2472 54.4016 37.0637 54.2039 36.8294 54.0571C36.5974 53.9103 36.3322 53.8369 36.0339 53.8369C35.809 53.8369 35.5995 53.8819 35.4054 53.9719C35.2112 54.0595 35.0408 54.1802 34.894 54.3341C34.7496 54.488 34.6359 54.6644 34.5531 54.8632C34.4702 55.0597 34.4288 55.2669 34.4288 55.4847C34.4288 55.7735 34.4963 56.0434 34.6312 56.2943C34.7685 56.5453 34.9556 56.7477 35.1923 56.9016C35.4314 57.0554 35.7025 57.1324 36.0055 57.1324ZM42.1037 57.9136C41.687 57.9136 41.3118 57.8308 40.978 57.6651C40.6442 57.4993 40.3767 57.2721 40.1754 56.9832C39.9742 56.6944 39.8641 56.3653 39.8452 55.996H40.6974C40.7306 56.3251 40.8797 56.5974 41.1449 56.8128C41.4124 57.0259 41.732 57.1324 42.1037 57.1324C42.402 57.1324 42.6671 57.0626 42.8991 56.9229C43.1335 56.7832 43.317 56.5914 43.4496 56.3476C43.5845 56.1014 43.652 55.8232 43.652 55.5131C43.652 55.1958 43.5821 54.9129 43.4425 54.6644C43.3052 54.4134 43.1158 54.2157 42.8743 54.0713C42.6328 53.9269 42.357 53.8535 42.0469 53.8511C41.8243 53.8488 41.5959 53.8831 41.3615 53.9541C41.1271 54.0228 40.9342 54.1116 40.7827 54.2205L39.9588 54.121L40.3991 50.5415H44.1776V51.3227H41.1378L40.8821 53.4676H40.9247C41.0739 53.3492 41.2609 53.251 41.4858 53.1729C41.7107 53.0947 41.9451 53.0557 42.1889 53.0557C42.634 53.0557 43.0305 53.1622 43.3786 53.3753C43.7289 53.586 44.0036 53.8748 44.2024 54.2418C44.4036 54.6087 44.5043 55.0278 44.5043 55.4989C44.5043 55.9629 44.4001 56.3772 44.1918 56.7418C43.9858 57.104 43.7017 57.3904 43.3395 57.6011C42.9773 57.8095 42.5653 57.9136 42.1037 57.9136Z" fill="#282828"/>
<path d="M34.0768 33.9091L37.3296 27.4744V27.4176H33.5796V26.6363H38.2387V27.4602L35.0001 33.9091H34.0768ZM41.7783 34.0085C41.2433 34.0085 40.7876 33.8629 40.4111 33.5717C40.0347 33.2781 39.7471 32.8532 39.5482 32.2968C39.3493 31.7381 39.2499 31.0634 39.2499 30.2727C39.2499 29.4867 39.3493 28.8155 39.5482 28.2592C39.7494 27.7005 40.0383 27.2744 40.4147 26.9808C40.7935 26.6849 41.248 26.5369 41.7783 26.5369C42.3086 26.5369 42.762 26.6849 43.1384 26.9808C43.5172 27.2744 43.806 27.7005 44.0049 28.2592C44.2061 28.8155 44.3067 29.4867 44.3067 30.2727C44.3067 31.0634 44.2073 31.7381 44.0084 32.2968C43.8096 32.8532 43.5219 33.2781 43.1455 33.5717C42.7691 33.8629 42.3134 34.0085 41.7783 34.0085ZM41.7783 33.2272C42.3086 33.2272 42.7206 32.9716 43.0141 32.4602C43.3077 31.9488 43.4545 31.2197 43.4545 30.2727C43.4545 29.643 43.387 29.1067 43.252 28.664C43.1195 28.2213 42.9277 27.884 42.6768 27.652C42.4282 27.4199 42.1287 27.3039 41.7783 27.3039C41.2528 27.3039 40.842 27.5632 40.5461 28.0816C40.2501 28.5977 40.1022 29.3281 40.1022 30.2727C40.1022 30.9024 40.1685 31.4375 40.301 31.8778C40.4336 32.3181 40.6242 32.6531 40.8728 32.8828C41.1237 33.1124 41.4256 33.2272 41.7783 33.2272Z" fill="#282828"/>
<path d="M36.0055 225.25C35.7072 225.245 35.4089 225.188 35.1106 225.079C34.8123 224.97 34.5401 224.787 34.2939 224.529C34.0476 224.268 33.85 223.917 33.7008 223.474C33.5517 223.029 33.4771 222.47 33.4771 221.798C33.4771 221.154 33.5375 220.583 33.6582 220.086C33.7789 219.587 33.9541 219.166 34.1838 218.826C34.4134 218.482 34.6904 218.222 35.0147 218.044C35.3414 217.867 35.7096 217.778 36.1191 217.778C36.5263 217.778 36.8886 217.86 37.2058 218.023C37.5254 218.184 37.7858 218.409 37.987 218.698C38.1883 218.987 38.3185 219.319 38.3777 219.696H37.5112C37.4307 219.369 37.2744 219.098 37.0424 218.882C36.8104 218.667 36.5027 218.559 36.1191 218.559C35.5557 218.559 35.1118 218.804 34.7875 219.294C34.4655 219.784 34.3033 220.472 34.301 221.358H34.3578C34.4904 221.156 34.6478 220.985 34.8301 220.843C35.0147 220.698 35.2183 220.587 35.4409 220.509C35.6634 220.431 35.899 220.392 36.1475 220.392C36.5642 220.392 36.9454 220.496 37.291 220.704C37.6367 220.91 37.9136 221.195 38.122 221.56C38.3303 221.922 38.4345 222.338 38.4345 222.806C38.4345 223.256 38.3339 223.668 38.1326 224.042C37.9314 224.414 37.6485 224.71 37.2839 224.93C36.9217 225.148 36.4956 225.254 36.0055 225.25ZM36.0055 224.468C36.3038 224.468 36.5713 224.394 36.8081 224.245C37.0472 224.095 37.2354 223.895 37.3727 223.644C37.5124 223.394 37.5822 223.114 37.5822 222.806C37.5822 222.506 37.5147 222.232 37.3798 221.986C37.2472 221.738 37.0637 221.54 36.8294 221.393C36.5974 221.246 36.3322 221.173 36.0339 221.173C35.809 221.173 35.5995 221.218 35.4054 221.308C35.2112 221.395 35.0408 221.516 34.894 221.67C34.7496 221.824 34.6359 222 34.5531 222.199C34.4702 222.396 34.4288 222.603 34.4288 222.821C34.4288 223.109 34.4963 223.379 34.6312 223.63C34.7685 223.881 34.9556 224.084 35.1923 224.238C35.4314 224.391 35.7025 224.468 36.0055 224.468ZM42.1037 225.25C41.687 225.25 41.3118 225.167 40.978 225.001C40.6442 224.835 40.3767 224.608 40.1754 224.319C39.9742 224.03 39.8641 223.701 39.8452 223.332H40.6974C40.7306 223.661 40.8797 223.933 41.1449 224.149C41.4124 224.362 41.732 224.468 42.1037 224.468C42.402 224.468 42.6671 224.398 42.8991 224.259C43.1335 224.119 43.317 223.927 43.4496 223.684C43.5845 223.437 43.652 223.159 43.652 222.849C43.652 222.532 43.5821 222.249 43.4425 222C43.3052 221.749 43.1158 221.552 42.8743 221.407C42.6328 221.263 42.357 221.189 42.0469 221.187C41.8243 221.185 41.5959 221.219 41.3615 221.29C41.1271 221.359 40.9342 221.447 40.7827 221.556L39.9588 221.457L40.3991 217.877H44.1776V218.659H41.1378L40.8821 220.804H40.9247C41.0739 220.685 41.2609 220.587 41.4858 220.509C41.7107 220.431 41.9451 220.392 42.1889 220.392C42.634 220.392 43.0305 220.498 43.3786 220.711C43.7289 220.922 44.0036 221.211 44.2024 221.578C44.4036 221.945 44.5043 222.364 44.5043 222.835C44.5043 223.299 44.4001 223.713 44.1918 224.078C43.9858 224.44 43.7017 224.726 43.3395 224.937C42.9773 225.145 42.5653 225.25 42.1037 225.25Z" fill="#282828"/>
<path d="M34.0768 249.055L37.3296 242.621V242.564H33.5796V241.783H38.2387V242.607L35.0001 249.055H34.0768ZM41.7783 249.155C41.2433 249.155 40.7876 249.009 40.4111 248.718C40.0347 248.425 39.7471 248 39.5482 247.443C39.3493 246.884 39.2499 246.21 39.2499 245.419C39.2499 244.633 39.3493 243.962 39.5482 243.406C39.7494 242.847 40.0383 242.421 40.4147 242.127C40.7935 241.831 41.248 241.683 41.7783 241.683C42.3086 241.683 42.762 241.831 43.1384 242.127C43.5172 242.421 43.806 242.847 44.0049 243.406C44.2061 243.962 44.3067 244.633 44.3067 245.419C44.3067 246.21 44.2073 246.884 44.0084 247.443C43.8096 248 43.5219 248.425 43.1455 248.718C42.7691 249.009 42.3134 249.155 41.7783 249.155ZM41.7783 248.374C42.3086 248.374 42.7206 248.118 43.0141 247.607C43.3077 247.095 43.4545 246.366 43.4545 245.419C43.4545 244.789 43.387 244.253 43.252 243.81C43.1195 243.368 42.9277 243.03 42.6768 242.798C42.4282 242.566 42.1287 242.45 41.7783 242.45C41.2528 242.45 40.842 242.71 40.5461 243.228C40.2501 243.744 40.1022 244.474 40.1022 245.419C40.1022 246.049 40.1685 246.584 40.301 247.024C40.4336 247.465 40.6242 247.8 40.8728 248.029C41.1237 248.259 41.4256 248.374 41.7783 248.374Z" fill="#282828"/>
<path d="M35.9416 105.724C35.5249 105.724 35.1497 105.641 34.8159 105.475C34.4821 105.31 34.2145 105.082 34.0133 104.794C33.8121 104.505 33.702 104.176 33.6831 103.806H34.5353C34.5685 104.135 34.7176 104.408 34.9828 104.623C35.2503 104.836 35.5699 104.943 35.9416 104.943C36.2399 104.943 36.505 104.873 36.737 104.733C36.9714 104.593 37.1549 104.402 37.2875 104.158C37.4224 103.912 37.4899 103.634 37.4899 103.323C37.4899 103.006 37.42 102.723 37.2804 102.475C37.1431 102.224 36.9537 102.026 36.7122 101.882C36.4707 101.737 36.1949 101.664 35.8848 101.661C35.6622 101.659 35.4338 101.693 35.1994 101.764C34.965 101.833 34.7721 101.922 34.6206 102.031L33.7967 101.931L34.237 98.3518H38.0154V99.133H34.9757L34.72 101.278H34.7626C34.9118 101.16 35.0988 101.061 35.3237 100.983C35.5486 100.905 35.783 100.866 36.0268 100.866C36.4719 100.866 36.8684 100.973 37.2164 101.186C37.5668 101.396 37.8414 101.685 38.0403 102.052C38.2415 102.419 38.3422 102.838 38.3422 103.309C38.3422 103.773 38.238 104.187 38.0297 104.552C37.8237 104.914 37.5396 105.201 37.1774 105.411C36.8152 105.62 36.4032 105.724 35.9416 105.724ZM42.0256 105.724C41.6089 105.724 41.2337 105.641 40.8999 105.475C40.5661 105.31 40.2985 105.082 40.0973 104.794C39.8961 104.505 39.786 104.176 39.767 103.806H40.6193C40.6525 104.135 40.8016 104.408 41.0668 104.623C41.3343 104.836 41.6539 104.943 42.0256 104.943C42.3239 104.943 42.589 104.873 42.821 104.733C43.0554 104.593 43.2389 104.402 43.3714 104.158C43.5064 103.912 43.5739 103.634 43.5739 103.323C43.5739 103.006 43.504 102.723 43.3643 102.475C43.227 102.224 43.0376 102.026 42.7962 101.882C42.5547 101.737 42.2789 101.664 41.9688 101.661C41.7462 101.659 41.5178 101.693 41.2834 101.764C41.049 101.833 40.8561 101.922 40.7045 102.031L39.8807 101.931L40.321 98.3518H44.0994V99.133H41.0597L40.804 101.278H40.8466C40.9957 101.16 41.1828 101.061 41.4077 100.983C41.6326 100.905 41.867 100.866 42.1108 100.866C42.5559 100.866 42.9524 100.973 43.3004 101.186C43.6508 101.396 43.9254 101.685 44.1243 102.052C44.3255 102.419 44.4261 102.838 44.4261 103.309C44.4261 103.773 44.322 104.187 44.1136 104.552C43.9077 104.914 43.6236 105.201 43.2614 105.411C42.8991 105.62 42.4872 105.724 42.0256 105.724Z" fill="#282828"/>
<path d="M39 129.629C38.465 129.629 38.0092 129.483 37.6328 129.192C37.2564 128.899 36.9688 128.474 36.7699 127.917C36.571 127.359 36.4716 126.684 36.4716 125.893C36.4716 125.107 36.571 124.436 36.7699 123.88C36.9711 123.321 37.2599 122.895 37.6364 122.601C38.0152 122.305 38.4697 122.158 39 122.158C39.5303 122.158 39.9837 122.305 40.3601 122.601C40.7389 122.895 41.0277 123.321 41.2266 123.88C41.4278 124.436 41.5284 125.107 41.5284 125.893C41.5284 126.684 41.429 127.359 41.2301 127.917C41.0312 128.474 40.7436 128.899 40.3672 129.192C39.9908 129.483 39.535 129.629 39 129.629ZM39 128.848C39.5303 128.848 39.9422 128.592 40.2358 128.081C40.5294 127.569 40.6761 126.84 40.6761 125.893C40.6761 125.264 40.6087 124.727 40.4737 124.285C40.3411 123.842 40.1494 123.505 39.8984 123.273C39.6499 123.041 39.3504 122.925 39 122.925C38.4744 122.925 38.0637 123.184 37.7678 123.702C37.4718 124.218 37.3239 124.949 37.3239 125.893C37.3239 126.523 37.3902 127.058 37.5227 127.498C37.6553 127.939 37.8459 128.274 38.0945 128.503C38.3454 128.733 38.6473 128.848 39 128.848Z" fill="#282828"/>
<path d="M35.9416 177.439C35.5249 177.439 35.1497 177.357 34.8159 177.191C34.4821 177.025 34.2145 176.798 34.0133 176.509C33.8121 176.22 33.702 175.891 33.6831 175.522H34.5353C34.5685 175.851 34.7176 176.123 34.9828 176.339C35.2503 176.552 35.5699 176.658 35.9416 176.658C36.2399 176.658 36.505 176.588 36.737 176.449C36.9714 176.309 37.1549 176.117 37.2875 175.873C37.4224 175.627 37.4899 175.349 37.4899 175.039C37.4899 174.722 37.42 174.439 37.2804 174.19C37.1431 173.939 36.9537 173.741 36.7122 173.597C36.4707 173.453 36.1949 173.379 35.8848 173.377C35.6622 173.375 35.4338 173.409 35.1994 173.48C34.965 173.549 34.7721 173.637 34.6206 173.746L33.7967 173.647L34.237 170.067H38.0154V170.848H34.9757L34.72 172.993H34.7626C34.9118 172.875 35.0988 172.777 35.3237 172.699C35.5486 172.621 35.783 172.581 36.0268 172.581C36.4719 172.581 36.8684 172.688 37.2164 172.901C37.5668 173.112 37.8414 173.401 38.0403 173.768C38.2415 174.134 38.3422 174.554 38.3422 175.025C38.3422 175.489 38.238 175.903 38.0297 176.268C37.8237 176.63 37.5396 176.916 37.1774 177.127C36.8152 177.335 36.4032 177.439 35.9416 177.439ZM42.0256 177.439C41.6089 177.439 41.2337 177.357 40.8999 177.191C40.5661 177.025 40.2985 176.798 40.0973 176.509C39.8961 176.22 39.786 175.891 39.767 175.522H40.6193C40.6525 175.851 40.8016 176.123 41.0668 176.339C41.3343 176.552 41.6539 176.658 42.0256 176.658C42.3239 176.658 42.589 176.588 42.821 176.449C43.0554 176.309 43.2389 176.117 43.3714 175.873C43.5064 175.627 43.5739 175.349 43.5739 175.039C43.5739 174.722 43.504 174.439 43.3643 174.19C43.227 173.939 43.0376 173.741 42.7962 173.597C42.5547 173.453 42.2789 173.379 41.9688 173.377C41.7462 173.375 41.5178 173.409 41.2834 173.48C41.049 173.549 40.8561 173.637 40.7045 173.746L39.8807 173.647L40.321 170.067H44.0994V170.848H41.0597L40.804 172.993H40.8466C40.9957 172.875 41.1828 172.777 41.4077 172.699C41.6326 172.621 41.867 172.581 42.1108 172.581C42.5559 172.581 42.9524 172.688 43.3004 172.901C43.6508 173.112 43.9254 173.401 44.1243 173.768C44.3255 174.134 44.4261 174.554 44.4261 175.025C44.4261 175.489 44.322 175.903 44.1136 176.268C43.9077 176.63 43.6236 176.916 43.2614 177.127C42.8991 177.335 42.4872 177.439 42.0256 177.439Z" fill="#282828"/>
<path d="M39 153.534C38.465 153.534 38.0092 153.389 37.6328 153.097C37.2564 152.804 36.9688 152.379 36.7699 151.823C36.571 151.264 36.4716 150.589 36.4716 149.798C36.4716 149.012 36.571 148.341 36.7699 147.785C36.9711 147.226 37.2599 146.8 37.6364 146.507C38.0152 146.211 38.4697 146.063 39 146.063C39.5303 146.063 39.9837 146.211 40.3601 146.507C40.7389 146.8 41.0277 147.226 41.2266 147.785C41.4278 148.341 41.5284 149.012 41.5284 149.798C41.5284 150.589 41.429 151.264 41.2301 151.823C41.0312 152.379 40.7436 152.804 40.3672 153.097C39.9908 153.389 39.535 153.534 39 153.534ZM39 152.753C39.5303 152.753 39.9422 152.497 40.2358 151.986C40.5294 151.475 40.6761 150.745 40.6761 149.798C40.6761 149.169 40.6087 148.632 40.4737 148.19C40.3411 147.747 40.1494 147.41 39.8984 147.178C39.6499 146.946 39.3504 146.83 39 146.83C38.4744 146.83 38.0637 147.089 37.7678 147.607C37.4718 148.123 37.3239 148.854 37.3239 149.798C37.3239 150.428 37.3902 150.963 37.5227 151.404C37.6553 151.844 37.8459 152.179 38.0945 152.409C38.3454 152.638 38.6473 152.753 39 152.753Z" fill="#282828"/>
</svg>
