<svg width="218" height="70" viewBox="0 0 218 70" fill="none" xmlns="http://www.w3.org/2000/svg">
<rect x="49" y="30" width="40" height="20" fill="#536ECE" stroke="#282828"/>
<rect x="9" y="30" width="40" height="20" fill="#9DADE6" stroke="#282828"/>
<rect x="89" y="30" width="40" height="20" fill="#294AC1" stroke="#282828"/>
<rect x="129" y="30" width="40" height="20" fill="#2540A2" stroke="#282828"/>
<rect x="169" y="30" width="40" height="20" fill="#152A77" stroke="#282828"/>
<path d="M25.22 5.62V4.02H18.64V5.62H25.22ZM25.22 8.32V6.7H18.64V8.32H25.22ZM26.7 2.9V9.46H17.2V2.9H26.7ZM14.06 2.34L15.48 2.88C14.3 4.58 12.36 6.44 10.6 7.62C10.44 7.28 10.08 6.72 9.82 6.42C11.4 5.4 13.18 3.74 14.06 2.34ZM14.42 6.7L15.72 7.22C15.26 8.04 14.68 8.88 14.08 9.68V20.52H12.62V11.36C11.86 12.18 11.06 12.92 10.28 13.52C10.16 13.22 9.76 12.46 9.5 12.1C11.3 10.78 13.24 8.76 14.42 6.7ZM17.24 16.08L18.3 15.4C19.22 16.22 20.32 17.4 20.84 18.18L19.7 18.98C19.22 18.18 18.16 16.96 17.24 16.08ZM28 13.78V15.06H25.02V18.9C25.02 19.7 24.84 20.08 24.26 20.32C23.66 20.54 22.72 20.56 21.22 20.56C21.16 20.14 20.94 19.6 20.74 19.2C21.86 19.24 22.86 19.24 23.14 19.22C23.46 19.2 23.54 19.12 23.54 18.86V15.06H15.52V13.78H23.54V12.08H15.98V10.8H27.64V12.08H25.02V13.78H28ZM40.48 5.84V4.3H37.34V5.84H40.48ZM45.1 6.96H41.9V9.26H45.1V6.96ZM37.34 6.96V9.26H40.48V6.96H37.34ZM32.92 6.96V9.26H35.96V6.96H32.92ZM35.96 5.84V4.3H30.34V3.06H47.54V4.3H41.9V5.84H46.56V10.4H31.54V5.84H35.96ZM45.5 12.9H32.56V11.72H45.5V12.9ZM34.46 16L35.82 16.48C34.64 17.94 32.74 19.34 31.08 20.22C30.84 19.96 30.28 19.46 29.96 19.24C31.64 18.48 33.42 17.28 34.46 16ZM41.9 16.84L42.96 16.06C44.58 16.92 46.7 18.26 47.8 19.18L46.66 20.04C45.64 19.14 43.54 17.78 41.9 16.84ZM30.12 14.28H47.92V15.5H39.76V18.96C39.76 19.74 39.6 20.1 39 20.32C38.42 20.54 37.48 20.56 36.04 20.56C35.98 20.14 35.76 19.6 35.56 19.22C36.68 19.26 37.62 19.26 37.92 19.24C38.22 19.22 38.28 19.14 38.28 18.92V15.5H30.12V14.28ZM67.9 13.22L66.8 14.16C65.84 13.32 63.86 12.12 62.3 11.32L63.34 10.48C64.86 11.22 66.86 12.4 67.9 13.22ZM65.76 6.42L67.06 7.1C66.04 8.02 64.76 8.94 63.74 9.58L62.68 8.94C63.66 8.28 65 7.2 65.76 6.42ZM55.68 7.6L56.24 7.96C56.76 7.3 57.3 6.5 57.68 5.86H50.74V4.52H58.2V2.28H59.68V4.52H67.32V5.86H58.62L59.14 6.06C58.52 6.92 57.78 7.84 57.14 8.54C57.7 8.94 58.24 9.34 58.66 9.7C59.46 8.78 60.2 7.86 60.76 7.06L61.94 7.62C60.76 9.1 59.2 10.84 57.76 12.22L61.2 12.04C60.82 11.5 60.42 10.98 60.02 10.52L61.1 10.04C62.08 11.14 63.18 12.62 63.62 13.64L62.48 14.24C62.34 13.92 62.14 13.52 61.9 13.12C59.36 13.3 56.82 13.46 54.9 13.6L54.7 12.34C55.14 12.32 55.66 12.3 56.2 12.28C56.72 11.78 57.28 11.22 57.84 10.62C57.06 9.94 55.9 9.1 54.94 8.48L55.68 7.6ZM54.94 8.84L53.9 9.74C53.24 9.1 51.88 8.16 50.76 7.52L51.76 6.7C52.86 7.28 54.26 8.2 54.94 8.84ZM55.08 10.7L55.36 11.82C53.78 12.56 52.14 13.36 50.8 13.94L50.06 12.74C51.34 12.28 53.22 11.48 55.08 10.7ZM59.68 13.6V15.14H67.88V16.52H59.68V20.58H58.2V16.52H50.14V15.14H58.2V13.6H59.68ZM76.7557 11.7273C76.7557 9.9375 76.9877 8.29214 77.4517 6.79119C77.9205 5.28551 78.5881 3.90057 79.4545 2.63636H80.9318C80.5909 3.10511 80.2713 3.68277 79.973 4.36932C79.6795 5.05114 79.4214 5.80161 79.1989 6.62074C78.9763 7.43513 78.8011 8.27794 78.6733 9.14915C78.5502 10.0204 78.4886 10.8797 78.4886 11.7273C78.4886 12.8542 78.5975 13.9976 78.8153 15.1577C79.0331 16.3177 79.3267 17.3949 79.696 18.3892C80.0653 19.3835 80.4773 20.1932 80.9318 20.8182H79.4545C78.5881 19.554 77.9205 18.1714 77.4517 16.6705C76.9877 15.1648 76.7557 13.517 76.7557 11.7273ZM90.7915 16.2727V15.5057C90.7915 14.9754 90.9005 14.4901 91.1183 14.0497C91.3408 13.6046 91.6628 13.2495 92.0842 12.9844C92.5103 12.7145 93.0264 12.5795 93.6325 12.5795C94.248 12.5795 94.7641 12.7145 95.1808 12.9844C95.5974 13.2495 95.9123 13.6046 96.1254 14.0497C96.3384 14.4901 96.445 14.9754 96.445 15.5057V16.2727C96.445 16.803 96.3361 17.2907 96.1183 17.7358C95.9052 18.1761 95.588 18.5312 95.1665 18.8011C94.7499 19.0663 94.2385 19.1989 93.6325 19.1989C93.0169 19.1989 92.4985 19.0663 92.0771 18.8011C91.6557 18.5312 91.3361 18.1761 91.1183 17.7358C90.9005 17.2907 90.7915 16.803 90.7915 16.2727ZM92.2404 15.5057V16.2727C92.2404 16.7131 92.3446 17.1084 92.5529 17.4588C92.7612 17.8045 93.1211 17.9773 93.6325 17.9773C94.1296 17.9773 94.48 17.8045 94.6836 17.4588C94.8919 17.1084 94.9961 16.7131 94.9961 16.2727V15.5057C94.9961 15.0653 94.8967 14.6723 94.6978 14.3267C94.4989 13.9763 94.1438 13.8011 93.6325 13.8011C93.1353 13.8011 92.7778 13.9763 92.56 14.3267C92.3469 14.6723 92.2404 15.0653 92.2404 15.5057ZM83.5472 7.94886V7.18182C83.5472 6.65152 83.6561 6.16619 83.8739 5.72585C84.0965 5.28078 84.4184 4.92566 84.8398 4.66051C85.266 4.39062 85.7821 4.25568 86.3881 4.25568C87.0037 4.25568 87.5198 4.39062 87.9364 4.66051C88.3531 4.92566 88.668 5.28078 88.881 5.72585C89.0941 6.16619 89.2006 6.65152 89.2006 7.18182V7.94886C89.2006 8.47917 89.0917 8.96686 88.8739 9.41193C88.6609 9.85227 88.3436 10.2074 87.9222 10.4773C87.5056 10.7424 86.9942 10.875 86.3881 10.875C85.7726 10.875 85.2541 10.7424 84.8327 10.4773C84.4113 10.2074 84.0917 9.85227 83.8739 9.41193C83.6561 8.96686 83.5472 8.47917 83.5472 7.94886ZM84.9961 7.18182V7.94886C84.9961 8.3892 85.1003 8.78456 85.3086 9.13494C85.5169 9.48059 85.8768 9.65341 86.3881 9.65341C86.8853 9.65341 87.2357 9.48059 87.4393 9.13494C87.6476 8.78456 87.7518 8.3892 87.7518 7.94886V7.18182C87.7518 6.74148 87.6523 6.34848 87.4535 6.00284C87.2546 5.65246 86.8995 5.47727 86.3881 5.47727C85.891 5.47727 85.5335 5.65246 85.3157 6.00284C85.1026 6.34848 84.9961 6.74148 84.9961 7.18182ZM84.087 19L94.087 4.45455H95.7063L85.7063 19H84.087ZM103.235 11.7273C103.235 13.517 103 15.1648 102.532 16.6705C102.068 18.1714 101.402 19.554 100.536 20.8182H99.0586C99.3995 20.3494 99.7167 19.7718 100.01 19.0852C100.309 18.4034 100.569 17.6553 100.792 16.8409C101.014 16.0218 101.187 15.1766 101.31 14.3054C101.438 13.4295 101.502 12.5701 101.502 11.7273C101.502 10.6004 101.393 9.45691 101.175 8.29688C100.957 7.13684 100.664 6.05966 100.294 5.06534C99.9251 4.07102 99.5131 3.26136 99.0586 2.63636H100.536C101.402 3.90057 102.068 5.28551 102.532 6.79119C103 8.29214 103.235 9.9375 103.235 11.7273Z" fill="black"/>
<path d="M80.9491 65.9119V64.8977L85.4236 57.8182H86.1594V59.3892H85.6622L82.2815 64.7386V64.8182H88.3071V65.9119H80.9491ZM85.7417 68V65.6037V65.1314V57.8182H86.915V68H85.7417ZM93.4912 68.1392C92.7422 68.1392 92.1041 67.9354 91.5771 67.5277C91.0502 67.1167 90.6475 66.5218 90.3691 65.7429C90.0906 64.9607 89.9514 64.0161 89.9514 62.9091C89.9514 61.8087 90.0906 60.8691 90.3691 60.0902C90.6508 59.308 91.0551 58.7114 91.5821 58.3004C92.1124 57.8861 92.7488 57.679 93.4912 57.679C94.2336 57.679 94.8683 57.8861 95.3953 58.3004C95.9256 58.7114 96.33 59.308 96.6084 60.0902C96.8901 60.8691 97.031 61.8087 97.031 62.9091C97.031 64.0161 96.8918 64.9607 96.6134 65.7429C96.335 66.5218 95.9323 67.1167 95.4053 67.5277C94.8783 67.9354 94.2403 68.1392 93.4912 68.1392ZM93.4912 67.0455C94.2336 67.0455 94.8103 66.6875 95.2213 65.9716C95.6323 65.2557 95.8378 64.2348 95.8378 62.9091C95.8378 62.0275 95.7433 61.2768 95.5544 60.657C95.3688 60.0372 95.1003 59.5649 94.749 59.2401C94.401 58.9152 93.9817 58.7528 93.4912 58.7528C92.7554 58.7528 92.1804 59.1158 91.7661 59.8416C91.3518 60.5642 91.1446 61.5866 91.1446 62.9091C91.1446 63.7907 91.2374 64.5398 91.423 65.1562C91.6086 65.7727 91.8754 66.2417 92.2235 66.5632C92.5748 66.8847 92.9974 67.0455 93.4912 67.0455Z" fill="black"/>
<path d="M44.6623 68.1392C44.006 68.1392 43.421 68.0265 42.9073 67.8011C42.3969 67.5758 41.9909 67.2625 41.6893 66.8615C41.391 66.4571 41.2286 65.9882 41.2021 65.4545H42.4549C42.4814 65.7827 42.5941 66.0661 42.793 66.3047C42.9918 66.54 43.252 66.7223 43.5735 66.8516C43.895 66.9808 44.2513 67.0455 44.6424 67.0455C45.0799 67.0455 45.4677 66.9692 45.8058 66.8168C46.1438 66.6643 46.409 66.4522 46.6012 66.1804C46.7934 65.9086 46.8896 65.5938 46.8896 65.2358C46.8896 64.8613 46.7968 64.5315 46.6112 64.2464C46.4255 63.9581 46.1538 63.7327 45.7958 63.5703C45.4379 63.4079 45.0004 63.3267 44.4833 63.3267H43.668V62.233H44.4833C44.8877 62.233 45.2423 62.16 45.5472 62.0142C45.8555 61.8684 46.0958 61.6629 46.2681 61.3977C46.4438 61.1326 46.5316 60.821 46.5316 60.4631C46.5316 60.1184 46.4554 59.8184 46.3029 59.5632C46.1504 59.308 45.935 59.1091 45.6566 58.9666C45.3815 58.8241 45.0567 58.7528 44.6822 58.7528C44.3308 58.7528 43.9994 58.8175 43.6879 58.9467C43.3796 59.0727 43.1277 59.2566 42.9322 59.4986C42.7366 59.7372 42.6306 60.0256 42.614 60.3636H41.4208C41.4407 59.83 41.6014 59.3627 41.9031 58.9616C42.2047 58.5573 42.5991 58.2424 43.0863 58.017C43.5768 57.7917 44.1154 57.679 44.7021 57.679C45.3318 57.679 45.872 57.8066 46.3228 58.0618C46.7736 58.3137 47.1199 58.6468 47.3619 59.0611C47.6038 59.4754 47.7248 59.9228 47.7248 60.4034C47.7248 60.9768 47.574 61.4657 47.2724 61.87C46.9741 62.2744 46.5681 62.5545 46.0543 62.7102V62.7898C46.6973 62.8958 47.1995 63.1693 47.5607 63.6101C47.922 64.0476 48.1026 64.5895 48.1026 65.2358C48.1026 65.7893 47.9518 66.2865 47.6502 66.7273C47.3519 67.1648 46.9442 67.5095 46.4272 67.7614C45.9102 68.0133 45.3219 68.1392 44.6623 68.1392ZM53.457 68.1392C52.708 68.1392 52.07 67.9354 51.543 67.5277C51.016 67.1167 50.6133 66.5218 50.3349 65.7429C50.0565 64.9607 49.9173 64.0161 49.9173 62.9091C49.9173 61.8087 50.0565 60.8691 50.3349 60.0902C50.6166 59.308 51.021 58.7114 51.5479 58.3004C52.0782 57.8861 52.7146 57.679 53.457 57.679C54.1995 57.679 54.8342 57.8861 55.3612 58.3004C55.8915 58.7114 56.2958 59.308 56.5742 60.0902C56.8559 60.8691 56.9968 61.8087 56.9968 62.9091C56.9968 64.0161 56.8576 64.9607 56.5792 65.7429C56.3008 66.5218 55.8981 67.1167 55.3711 67.5277C54.8441 67.9354 54.2061 68.1392 53.457 68.1392ZM53.457 67.0455C54.1995 67.0455 54.7762 66.6875 55.1871 65.9716C55.5981 65.2557 55.8036 64.2348 55.8036 62.9091C55.8036 62.0275 55.7092 61.2768 55.5202 60.657C55.3346 60.0372 55.0662 59.5649 54.7148 59.2401C54.3668 58.9152 53.9476 58.7528 53.457 58.7528C52.7212 58.7528 52.1462 59.1158 51.7319 59.8416C51.3176 60.5642 51.1104 61.5866 51.1104 62.9091C51.1104 63.7907 51.2032 64.5398 51.3888 65.1562C51.5745 65.7727 51.8413 66.2417 52.1893 66.5632C52.5406 66.8847 52.9632 67.0455 53.457 67.0455Z" fill="black"/>
<path d="M9 68.1392C8.25095 68.1392 7.61293 67.9354 7.08594 67.5277C6.55895 67.1167 6.15625 66.5218 5.87784 65.7429C5.59943 64.9607 5.46023 64.0161 5.46023 62.9091C5.46023 61.8087 5.59943 60.8691 5.87784 60.0902C6.15956 59.308 6.56392 58.7114 7.09091 58.3004C7.62121 57.8861 8.25758 57.679 9 57.679C9.74242 57.679 10.3771 57.8861 10.9041 58.3004C11.4344 58.7114 11.8388 59.308 12.1172 60.0902C12.3989 60.8691 12.5398 61.8087 12.5398 62.9091C12.5398 64.0161 12.4006 64.9607 12.1222 65.7429C11.8438 66.5218 11.4411 67.1167 10.9141 67.5277C10.3871 67.9354 9.74905 68.1392 9 68.1392ZM9 67.0455C9.74242 67.0455 10.3191 66.6875 10.7301 65.9716C11.1411 65.2557 11.3466 64.2348 11.3466 62.9091C11.3466 62.0275 11.2521 61.2768 11.0632 60.657C10.8776 60.0372 10.6091 59.5649 10.2578 59.2401C9.9098 58.9152 9.49053 58.7528 9 58.7528C8.2642 58.7528 7.68916 59.1158 7.27486 59.8416C6.86056 60.5642 6.65341 61.5866 6.65341 62.9091C6.65341 63.7907 6.74621 64.5398 6.93182 65.1562C7.11742 65.7727 7.38423 66.2417 7.73224 66.5632C8.08357 66.8847 8.50616 67.0455 9 67.0455Z" fill="black"/>
<path d="M124.602 68.1392C124.019 68.1392 123.493 68.0232 123.026 67.7912C122.559 67.5592 122.184 67.241 121.902 66.8366C121.621 66.4323 121.467 65.9716 121.44 65.4545H122.633C122.68 65.9152 122.888 66.2964 123.26 66.598C123.634 66.8963 124.082 67.0455 124.602 67.0455C125.02 67.0455 125.391 66.9477 125.716 66.7521C126.044 66.5566 126.301 66.2881 126.486 65.9467C126.675 65.602 126.77 65.2126 126.77 64.7784C126.77 64.3343 126.672 63.9382 126.476 63.5902C126.284 63.2389 126.019 62.9621 125.681 62.7599C125.343 62.5578 124.957 62.455 124.522 62.4517C124.211 62.4484 123.891 62.4964 123.563 62.5959C123.235 62.692 122.965 62.8163 122.753 62.9688L121.599 62.8295L122.216 57.8182H127.505V58.9119H123.25L122.892 61.9148H122.951C123.16 61.7491 123.422 61.6115 123.737 61.5021C124.052 61.3928 124.38 61.3381 124.721 61.3381C125.344 61.3381 125.9 61.4872 126.387 61.7855C126.877 62.0805 127.262 62.4848 127.54 62.9986C127.822 63.5123 127.963 64.099 127.963 64.7585C127.963 65.4081 127.817 65.9882 127.525 66.4986C127.237 67.0057 126.839 67.4067 126.332 67.7017C125.825 67.9934 125.248 68.1392 124.602 68.1392ZM133.259 68.1392C132.51 68.1392 131.872 67.9354 131.345 67.5277C130.818 67.1167 130.415 66.5218 130.137 65.7429C129.858 64.9607 129.719 64.0161 129.719 62.9091C129.719 61.8087 129.858 60.8691 130.137 60.0902C130.418 59.308 130.823 58.7114 131.35 58.3004C131.88 57.8861 132.516 57.679 133.259 57.679C134.001 57.679 134.636 57.8861 135.163 58.3004C135.693 58.7114 136.098 59.308 136.376 60.0902C136.658 60.8691 136.799 61.8087 136.799 62.9091C136.799 64.0161 136.659 64.9607 136.381 65.7429C136.103 66.5218 135.7 67.1167 135.173 67.5277C134.646 67.9354 134.008 68.1392 133.259 68.1392ZM133.259 67.0455C134.001 67.0455 134.578 66.6875 134.989 65.9716C135.4 65.2557 135.605 64.2348 135.605 62.9091C135.605 62.0275 135.511 61.2768 135.322 60.657C135.136 60.0372 134.868 59.5649 134.517 59.2401C134.169 58.9152 133.749 58.7528 133.259 58.7528C132.523 58.7528 131.948 59.1158 131.534 59.8416C131.119 60.5642 130.912 61.5866 130.912 62.9091C130.912 63.7907 131.005 64.5398 131.191 65.1562C131.376 65.7727 131.643 66.2417 131.991 66.5632C132.342 66.8847 132.765 67.0455 133.259 67.0455Z" fill="black"/>
<path d="M164.691 68.1392C164.274 68.1326 163.856 68.053 163.439 67.9006C163.021 67.7481 162.64 67.4912 162.295 67.13C161.95 66.7654 161.674 66.2732 161.465 65.6534C161.256 65.0303 161.152 64.2481 161.152 63.3068C161.152 62.4053 161.236 61.6065 161.405 60.9105C161.574 60.2112 161.82 59.6229 162.141 59.1456C162.463 58.665 162.85 58.3004 163.304 58.0518C163.762 57.8033 164.277 57.679 164.851 57.679C165.421 57.679 165.928 57.7933 166.372 58.022C166.819 58.2474 167.184 58.5623 167.466 58.9666C167.747 59.371 167.93 59.8366 168.013 60.3636H166.799C166.687 59.9062 166.468 59.5268 166.143 59.2251C165.818 58.9235 165.388 58.7727 164.851 58.7727C164.062 58.7727 163.44 59.1158 162.986 59.8018C162.535 60.4879 162.308 61.4508 162.305 62.6903H162.385C162.57 62.4086 162.791 62.1683 163.046 61.9695C163.304 61.7673 163.589 61.6115 163.901 61.5021C164.213 61.3928 164.542 61.3381 164.89 61.3381C165.474 61.3381 166.007 61.4839 166.491 61.7756C166.975 62.0639 167.363 62.4633 167.655 62.9737C167.946 63.4808 168.092 64.0625 168.092 64.7188C168.092 65.3485 167.951 65.9252 167.669 66.4489C167.388 66.9692 166.992 67.3835 166.481 67.6918C165.974 67.9967 165.378 68.1458 164.691 68.1392ZM164.691 67.0455C165.109 67.0455 165.484 66.9411 165.815 66.7322C166.15 66.5234 166.413 66.2434 166.606 65.892C166.801 65.5407 166.899 65.1496 166.899 64.7188C166.899 64.2978 166.804 63.915 166.616 63.5703C166.43 63.2223 166.173 62.9455 165.845 62.7401C165.52 62.5346 165.149 62.4318 164.731 62.4318C164.416 62.4318 164.123 62.4948 163.851 62.6207C163.58 62.7434 163.341 62.9124 163.135 63.1278C162.933 63.3433 162.774 63.5902 162.658 63.8686C162.542 64.1437 162.484 64.4337 162.484 64.7386C162.484 65.143 162.579 65.5208 162.767 65.8722C162.96 66.2235 163.222 66.5069 163.553 66.7223C163.888 66.9377 164.267 67.0455 164.691 67.0455ZM173.368 68.1392C172.619 68.1392 171.981 67.9354 171.454 67.5277C170.927 67.1167 170.524 66.5218 170.246 65.7429C169.968 64.9607 169.828 64.0161 169.828 62.9091C169.828 61.8087 169.968 60.8691 170.246 60.0902C170.528 59.308 170.932 58.7114 171.459 58.3004C171.989 57.8861 172.626 57.679 173.368 57.679C174.111 57.679 174.745 57.8861 175.272 58.3004C175.803 58.7114 176.207 59.308 176.485 60.0902C176.767 60.8691 176.908 61.8087 176.908 62.9091C176.908 64.0161 176.769 64.9607 176.49 65.7429C176.212 66.5218 175.809 67.1167 175.282 67.5277C174.755 67.9354 174.117 68.1392 173.368 68.1392ZM173.368 67.0455C174.111 67.0455 174.687 66.6875 175.098 65.9716C175.509 65.2557 175.715 64.2348 175.715 62.9091C175.715 62.0275 175.62 61.2768 175.431 60.657C175.246 60.0372 174.977 59.5649 174.626 59.2401C174.278 58.9152 173.859 58.7528 173.368 58.7528C172.632 58.7528 172.057 59.1158 171.643 59.8416C171.229 60.5642 171.022 61.5866 171.022 62.9091C171.022 63.7907 171.114 64.5398 171.3 65.1562C171.486 65.7727 171.752 66.2417 172.1 66.5632C172.452 66.8847 172.874 67.0455 173.368 67.0455Z" fill="black"/>
<path d="M202.108 68L206.661 58.9915V58.9119H201.411V57.8182H207.934V58.9716L203.4 68H202.108ZM212.89 68.1392C212.141 68.1392 211.503 67.9354 210.976 67.5277C210.449 67.1167 210.046 66.5218 209.767 65.7429C209.489 64.9607 209.35 64.0161 209.35 62.9091C209.35 61.8087 209.489 60.8691 209.767 60.0902C210.049 59.308 210.454 58.7114 210.981 58.3004C211.511 57.8861 212.147 57.679 212.89 57.679C213.632 57.679 214.267 57.8861 214.794 58.3004C215.324 58.7114 215.728 59.308 216.007 60.0902C216.289 60.8691 216.429 61.8087 216.429 62.9091C216.429 64.0161 216.29 64.9607 216.012 65.7429C215.733 66.5218 215.331 67.1167 214.804 67.5277C214.277 67.9354 213.639 68.1392 212.89 68.1392ZM212.89 67.0455C213.632 67.0455 214.209 66.6875 214.62 65.9716C215.031 65.2557 215.236 64.2348 215.236 62.9091C215.236 62.0275 215.142 61.2768 214.953 60.657C214.767 60.0372 214.499 59.5649 214.147 59.2401C213.799 58.9152 213.38 58.7528 212.89 58.7528C212.154 58.7528 211.579 59.1158 211.165 59.8416C210.75 60.5642 210.543 61.5866 210.543 62.9091C210.543 63.7907 210.636 64.5398 210.821 65.1562C211.007 65.7727 211.274 66.2417 211.622 66.5632C211.973 66.8847 212.396 67.0455 212.89 67.0455Z" fill="black"/>
</svg>
