<svg width="378" height="94" viewBox="0 0 378 94" fill="none" xmlns="http://www.w3.org/2000/svg">
<rect x="48" y="53.5699" width="40" height="20.2151" fill="#3E8952" stroke="#282828"/>
<rect x="8" y="53.5699" width="40" height="20.2151" fill="#2C5E39" stroke="#282828"/>
<rect x="88" y="53.5699" width="40" height="20.2151" fill="#4DAD67" stroke="#282828"/>
<rect x="128" y="53.5699" width="40" height="20.2151" fill="#70BF85" stroke="#282828"/>
<rect x="168" y="53.5699" width="40" height="20.2151" fill="#D3D3D3" stroke="#282828"/>
<rect x="208" y="53.5699" width="40" height="20.2151" fill="#536ECE" stroke="#282828"/>
<rect x="248" y="53.5699" width="40" height="20.2151" fill="#294AC1" stroke="#282828"/>
<rect x="288" y="53.5699" width="40" height="20.2151" fill="#2540A2" stroke="#282828"/>
<rect x="328" y="53.5699" width="40" height="20.2151" fill="#152A77" stroke="#282828"/>
<path d="M24.22 5.62V4.02H17.64V5.62H24.22ZM24.22 8.32V6.7H17.64V8.32H24.22ZM25.7 2.9V9.46H16.2V2.9H25.7ZM13.06 2.34L14.48 2.88C13.3 4.58 11.36 6.44 9.6 7.62C9.44 7.28 9.08 6.72 8.82 6.42C10.4 5.4 12.18 3.74 13.06 2.34ZM13.42 6.7L14.72 7.22C14.26 8.04 13.68 8.88 13.08 9.68V20.52H11.62V11.36C10.86 12.18 10.06 12.92 9.28 13.52C9.16 13.22 8.76 12.46 8.5 12.1C10.3 10.78 12.24 8.76 13.42 6.7ZM16.24 16.08L17.3 15.4C18.22 16.22 19.32 17.4 19.84 18.18L18.7 18.98C18.22 18.18 17.16 16.96 16.24 16.08ZM27 13.78V15.06H24.02V18.9C24.02 19.7 23.84 20.08 23.26 20.32C22.66 20.54 21.72 20.56 20.22 20.56C20.16 20.14 19.94 19.6 19.74 19.2C20.86 19.24 21.86 19.24 22.14 19.22C22.46 19.2 22.54 19.12 22.54 18.86V15.06H14.52V13.78H22.54V12.08H14.98V10.8H26.64V12.08H24.02V13.78H27ZM39.48 5.84V4.3H36.34V5.84H39.48ZM44.1 6.96H40.9V9.26H44.1V6.96ZM36.34 6.96V9.26H39.48V6.96H36.34ZM31.92 6.96V9.26H34.96V6.96H31.92ZM34.96 5.84V4.3H29.34V3.06H46.54V4.3H40.9V5.84H45.56V10.4H30.54V5.84H34.96ZM44.5 12.9H31.56V11.72H44.5V12.9ZM33.46 16L34.82 16.48C33.64 17.94 31.74 19.34 30.08 20.22C29.84 19.96 29.28 19.46 28.96 19.24C30.64 18.48 32.42 17.28 33.46 16ZM40.9 16.84L41.96 16.06C43.58 16.92 45.7 18.26 46.8 19.18L45.66 20.04C44.64 19.14 42.54 17.78 40.9 16.84ZM29.12 14.28H46.92V15.5H38.76V18.96C38.76 19.74 38.6 20.1 38 20.32C37.42 20.54 36.48 20.56 35.04 20.56C34.98 20.14 34.76 19.6 34.56 19.22C35.68 19.26 36.62 19.26 36.92 19.24C37.22 19.22 37.28 19.14 37.28 18.92V15.5H29.12V14.28ZM66.9 13.22L65.8 14.16C64.84 13.32 62.86 12.12 61.3 11.32L62.34 10.48C63.86 11.22 65.86 12.4 66.9 13.22ZM64.76 6.42L66.06 7.1C65.04 8.02 63.76 8.94 62.74 9.58L61.68 8.94C62.66 8.28 64 7.2 64.76 6.42ZM54.68 7.6L55.24 7.96C55.76 7.3 56.3 6.5 56.68 5.86H49.74V4.52H57.2V2.28H58.68V4.52H66.32V5.86H57.62L58.14 6.06C57.52 6.92 56.78 7.84 56.14 8.54C56.7 8.94 57.24 9.34 57.66 9.7C58.46 8.78 59.2 7.86 59.76 7.06L60.94 7.62C59.76 9.1 58.2 10.84 56.76 12.22L60.2 12.04C59.82 11.5 59.42 10.98 59.02 10.52L60.1 10.04C61.08 11.14 62.18 12.62 62.62 13.64L61.48 14.24C61.34 13.92 61.14 13.52 60.9 13.12C58.36 13.3 55.82 13.46 53.9 13.6L53.7 12.34C54.14 12.32 54.66 12.3 55.2 12.28C55.72 11.78 56.28 11.22 56.84 10.62C56.06 9.94 54.9 9.1 53.94 8.48L54.68 7.6ZM53.94 8.84L52.9 9.74C52.24 9.1 50.88 8.16 49.76 7.52L50.76 6.7C51.86 7.28 53.26 8.2 53.94 8.84ZM54.08 10.7L54.36 11.82C52.78 12.56 51.14 13.36 49.8 13.94L49.06 12.74C50.34 12.28 52.22 11.48 54.08 10.7ZM58.68 13.6V15.14H66.88V16.52H58.68V20.58H57.2V16.52H49.14V15.14H57.2V13.6H58.68ZM75.7557 11.7273C75.7557 9.9375 75.9877 8.29214 76.4517 6.79119C76.9205 5.28551 77.5881 3.90057 78.4545 2.63636H79.9318C79.5909 3.10511 79.2713 3.68277 78.973 4.36932C78.6795 5.05114 78.4214 5.80161 78.1989 6.62074C77.9763 7.43513 77.8011 8.27794 77.6733 9.14915C77.5502 10.0204 77.4886 10.8797 77.4886 11.7273C77.4886 12.8542 77.5975 13.9976 77.8153 15.1577C78.0331 16.3177 78.3267 17.3949 78.696 18.3892C79.0653 19.3835 79.4773 20.1932 79.9318 20.8182H78.4545C77.5881 19.554 76.9205 18.1714 76.4517 16.6705C75.9877 15.1648 75.7557 13.517 75.7557 11.7273ZM89.7915 16.2727V15.5057C89.7915 14.9754 89.9005 14.4901 90.1183 14.0497C90.3408 13.6046 90.6628 13.2495 91.0842 12.9844C91.5103 12.7145 92.0264 12.5795 92.6325 12.5795C93.248 12.5795 93.7641 12.7145 94.1808 12.9844C94.5974 13.2495 94.9123 13.6046 95.1254 14.0497C95.3384 14.4901 95.445 14.9754 95.445 15.5057V16.2727C95.445 16.803 95.3361 17.2907 95.1183 17.7358C94.9052 18.1761 94.588 18.5312 94.1665 18.8011C93.7499 19.0663 93.2385 19.1989 92.6325 19.1989C92.0169 19.1989 91.4985 19.0663 91.0771 18.8011C90.6557 18.5312 90.3361 18.1761 90.1183 17.7358C89.9005 17.2907 89.7915 16.803 89.7915 16.2727ZM91.2404 15.5057V16.2727C91.2404 16.7131 91.3446 17.1084 91.5529 17.4588C91.7612 17.8045 92.1211 17.9773 92.6325 17.9773C93.1296 17.9773 93.48 17.8045 93.6836 17.4588C93.8919 17.1084 93.9961 16.7131 93.9961 16.2727V15.5057C93.9961 15.0653 93.8967 14.6723 93.6978 14.3267C93.4989 13.9763 93.1438 13.8011 92.6325 13.8011C92.1353 13.8011 91.7778 13.9763 91.56 14.3267C91.3469 14.6723 91.2404 15.0653 91.2404 15.5057ZM82.5472 7.94886V7.18182C82.5472 6.65152 82.6561 6.16619 82.8739 5.72585C83.0965 5.28078 83.4184 4.92566 83.8398 4.66051C84.266 4.39062 84.7821 4.25568 85.3881 4.25568C86.0037 4.25568 86.5198 4.39062 86.9364 4.66051C87.3531 4.92566 87.668 5.28078 87.881 5.72585C88.0941 6.16619 88.2006 6.65152 88.2006 7.18182V7.94886C88.2006 8.47917 88.0917 8.96686 87.8739 9.41193C87.6609 9.85227 87.3436 10.2074 86.9222 10.4773C86.5056 10.7424 85.9942 10.875 85.3881 10.875C84.7726 10.875 84.2541 10.7424 83.8327 10.4773C83.4113 10.2074 83.0917 9.85227 82.8739 9.41193C82.6561 8.96686 82.5472 8.47917 82.5472 7.94886ZM83.9961 7.18182V7.94886C83.9961 8.3892 84.1003 8.78456 84.3086 9.13494C84.5169 9.48059 84.8768 9.65341 85.3881 9.65341C85.8853 9.65341 86.2357 9.48059 86.4393 9.13494C86.6476 8.78456 86.7518 8.3892 86.7518 7.94886V7.18182C86.7518 6.74148 86.6523 6.34848 86.4535 6.00284C86.2546 5.65246 85.8995 5.47727 85.3881 5.47727C84.891 5.47727 84.5335 5.65246 84.3157 6.00284C84.1026 6.34848 83.9961 6.74148 83.9961 7.18182ZM83.087 19L93.087 4.45455H94.7063L84.7063 19H83.087ZM102.235 11.7273C102.235 13.517 102 15.1648 101.532 16.6705C101.068 18.1714 100.402 19.554 99.5359 20.8182H98.0586C98.3995 20.3494 98.7167 19.7718 99.0103 19.0852C99.3086 18.4034 99.569 17.6553 99.7915 16.8409C100.014 16.0218 100.187 15.1766 100.31 14.3054C100.438 13.4295 100.502 12.5701 100.502 11.7273C100.502 10.6004 100.393 9.45691 100.175 8.29688C99.9573 7.13684 99.6637 6.05966 99.2944 5.06534C98.9251 4.07102 98.5131 3.26136 98.0586 2.63636H99.5359C100.402 3.90057 101.068 5.28551 101.532 6.79119C102 8.29214 102.235 9.9375 102.235 11.7273Z" fill="#282828"/>
<path d="M11.776 39.6906H16.304C16.16 39.0026 16.064 38.2666 16.016 37.5306H11.776V39.6906ZM20.672 33.8666H11.776V36.4106H20.672V33.8666ZM23.04 40.8106H17.808C18.624 43.5306 20.112 45.3866 21.584 45.3706C22.064 45.3546 22.24 44.6986 22.32 43.0026C22.608 43.2426 23.04 43.4666 23.376 43.5626C23.184 45.9146 22.688 46.5226 21.52 46.5226C19.328 46.5386 17.472 44.1386 16.56 40.8106H11.776V44.7306C13.328 44.5226 15.104 44.2666 16.8 44.0266L16.848 45.1786C14.112 45.5946 11.2 46.0266 9.184 46.3306L8.912 45.0986L10.576 44.8906V32.7786H21.872V37.5306H17.216C17.264 38.2826 17.376 39.0026 17.52 39.6906H23.04V40.8106ZM34.032 37.1146V35.4506H31.248V37.1146H34.032ZM34.032 39.8026V38.1226H31.248V39.8026H34.032ZM34.032 42.5226V40.7946H31.248V42.5226H34.032ZM30.096 43.5626V36.5706C29.648 37.0986 29.168 37.5946 28.688 38.0106C28.496 37.7706 28.048 37.3226 27.776 37.0986C29.328 35.8986 30.704 33.9946 31.504 31.9786L32.672 32.2986C32.368 33.0346 32.016 33.7546 31.6 34.4266H34.144C34.496 33.6906 34.832 32.7786 35.04 32.0906L36.304 32.3626C36 33.0346 35.664 33.7866 35.328 34.4266H38.72V35.4506H35.168V37.1146H38.32V38.1226H35.168V39.8026H38.288V40.7946H35.168V42.5226H38.992V43.5626H30.096ZM28.432 34.9386L27.472 35.6746C26.992 34.8746 25.92 33.7706 24.944 33.0026L25.856 32.3306C26.832 33.0666 27.936 34.1546 28.432 34.9386ZM27.952 38.2026V43.3386C28.704 44.5226 30.112 45.0666 31.984 45.1306C33.744 45.2106 37.424 45.1626 39.344 45.0346C39.2 45.3066 39.008 45.8506 38.96 46.2026C37.168 46.2826 33.792 46.3146 32 46.2346C29.904 46.1546 28.464 45.5946 27.472 44.3466C26.768 45.0346 26.032 45.7066 25.248 46.3946L24.624 45.2586C25.296 44.7626 26.112 44.0906 26.832 43.4186V39.3226H24.8V38.2026H27.952ZM42.432 34.2026V35.8666H41.328V33.3866H44.192C43.984 33.0346 43.712 32.6346 43.456 32.2986L44.528 32.0426C44.88 32.4426 45.264 32.9706 45.472 33.3866H47.376V31.9306H48.56V33.3866H50.544C50.88 32.9546 51.28 32.4106 51.52 32.0266L52.736 32.2826C52.448 32.6826 52.128 33.0666 51.824 33.3866H54.656V35.8666H53.504V34.2026H42.432ZM44.96 35.5626V36.3946H50.96V35.5626H44.96ZM52.096 37.0186H43.872V34.9226H52.096V37.0186ZM50.112 40.0586L49.52 39.7546C49.824 39.3866 50.224 38.8266 50.432 38.4906L51.232 38.8426C50.848 39.3066 50.448 39.7386 50.112 40.0586ZM45.552 40.0906H47.376V38.3786H43.68V40.0906H45.504C45.328 39.7546 44.992 39.2746 44.656 38.9066L45.344 38.5386C45.696 38.8586 46.08 39.3386 46.24 39.6586L45.552 40.0906ZM52.368 40.0906V38.3786H48.512V40.0906H52.368ZM55.008 43.0826V43.8666H41.008V43.0826H47.376V42.2666H42.16V41.5146H47.376V40.7786H42.576V37.7066H53.52V40.7786H48.512V41.5146H54.032V42.2666H48.512V43.0826H55.008ZM42.064 46.5546L41.04 46.0906C41.808 45.6746 42.576 44.9546 43.024 44.1866L44.096 44.5226C43.632 45.2906 42.88 46.1066 42.064 46.5546ZM45.568 44.5866L46.624 44.5226C46.8 45.0986 46.944 45.8666 46.992 46.3306L45.872 46.4426C45.84 45.9786 45.712 45.1946 45.568 44.5866ZM48.816 44.6026L49.92 44.4426C50.208 44.9866 50.528 45.7386 50.64 46.2026L49.488 46.4106C49.392 45.9306 49.104 45.1786 48.816 44.6026ZM51.92 44.5706L53.024 44.2186C53.728 44.7946 54.592 45.6106 55.024 46.2026L53.872 46.5706C53.472 46.0266 52.624 45.1626 51.92 44.5706Z" fill="#282828"/>
<path d="M84.6915 91.9887C84.2739 91.9821 83.8563 91.9025 83.4387 91.7501C83.021 91.5976 82.6399 91.3407 82.2952 90.9795C81.9505 90.6149 81.6737 90.1227 81.4649 89.5029C81.2561 88.8798 81.1517 88.0976 81.1517 87.1563C81.1517 86.2548 81.2362 85.456 81.4053 84.76C81.5743 84.0607 81.8196 83.4724 82.1411 82.9951C82.4626 82.5145 82.8503 82.1499 83.3044 81.9013C83.7618 81.6528 84.2772 81.5285 84.8506 81.5285C85.4207 81.5285 85.9278 81.6428 86.3719 81.8715C86.8193 82.0969 87.1839 82.4118 87.4656 82.8161C87.7474 83.2205 87.9297 83.6861 88.0125 84.2131H86.7994C86.6868 83.7557 86.468 83.3762 86.1432 83.0746C85.8184 82.773 85.3875 82.6222 84.8506 82.6222C84.0618 82.6222 83.4403 82.9653 82.9862 83.6513C82.5355 84.3374 82.3084 85.3002 82.3051 86.5398H82.3847C82.5703 86.2581 82.7907 86.0178 83.0459 85.8189C83.3044 85.6168 83.5895 85.461 83.901 85.3516C84.2126 85.2422 84.5423 85.1876 84.8904 85.1876C85.4737 85.1876 86.0073 85.3334 86.4912 85.6251C86.9751 85.9134 87.3629 86.3128 87.6546 86.8232C87.9462 87.3303 88.0921 87.912 88.0921 88.5682C88.0921 89.198 87.9512 89.7747 87.6695 90.2984C87.3878 90.8187 86.9917 91.233 86.4813 91.5412C85.9742 91.8462 85.3776 91.9953 84.6915 91.9887ZM84.6915 90.8949C85.1091 90.8949 85.4836 90.7905 85.8151 90.5817C86.1498 90.3729 86.4133 90.0929 86.6056 89.7415C86.8011 89.3902 86.8989 88.9991 86.8989 88.5682C86.8989 88.1473 86.8044 87.7645 86.6155 87.4198C86.4299 87.0718 86.173 86.795 85.8449 86.5895C85.5201 86.3841 85.1489 86.2813 84.7313 86.2813C84.4164 86.2813 84.1231 86.3443 83.8513 86.4702C83.5795 86.5929 83.3409 86.7619 83.1354 86.9773C82.9332 87.1928 82.7741 87.4397 82.6581 87.7181C82.5421 87.9932 82.4841 88.2832 82.4841 88.5881C82.4841 88.9925 82.5786 89.3703 82.7675 89.7216C82.9597 90.073 83.2216 90.3564 83.553 90.5718C83.8878 90.7872 84.2673 90.8949 84.6915 90.8949ZM93.3682 91.9887C92.6191 91.9887 91.9811 91.7849 91.4541 91.3772C90.9271 90.9662 90.5244 90.3713 90.246 89.5924C89.9676 88.8102 89.8284 87.8656 89.8284 86.7586C89.8284 85.6582 89.9676 84.7186 90.246 83.9397C90.5277 83.1575 90.9321 82.5609 91.4591 82.1499C91.9894 81.7356 92.6257 81.5285 93.3682 81.5285C94.1106 81.5285 94.7453 81.7356 95.2723 82.1499C95.8026 82.5609 96.2069 83.1575 96.4854 83.9397C96.7671 84.7186 96.9079 85.6582 96.9079 86.7586C96.9079 87.8656 96.7687 88.8102 96.4903 89.5924C96.2119 90.3713 95.8092 90.9662 95.2822 91.3772C94.7552 91.7849 94.1172 91.9887 93.3682 91.9887ZM93.3682 90.8949C94.1106 90.8949 94.6873 90.537 95.0983 89.8211C95.5093 89.1052 95.7148 88.0843 95.7148 86.7586C95.7148 85.8769 95.6203 85.1262 95.4314 84.5064C95.2458 83.8867 94.9773 83.4144 94.626 83.0895C94.278 82.7647 93.8587 82.6023 93.3682 82.6023C92.6324 82.6023 92.0573 82.9653 91.643 83.6911C91.2287 84.4136 91.0216 85.4361 91.0216 86.7586C91.0216 87.6402 91.1144 88.3893 91.3 89.0057C91.4856 89.6222 91.7524 90.0912 92.1004 90.4127C92.4517 90.7342 92.8743 90.8949 93.3682 90.8949Z" fill="#282828"/>
<path d="M284.691 91.9887C284.274 91.9821 283.856 91.9025 283.439 91.7501C283.021 91.5976 282.64 91.3407 282.295 90.9795C281.95 90.6149 281.674 90.1227 281.465 89.5029C281.256 88.8798 281.152 88.0976 281.152 87.1563C281.152 86.2548 281.236 85.456 281.405 84.76C281.574 84.0607 281.82 83.4724 282.141 82.9951C282.463 82.5145 282.85 82.1499 283.304 81.9013C283.762 81.6528 284.277 81.5285 284.851 81.5285C285.421 81.5285 285.928 81.6428 286.372 81.8715C286.819 82.0969 287.184 82.4118 287.466 82.8161C287.747 83.2205 287.93 83.6861 288.013 84.2131H286.799C286.687 83.7557 286.468 83.3762 286.143 83.0746C285.818 82.773 285.388 82.6222 284.851 82.6222C284.062 82.6222 283.44 82.9653 282.986 83.6513C282.535 84.3374 282.308 85.3002 282.305 86.5398H282.385C282.57 86.2581 282.791 86.0178 283.046 85.8189C283.304 85.6168 283.589 85.461 283.901 85.3516C284.213 85.2422 284.542 85.1876 284.89 85.1876C285.474 85.1876 286.007 85.3334 286.491 85.6251C286.975 85.9134 287.363 86.3128 287.655 86.8232C287.946 87.3303 288.092 87.912 288.092 88.5682C288.092 89.198 287.951 89.7747 287.669 90.2984C287.388 90.8187 286.992 91.233 286.481 91.5412C285.974 91.8462 285.378 91.9953 284.691 91.9887ZM284.691 90.8949C285.109 90.8949 285.484 90.7905 285.815 90.5817C286.15 90.3729 286.413 90.0929 286.606 89.7415C286.801 89.3902 286.899 88.9991 286.899 88.5682C286.899 88.1473 286.804 87.7645 286.616 87.4198C286.43 87.0718 286.173 86.795 285.845 86.5895C285.52 86.3841 285.149 86.2813 284.731 86.2813C284.416 86.2813 284.123 86.3443 283.851 86.4702C283.58 86.5929 283.341 86.7619 283.135 86.9773C282.933 87.1928 282.774 87.4397 282.658 87.7181C282.542 87.9932 282.484 88.2832 282.484 88.5881C282.484 88.9925 282.579 89.3703 282.767 89.7216C282.96 90.073 283.222 90.3564 283.553 90.5718C283.888 90.7872 284.267 90.8949 284.691 90.8949ZM293.368 91.9887C292.619 91.9887 291.981 91.7849 291.454 91.3772C290.927 90.9662 290.524 90.3713 290.246 89.5924C289.968 88.8102 289.828 87.8656 289.828 86.7586C289.828 85.6582 289.968 84.7186 290.246 83.9397C290.528 83.1575 290.932 82.5609 291.459 82.1499C291.989 81.7356 292.626 81.5285 293.368 81.5285C294.111 81.5285 294.745 81.7356 295.272 82.1499C295.803 82.5609 296.207 83.1575 296.485 83.9397C296.767 84.7186 296.908 85.6582 296.908 86.7586C296.908 87.8656 296.769 88.8102 296.49 89.5924C296.212 90.3713 295.809 90.9662 295.282 91.3772C294.755 91.7849 294.117 91.9887 293.368 91.9887ZM293.368 90.8949C294.111 90.8949 294.687 90.537 295.098 89.8211C295.509 89.1052 295.715 88.0843 295.715 86.7586C295.715 85.8769 295.62 85.1262 295.431 84.5064C295.246 83.8867 294.977 83.4144 294.626 83.0895C294.278 82.7647 293.859 82.6023 293.368 82.6023C292.632 82.6023 292.057 82.9653 291.643 83.6911C291.229 84.4136 291.022 85.4361 291.022 86.7586C291.022 87.6402 291.114 88.3893 291.3 89.0057C291.486 89.6222 291.752 90.0912 292.1 90.4127C292.452 90.7342 292.874 90.8949 293.368 90.8949Z" fill="#282828"/>
<path d="M44.8077 91.9887C44.3901 91.9821 43.9725 91.9025 43.5549 91.7501C43.1373 91.5976 42.7561 91.3407 42.4114 90.9795C42.0667 90.6149 41.79 90.1227 41.5811 89.5029C41.3723 88.8798 41.2679 88.0976 41.2679 87.1563C41.2679 86.2548 41.3525 85.456 41.5215 84.76C41.6905 84.0607 41.9358 83.4724 42.2573 82.9951C42.5788 82.5145 42.9666 82.1499 43.4206 81.9013C43.878 81.6528 44.3934 81.5285 44.9668 81.5285C45.5369 81.5285 46.044 81.6428 46.4881 81.8715C46.9355 82.0969 47.3001 82.4118 47.5819 82.8161C47.8636 83.2205 48.0459 83.6861 48.1287 84.2131H46.9157C46.803 83.7557 46.5842 83.3762 46.2594 83.0746C45.9346 82.773 45.5037 82.6222 44.9668 82.6222C44.178 82.6222 43.5565 82.9653 43.1025 83.6513C42.6517 84.3374 42.4247 85.3002 42.4213 86.5398H42.5009C42.6865 86.2581 42.9069 86.0178 43.1621 85.8189C43.4206 85.6168 43.7057 85.461 44.0172 85.3516C44.3288 85.2422 44.6586 85.1876 45.0066 85.1876C45.5899 85.1876 46.1235 85.3334 46.6074 85.6251C47.0913 85.9134 47.4791 86.3128 47.7708 86.8232C48.0624 87.3303 48.2083 87.912 48.2083 88.5682C48.2083 89.198 48.0674 89.7747 47.7857 90.2984C47.504 90.8187 47.1079 91.233 46.5975 91.5412C46.0904 91.8462 45.4938 91.9953 44.8077 91.9887ZM44.8077 90.8949C45.2253 90.8949 45.5998 90.7905 45.9313 90.5817C46.266 90.3729 46.5295 90.0929 46.7218 89.7415C46.9173 89.3902 47.0151 88.9991 47.0151 88.5682C47.0151 88.1473 46.9206 87.7645 46.7317 87.4198C46.5461 87.0718 46.2892 86.795 45.9611 86.5895C45.6363 86.3841 45.2651 86.2813 44.8475 86.2813C44.5326 86.2813 44.2393 86.3443 43.9675 86.4702C43.6957 86.5929 43.4571 86.7619 43.2516 86.9773C43.0494 87.1928 42.8903 87.4397 42.7743 87.7181C42.6583 87.9932 42.6003 88.2832 42.6003 88.5881C42.6003 88.9925 42.6948 89.3703 42.8837 89.7216C43.0759 90.073 43.3378 90.3564 43.6692 90.5718C44.004 90.7872 44.3835 90.8949 44.8077 90.8949ZM53.3452 91.9887C52.7618 91.9887 52.2365 91.8727 51.7692 91.6407C51.3018 91.4087 50.9273 91.0905 50.6456 90.6861C50.3639 90.2818 50.2098 89.8211 50.1832 89.304H51.3764C51.4228 89.7647 51.6316 90.1459 52.0028 90.4475C52.3774 90.7458 52.8248 90.8949 53.3452 90.8949C53.7628 90.8949 54.134 90.7972 54.4588 90.6016C54.7869 90.4061 55.0438 90.1376 55.2294 89.7962C55.4183 89.4515 55.5128 89.0621 55.5128 88.6279C55.5128 88.1838 55.415 87.7877 55.2195 87.4397C55.0272 87.0884 54.7621 86.8116 54.424 86.6094C54.0859 86.4073 53.6998 86.3045 53.2656 86.3012C52.9541 86.2979 52.6342 86.3459 52.3061 86.4454C51.978 86.5415 51.7079 86.6658 51.4957 86.8182L50.3423 86.679L50.9588 81.6677H56.2486V82.7614H51.9929L51.6349 85.7643H51.6946C51.9034 85.5985 52.1652 85.461 52.4801 85.3516C52.795 85.2422 53.1231 85.1876 53.4645 85.1876C54.0876 85.1876 54.6428 85.3367 55.13 85.635C55.6205 85.93 56.005 86.3343 56.2834 86.8481C56.5651 87.3618 56.706 87.9484 56.706 88.608C56.706 89.2576 56.5601 89.8377 56.2685 90.3481C55.9801 90.8552 55.5824 91.2562 55.0753 91.5512C54.5682 91.8429 53.9915 91.9887 53.3452 91.9887Z" fill="#282828"/>
<path d="M2.10751 91.8495L6.66149 82.841V82.7614H1.41149V81.6677H7.93422V82.8211L3.40012 91.8495H2.10751ZM12.8896 91.9887C12.1406 91.9887 11.5026 91.7849 10.9756 91.3772C10.4486 90.9662 10.0459 90.3713 9.76749 89.5924C9.48908 88.8102 9.34988 87.8656 9.34988 86.7586C9.34988 85.6582 9.48908 84.7186 9.76749 83.9397C10.0492 83.1575 10.4536 82.5609 10.9806 82.1499C11.5109 81.7356 12.1472 81.5285 12.8896 81.5285C13.6321 81.5285 14.2668 81.7356 14.7938 82.1499C15.3241 82.5609 15.7284 83.1575 16.0068 83.9397C16.2886 84.7186 16.4294 85.6582 16.4294 86.7586C16.4294 87.8656 16.2902 88.8102 16.0118 89.5924C15.7334 90.3713 15.3307 90.9662 14.8037 91.3772C14.2767 91.7849 13.6387 91.9887 12.8896 91.9887ZM12.8896 90.8949C13.6321 90.8949 14.2088 90.537 14.6198 89.8211C15.0307 89.1052 15.2362 88.0843 15.2362 86.7586C15.2362 85.8769 15.1418 85.1262 14.9529 84.5064C14.7673 83.8867 14.4988 83.4144 14.1475 83.0895C13.7994 82.7647 13.3802 82.6023 12.8896 82.6023C12.1539 82.6023 11.5788 82.9653 11.1645 83.6911C10.7502 84.4136 10.5431 85.4361 10.5431 86.7586C10.5431 87.6402 10.6359 88.3893 10.8215 89.0057C11.0071 89.6222 11.2739 90.0912 11.6219 90.4127C11.9732 90.7342 12.3958 90.8949 12.8896 90.8949Z" fill="#282828"/>
<path d="M324.808 91.9887C324.39 91.9821 323.972 91.9025 323.555 91.7501C323.137 91.5976 322.756 91.3407 322.411 90.9795C322.067 90.6149 321.79 90.1227 321.581 89.5029C321.372 88.8798 321.268 88.0976 321.268 87.1563C321.268 86.2548 321.352 85.456 321.521 84.76C321.691 84.0607 321.936 83.4724 322.257 82.9951C322.579 82.5145 322.967 82.1499 323.421 81.9013C323.878 81.6528 324.393 81.5285 324.967 81.5285C325.537 81.5285 326.044 81.6428 326.488 81.8715C326.936 82.0969 327.3 82.4118 327.582 82.8161C327.864 83.2205 328.046 83.6861 328.129 84.2131H326.916C326.803 83.7557 326.584 83.3762 326.259 83.0746C325.935 82.773 325.504 82.6222 324.967 82.6222C324.178 82.6222 323.557 82.9653 323.102 83.6513C322.652 84.3374 322.425 85.3002 322.421 86.5398H322.501C322.686 86.2581 322.907 86.0178 323.162 85.8189C323.421 85.6168 323.706 85.461 324.017 85.3516C324.329 85.2422 324.659 85.1876 325.007 85.1876C325.59 85.1876 326.124 85.3334 326.607 85.6251C327.091 85.9134 327.479 86.3128 327.771 86.8232C328.062 87.3303 328.208 87.912 328.208 88.5682C328.208 89.198 328.067 89.7747 327.786 90.2984C327.504 90.8187 327.108 91.233 326.597 91.5412C326.09 91.8462 325.494 91.9953 324.808 91.9887ZM324.808 90.8949C325.225 90.8949 325.6 90.7905 325.931 90.5817C326.266 90.3729 326.53 90.0929 326.722 89.7415C326.917 89.3902 327.015 88.9991 327.015 88.5682C327.015 88.1473 326.921 87.7645 326.732 87.4198C326.546 87.0718 326.289 86.795 325.961 86.5895C325.636 86.3841 325.265 86.2813 324.847 86.2813C324.533 86.2813 324.239 86.3443 323.968 86.4702C323.696 86.5929 323.457 86.7619 323.252 86.9773C323.049 87.1928 322.89 87.4397 322.774 87.7181C322.658 87.9932 322.6 88.2832 322.6 88.5881C322.6 88.9925 322.695 89.3703 322.884 89.7216C323.076 90.073 323.338 90.3564 323.669 90.5718C324.004 90.7872 324.383 90.8949 324.808 90.8949ZM333.345 91.9887C332.762 91.9887 332.237 91.8727 331.769 91.6407C331.302 91.4087 330.927 91.0905 330.646 90.6861C330.364 90.2818 330.21 89.8211 330.183 89.304H331.376C331.423 89.7647 331.632 90.1459 332.003 90.4475C332.377 90.7458 332.825 90.8949 333.345 90.8949C333.763 90.8949 334.134 90.7972 334.459 90.6016C334.787 90.4061 335.044 90.1376 335.229 89.7962C335.418 89.4515 335.513 89.0621 335.513 88.6279C335.513 88.1838 335.415 87.7877 335.219 87.4397C335.027 87.0884 334.762 86.8116 334.424 86.6094C334.086 86.4073 333.7 86.3045 333.266 86.3012C332.954 86.2979 332.634 86.3459 332.306 86.4454C331.978 86.5415 331.708 86.6658 331.496 86.8182L330.342 86.679L330.959 81.6677H336.249V82.7614H331.993L331.635 85.7643H331.695C331.903 85.5985 332.165 85.461 332.48 85.3516C332.795 85.2422 333.123 85.1876 333.464 85.1876C334.088 85.1876 334.643 85.3367 335.13 85.635C335.621 85.93 336.005 86.3343 336.283 86.8481C336.565 87.3618 336.706 87.9484 336.706 88.608C336.706 89.2576 336.56 89.8377 336.268 90.3481C335.98 90.8552 335.582 91.2562 335.075 91.5512C334.568 91.8429 333.991 91.9887 333.345 91.9887Z" fill="#282828"/>
<path d="M362.108 91.8495L366.661 82.841V82.7614H361.411V81.6677H367.934V82.8211L363.4 91.8495H362.108ZM372.89 91.9887C372.141 91.9887 371.503 91.7849 370.976 91.3772C370.449 90.9662 370.046 90.3713 369.767 89.5924C369.489 88.8102 369.35 87.8656 369.35 86.7586C369.35 85.6582 369.489 84.7186 369.767 83.9397C370.049 83.1575 370.454 82.5609 370.981 82.1499C371.511 81.7356 372.147 81.5285 372.89 81.5285C373.632 81.5285 374.267 81.7356 374.794 82.1499C375.324 82.5609 375.728 83.1575 376.007 83.9397C376.289 84.7186 376.429 85.6582 376.429 86.7586C376.429 87.8656 376.29 88.8102 376.012 89.5924C375.733 90.3713 375.331 90.9662 374.804 91.3772C374.277 91.7849 373.639 91.9887 372.89 91.9887ZM372.89 90.8949C373.632 90.8949 374.209 90.537 374.62 89.8211C375.031 89.1052 375.236 88.0843 375.236 86.7586C375.236 85.8769 375.142 85.1262 374.953 84.5064C374.767 83.8867 374.499 83.4144 374.147 83.0895C373.799 82.7647 373.38 82.6023 372.89 82.6023C372.154 82.6023 371.579 82.9653 371.165 83.6911C370.75 84.4136 370.543 85.4361 370.543 86.7586C370.543 87.6402 370.636 88.3893 370.821 89.0057C371.007 89.6222 371.274 90.0912 371.622 90.4127C371.973 90.7342 372.396 90.8949 372.89 90.8949Z" fill="#282828"/>
<path d="M124.718 91.9887C124.135 91.9887 123.61 91.8727 123.142 91.6407C122.675 91.4087 122.3 91.0905 122.019 90.6861C121.737 90.2818 121.583 89.8211 121.556 89.304H122.749C122.796 89.7647 123.005 90.1459 123.376 90.4475C123.75 90.7458 124.198 90.8949 124.718 90.8949C125.136 90.8949 125.507 90.7972 125.832 90.6016C126.16 90.4061 126.417 90.1376 126.602 89.7962C126.791 89.4515 126.886 89.0621 126.886 88.6279C126.886 88.1838 126.788 87.7877 126.593 87.4397C126.4 87.0884 126.135 86.8116 125.797 86.6094C125.459 86.4073 125.073 86.3045 124.639 86.3012C124.327 86.2979 124.007 86.3459 123.679 86.4454C123.351 86.5415 123.081 86.6658 122.869 86.8182L121.715 86.679L122.332 81.6677H127.622V82.7614H123.366L123.008 85.7643H123.068C123.276 85.5985 123.538 85.461 123.853 85.3516C124.168 85.2422 124.496 85.1876 124.838 85.1876C125.461 85.1876 126.016 85.3367 126.503 85.635C126.994 85.93 127.378 86.3343 127.656 86.8481C127.938 87.3618 128.079 87.9484 128.079 88.608C128.079 89.2576 127.933 89.8377 127.642 90.3481C127.353 90.8552 126.955 91.2562 126.448 91.5512C125.941 91.8429 125.365 91.9887 124.718 91.9887ZM133.236 91.9887C132.652 91.9887 132.127 91.8727 131.66 91.6407C131.192 91.4087 130.818 91.0905 130.536 90.6861C130.254 90.2818 130.1 89.8211 130.074 89.304H131.267C131.313 89.7647 131.522 90.1459 131.893 90.4475C132.268 90.7458 132.715 90.8949 133.236 90.8949C133.653 90.8949 134.025 90.7972 134.349 90.6016C134.678 90.4061 134.934 90.1376 135.12 89.7962C135.309 89.4515 135.403 89.0621 135.403 88.6279C135.403 88.1838 135.306 87.7877 135.11 87.4397C134.918 87.0884 134.653 86.8116 134.315 86.6094C133.977 86.4073 133.59 86.3045 133.156 86.3012C132.845 86.2979 132.525 86.3459 132.197 86.4454C131.869 86.5415 131.598 86.6658 131.386 86.8182L130.233 86.679L130.849 81.6677H136.139V82.7614H131.884L131.526 85.7643H131.585C131.794 85.5985 132.056 85.461 132.371 85.3516C132.686 85.2422 133.014 85.1876 133.355 85.1876C133.978 85.1876 134.533 85.3367 135.021 85.635C135.511 85.93 135.896 86.3343 136.174 86.8481C136.456 87.3618 136.597 87.9484 136.597 88.608C136.597 89.2576 136.451 89.8377 136.159 90.3481C135.871 90.8552 135.473 91.2562 134.966 91.5512C134.459 91.8429 133.882 91.9887 133.236 91.9887Z" fill="#282828"/>
<path d="M169 91.9887C168.251 91.9887 167.613 91.7849 167.086 91.3772C166.559 90.9662 166.156 90.3713 165.878 89.5924C165.599 88.8102 165.46 87.8656 165.46 86.7586C165.46 85.6582 165.599 84.7186 165.878 83.9397C166.16 83.1575 166.564 82.5609 167.091 82.1499C167.621 81.7356 168.258 81.5285 169 81.5285C169.742 81.5285 170.377 81.7356 170.904 82.1499C171.434 82.5609 171.839 83.1575 172.117 83.9397C172.399 84.7186 172.54 85.6582 172.54 86.7586C172.54 87.8656 172.401 88.8102 172.122 89.5924C171.844 90.3713 171.441 90.9662 170.914 91.3772C170.387 91.7849 169.749 91.9887 169 91.9887ZM169 90.8949C169.742 90.8949 170.319 90.537 170.73 89.8211C171.141 89.1052 171.347 88.0843 171.347 86.7586C171.347 85.8769 171.252 85.1262 171.063 84.5064C170.878 83.8867 170.609 83.4144 170.258 83.0895C169.91 82.7647 169.491 82.6023 169 82.6023C168.264 82.6023 167.689 82.9653 167.275 83.6911C166.861 84.4136 166.653 85.4361 166.653 86.7586C166.653 87.6402 166.746 88.3893 166.932 89.0057C167.117 89.6222 167.384 90.0912 167.732 90.4127C168.084 90.7342 168.506 90.8949 169 90.8949Z" fill="#282828"/>
<path d="M244.718 91.9887C244.135 91.9887 243.61 91.8727 243.142 91.6407C242.675 91.4087 242.3 91.0905 242.019 90.6861C241.737 90.2818 241.583 89.8211 241.556 89.304H242.749C242.796 89.7647 243.005 90.1459 243.376 90.4475C243.75 90.7458 244.198 90.8949 244.718 90.8949C245.136 90.8949 245.507 90.7972 245.832 90.6016C246.16 90.4061 246.417 90.1376 246.602 89.7962C246.791 89.4515 246.886 89.0621 246.886 88.6279C246.886 88.1838 246.788 87.7877 246.593 87.4397C246.4 87.0884 246.135 86.8116 245.797 86.6094C245.459 86.4073 245.073 86.3045 244.639 86.3012C244.327 86.2979 244.007 86.3459 243.679 86.4454C243.351 86.5415 243.081 86.6658 242.869 86.8182L241.715 86.679L242.332 81.6677H247.622V82.7614H243.366L243.008 85.7643H243.068C243.276 85.5985 243.538 85.461 243.853 85.3516C244.168 85.2422 244.496 85.1876 244.838 85.1876C245.461 85.1876 246.016 85.3367 246.503 85.635C246.994 85.93 247.378 86.3343 247.656 86.8481C247.938 87.3618 248.079 87.9484 248.079 88.608C248.079 89.2576 247.933 89.8377 247.642 90.3481C247.353 90.8552 246.955 91.2562 246.448 91.5512C245.941 91.8429 245.365 91.9887 244.718 91.9887ZM253.236 91.9887C252.652 91.9887 252.127 91.8727 251.66 91.6407C251.192 91.4087 250.818 91.0905 250.536 90.6861C250.254 90.2818 250.1 89.8211 250.074 89.304H251.267C251.313 89.7647 251.522 90.1459 251.893 90.4475C252.268 90.7458 252.715 90.8949 253.236 90.8949C253.653 90.8949 254.025 90.7972 254.349 90.6016C254.678 90.4061 254.934 90.1376 255.12 89.7962C255.309 89.4515 255.403 89.0621 255.403 88.6279C255.403 88.1838 255.306 87.7877 255.11 87.4397C254.918 87.0884 254.653 86.8116 254.315 86.6094C253.977 86.4073 253.59 86.3045 253.156 86.3012C252.845 86.2979 252.525 86.3459 252.197 86.4454C251.869 86.5415 251.598 86.6658 251.386 86.8182L250.233 86.679L250.849 81.6677H256.139V82.7614H251.884L251.526 85.7643H251.585C251.794 85.5985 252.056 85.461 252.371 85.3516C252.686 85.2422 253.014 85.1876 253.355 85.1876C253.978 85.1876 254.533 85.3367 255.021 85.635C255.511 85.93 255.896 86.3343 256.174 86.8481C256.456 87.3618 256.597 87.9484 256.597 88.608C256.597 89.2576 256.451 89.8377 256.159 90.3481C255.871 90.8552 255.473 91.2562 254.966 91.5512C254.459 91.8429 253.882 91.9887 253.236 91.9887Z" fill="#282828"/>
<path d="M209 91.9887C208.251 91.9887 207.613 91.7849 207.086 91.3772C206.559 90.9662 206.156 90.3713 205.878 89.5924C205.599 88.8102 205.46 87.8656 205.46 86.7586C205.46 85.6582 205.599 84.7186 205.878 83.9397C206.16 83.1575 206.564 82.5609 207.091 82.1499C207.621 81.7356 208.258 81.5285 209 81.5285C209.742 81.5285 210.377 81.7356 210.904 82.1499C211.434 82.5609 211.839 83.1575 212.117 83.9397C212.399 84.7186 212.54 85.6582 212.54 86.7586C212.54 87.8656 212.401 88.8102 212.122 89.5924C211.844 90.3713 211.441 90.9662 210.914 91.3772C210.387 91.7849 209.749 91.9887 209 91.9887ZM209 90.8949C209.742 90.8949 210.319 90.537 210.73 89.8211C211.141 89.1052 211.347 88.0843 211.347 86.7586C211.347 85.8769 211.252 85.1262 211.063 84.5064C210.878 83.8867 210.609 83.4144 210.258 83.0895C209.91 82.7647 209.491 82.6023 209 82.6023C208.264 82.6023 207.689 82.9653 207.275 83.6911C206.861 84.4136 206.653 85.4361 206.653 86.7586C206.653 87.6402 206.746 88.3893 206.932 89.0057C207.117 89.6222 207.384 90.0912 207.732 90.4127C208.084 90.7342 208.506 90.8949 209 90.8949Z" fill="#282828"/>
<path d="M332.272 35.0506L331.696 35.6746C331.344 35.3226 330.608 34.8266 329.984 34.5546L330.544 33.9626C331.168 34.2506 331.904 34.6826 332.272 35.0506ZM328 41.5146L328.048 42.3466C326.384 42.6666 324.688 43.0026 323.376 43.2426L323.216 42.3466C324.432 42.1546 326.208 41.8346 328 41.5146ZM326.608 40.1066V38.5066H324.768V40.1066H326.608ZM323.936 37.7546H327.472V40.8586H323.936V37.7546ZM331.04 37.4826L332.016 37.6906C331.616 39.1946 331.008 40.5066 330.24 41.6106C330.576 42.4586 331.008 43.0026 331.536 43.0826C331.76 43.1466 331.92 42.4586 332.032 41.4346C332.224 41.6266 332.576 41.8666 332.8 41.9626C332.592 43.7066 332.048 44.3466 331.216 44.0266C330.528 43.8826 329.984 43.3226 329.552 42.4746C328.928 43.1946 328.224 43.8026 327.44 44.3146C327.296 44.1226 326.944 43.7386 326.736 43.5626C327.68 43.0186 328.48 42.3146 329.152 41.4826C328.72 40.2026 328.448 38.5546 328.272 36.7466H323.376V35.8506H328.192C328.144 35.2906 328.096 34.7306 328.064 34.1546H329.088C329.12 34.7306 329.152 35.2906 329.184 35.8506H332.672V36.7466H329.264C329.392 38.1226 329.584 39.4026 329.856 40.4266C330.368 39.5626 330.768 38.5706 331.04 37.4826ZM322.496 44.7786H333.472V33.7546H322.496V44.7786ZM321.36 32.6666H334.64V46.5866H333.472V45.8506H322.496V46.5866H321.36V32.6666ZM339.776 39.6906H344.304C344.16 39.0026 344.064 38.2666 344.016 37.5306H339.776V39.6906ZM348.672 33.8666H339.776V36.4106H348.672V33.8666ZM351.04 40.8106H345.808C346.624 43.5306 348.112 45.3866 349.584 45.3706C350.064 45.3546 350.24 44.6986 350.32 43.0026C350.608 43.2426 351.04 43.4666 351.376 43.5626C351.184 45.9146 350.688 46.5226 349.52 46.5226C347.328 46.5386 345.472 44.1386 344.56 40.8106H339.776V44.7306C341.328 44.5226 343.104 44.2666 344.8 44.0266L344.848 45.1786C342.112 45.5946 339.2 46.0266 337.184 46.3306L336.912 45.0986L338.576 44.8906V32.7786H349.872V37.5306H345.216C345.264 38.2826 345.376 39.0026 345.52 39.6906H351.04V40.8106ZM354.432 34.2026V35.8666H353.328V33.3866H356.192C355.984 33.0346 355.712 32.6346 355.456 32.2986L356.528 32.0426C356.88 32.4426 357.264 32.9706 357.472 33.3866H359.376V31.9306H360.56V33.3866H362.544C362.88 32.9546 363.28 32.4106 363.52 32.0266L364.736 32.2826C364.448 32.6826 364.128 33.0666 363.824 33.3866H366.656V35.8666H365.504V34.2026H354.432ZM356.96 35.5626V36.3946H362.96V35.5626H356.96ZM364.096 37.0186H355.872V34.9226H364.096V37.0186ZM362.112 40.0586L361.52 39.7546C361.824 39.3866 362.224 38.8266 362.432 38.4906L363.232 38.8426C362.848 39.3066 362.448 39.7386 362.112 40.0586ZM357.552 40.0906H359.376V38.3786H355.68V40.0906H357.504C357.328 39.7546 356.992 39.2746 356.656 38.9066L357.344 38.5386C357.696 38.8586 358.08 39.3386 358.24 39.6586L357.552 40.0906ZM364.368 40.0906V38.3786H360.512V40.0906H364.368ZM367.008 43.0826V43.8666H353.008V43.0826H359.376V42.2666H354.16V41.5146H359.376V40.7786H354.576V37.7066H365.52V40.7786H360.512V41.5146H366.032V42.2666H360.512V43.0826H367.008ZM354.064 46.5546L353.04 46.0906C353.808 45.6746 354.576 44.9546 355.024 44.1866L356.096 44.5226C355.632 45.2906 354.88 46.1066 354.064 46.5546ZM357.568 44.5866L358.624 44.5226C358.8 45.0986 358.944 45.8666 358.992 46.3306L357.872 46.4426C357.84 45.9786 357.712 45.1946 357.568 44.5866ZM360.816 44.6026L361.92 44.4426C362.208 44.9866 362.528 45.7386 362.64 46.2026L361.488 46.4106C361.392 45.9306 361.104 45.1786 360.816 44.6026ZM363.92 44.5706L365.024 44.2186C365.728 44.7946 366.592 45.6106 367.024 46.2026L365.872 46.5706C365.472 46.0266 364.624 45.1626 363.92 44.5706Z" fill="#282828"/>
</svg>
