<svg width="79" height="211" viewBox="0 0 79 211" fill="none" xmlns="http://www.w3.org/2000/svg">
<rect x="1" y="46" width="20" height="20" fill="#3E8952" stroke="#282828"/>
<rect x="1" y="26" width="20" height="20" fill="#2C5E39" stroke="#282828"/>
<rect x="1" y="66" width="20" height="20" fill="#4DAD67" stroke="#282828"/>
<rect x="1" y="86" width="20" height="20" fill="#70BF85" stroke="#282828"/>
<rect x="1" y="106" width="20" height="20" fill="#D3D3D3" stroke="#282828"/>
<rect x="1" y="126" width="20" height="20" fill="#536ECE" stroke="#282828"/>
<rect x="1" y="146" width="20" height="20" fill="#294AC1" stroke="#282828"/>
<rect x="1" y="166" width="20" height="20" fill="#2540A2" stroke="#282828"/>
<rect x="1" y="186" width="20" height="20" fill="#152A77" stroke="#282828"/>
<path d="M14.204 192.296L13.772 192.764C13.508 192.5 12.956 192.128 12.488 191.924L12.908 191.48C13.376 191.696 13.928 192.02 14.204 192.296ZM11 197.144L11.036 197.768C9.788 198.008 8.516 198.26 7.532 198.44L7.412 197.768C8.324 197.624 9.656 197.384 11 197.144ZM9.956 196.088V194.888H8.576V196.088H9.956ZM7.952 194.324H10.604V196.652H7.952V194.324ZM13.28 194.12L14.012 194.276C13.712 195.404 13.256 196.388 12.68 197.216C12.932 197.852 13.256 198.26 13.652 198.32C13.82 198.368 13.94 197.852 14.024 197.084C14.168 197.228 14.432 197.408 14.6 197.48C14.444 198.788 14.036 199.268 13.412 199.028C12.896 198.92 12.488 198.5 12.164 197.864C11.696 198.404 11.168 198.86 10.58 199.244C10.472 199.1 10.208 198.812 10.052 198.68C10.76 198.272 11.36 197.744 11.864 197.12C11.54 196.16 11.336 194.924 11.204 193.568H7.532V192.896H11.144C11.108 192.476 11.072 192.056 11.048 191.624H11.816C11.84 192.056 11.864 192.476 11.888 192.896H14.504V193.568H11.948C12.044 194.6 12.188 195.56 12.392 196.328C12.776 195.68 13.076 194.936 13.28 194.12ZM6.872 199.592H15.104V191.324H6.872V199.592ZM6.02 190.508H15.98V200.948H15.104V200.396H6.872V200.948H6.02V190.508Z" fill="#E8E8E8"/>
<path d="M10.732 4.972V4.012H6.784V4.972H10.732ZM10.732 6.592V5.62H6.784V6.592H10.732ZM11.62 3.34V7.276H5.92V3.34H11.62ZM4.036 3.004L4.888 3.328C4.18 4.348 3.016 5.464 1.96 6.172C1.864 5.968 1.648 5.632 1.492 5.452C2.44 4.84 3.508 3.844 4.036 3.004ZM4.252 5.62L5.032 5.932C4.756 6.424 4.408 6.928 4.048 7.408V13.912H3.172V8.416C2.716 8.908 2.236 9.352 1.768 9.712C1.696 9.532 1.456 9.076 1.3 8.86C2.38 8.068 3.544 6.856 4.252 5.62ZM5.944 11.248L6.58 10.84C7.132 11.332 7.792 12.04 8.104 12.508L7.42 12.988C7.132 12.508 6.496 11.776 5.944 11.248ZM12.4 9.868V10.636H10.612V12.94C10.612 13.42 10.504 13.648 10.156 13.792C9.796 13.924 9.232 13.936 8.332 13.936C8.296 13.684 8.164 13.36 8.044 13.12C8.716 13.144 9.316 13.144 9.484 13.132C9.676 13.12 9.724 13.072 9.724 12.916V10.636H4.912V9.868H9.724V8.848H5.188V8.08H12.184V8.848H10.612V9.868H12.4ZM19.888 5.104V4.18H18.004V5.104H19.888ZM22.66 5.776H20.74V7.156H22.66V5.776ZM18.004 5.776V7.156H19.888V5.776H18.004ZM15.352 5.776V7.156H17.176V5.776H15.352ZM17.176 5.104V4.18H13.804V3.436H24.124V4.18H20.74V5.104H23.536V7.84H14.524V5.104H17.176ZM22.9 9.34H15.136V8.632H22.9V9.34ZM16.276 11.2L17.092 11.488C16.384 12.364 15.244 13.204 14.248 13.732C14.104 13.576 13.768 13.276 13.576 13.144C14.584 12.688 15.652 11.968 16.276 11.2ZM20.74 11.704L21.376 11.236C22.348 11.752 23.62 12.556 24.28 13.108L23.596 13.624C22.984 13.084 21.724 12.268 20.74 11.704ZM13.672 10.168H24.352V10.9H19.456V12.976C19.456 13.444 19.36 13.66 19 13.792C18.652 13.924 18.088 13.936 17.224 13.936C17.188 13.684 17.056 13.36 16.936 13.132C17.608 13.156 18.172 13.156 18.352 13.144C18.532 13.132 18.568 13.084 18.568 12.952V10.9H13.672V10.168ZM36.34 9.532L35.68 10.096C35.104 9.592 33.916 8.872 32.98 8.392L33.604 7.888C34.516 8.332 35.716 9.04 36.34 9.532ZM35.056 5.452L35.836 5.86C35.224 6.412 34.456 6.964 33.844 7.348L33.208 6.964C33.796 6.568 34.6 5.92 35.056 5.452ZM29.008 6.16L29.344 6.376C29.656 5.98 29.98 5.5 30.208 5.116H26.044V4.312H30.52V2.968H31.408V4.312H35.992V5.116H30.772L31.084 5.236C30.712 5.752 30.268 6.304 29.884 6.724C30.22 6.964 30.544 7.204 30.796 7.42C31.276 6.868 31.72 6.316 32.056 5.836L32.764 6.172C32.056 7.06 31.12 8.104 30.256 8.932L32.32 8.824C32.092 8.5 31.852 8.188 31.612 7.912L32.26 7.624C32.848 8.284 33.508 9.172 33.772 9.784L33.088 10.144C33.004 9.952 32.884 9.712 32.74 9.472C31.216 9.58 29.692 9.676 28.54 9.76L28.42 9.004C28.684 8.992 28.996 8.98 29.32 8.968C29.632 8.668 29.968 8.332 30.304 7.972C29.836 7.564 29.14 7.06 28.564 6.688L29.008 6.16ZM28.564 6.904L27.94 7.444C27.544 7.06 26.728 6.496 26.056 6.112L26.656 5.62C27.316 5.968 28.156 6.52 28.564 6.904ZM28.648 8.02L28.816 8.692C27.868 9.136 26.884 9.616 26.08 9.964L25.636 9.244C26.404 8.968 27.532 8.488 28.648 8.02ZM31.408 9.76V10.684H36.328V11.512H31.408V13.948H30.52V11.512H25.684V10.684H30.52V9.76H31.408ZM41.6534 8.63636C41.6534 7.5625 41.7926 6.57528 42.071 5.67472C42.3523 4.77131 42.7528 3.94034 43.2727 3.18182H44.1591C43.9545 3.46307 43.7628 3.80966 43.5838 4.22159C43.4077 4.63068 43.2528 5.08097 43.1193 5.57244C42.9858 6.06108 42.8807 6.56676 42.804 7.08949C42.7301 7.61222 42.6932 8.12784 42.6932 8.63636C42.6932 9.3125 42.7585 9.99858 42.8892 10.6946C43.0199 11.3906 43.196 12.0369 43.4176 12.6335C43.6392 13.2301 43.8864 13.7159 44.1591 14.0909H43.2727C42.7528 13.3324 42.3523 12.5028 42.071 11.6023C41.7926 10.6989 41.6534 9.71023 41.6534 8.63636ZM50.0749 11.3636V10.9034C50.0749 10.5852 50.1403 10.294 50.271 10.0298C50.4045 9.76278 50.5977 9.54972 50.8505 9.39062C51.1062 9.22869 51.4158 9.14773 51.7795 9.14773C52.1488 9.14773 52.4585 9.22869 52.7085 9.39062C52.9585 9.54972 53.1474 9.76278 53.2752 10.0298C53.4031 10.294 53.467 10.5852 53.467 10.9034V11.3636C53.467 11.6818 53.4016 11.9744 53.271 12.2415C53.1431 12.5057 52.9528 12.7187 52.6999 12.8807C52.4499 13.0398 52.1431 13.1193 51.7795 13.1193C51.4102 13.1193 51.0991 13.0398 50.8462 12.8807C50.5934 12.7187 50.4016 12.5057 50.271 12.2415C50.1403 11.9744 50.0749 11.6818 50.0749 11.3636ZM50.9442 10.9034V11.3636C50.9442 11.6278 51.0067 11.8651 51.1317 12.0753C51.2567 12.2827 51.4727 12.3864 51.7795 12.3864C52.0778 12.3864 52.288 12.2827 52.4102 12.0753C52.5352 11.8651 52.5977 11.6278 52.5977 11.3636V10.9034C52.5977 10.6392 52.538 10.4034 52.4187 10.196C52.2994 9.9858 52.0863 9.88068 51.7795 9.88068C51.4812 9.88068 51.2667 9.9858 51.136 10.196C51.0082 10.4034 50.9442 10.6392 50.9442 10.9034ZM45.7283 6.36932V5.90909C45.7283 5.59091 45.7937 5.29972 45.9244 5.03551C46.0579 4.76847 46.2511 4.5554 46.5039 4.39631C46.7596 4.23437 47.0692 4.15341 47.4329 4.15341C47.8022 4.15341 48.1119 4.23437 48.3619 4.39631C48.6119 4.5554 48.8008 4.76847 48.9286 5.03551C49.0565 5.29972 49.1204 5.59091 49.1204 5.90909V6.36932C49.1204 6.6875 49.055 6.98011 48.9244 7.24716C48.7965 7.51136 48.6062 7.72443 48.3533 7.88636C48.1033 8.04545 47.7965 8.125 47.4329 8.125C47.0636 8.125 46.7525 8.04545 46.4996 7.88636C46.2468 7.72443 46.055 7.51136 45.9244 7.24716C45.7937 6.98011 45.7283 6.6875 45.7283 6.36932ZM46.5977 5.90909V6.36932C46.5977 6.63352 46.6602 6.87074 46.7852 7.08097C46.9102 7.28835 47.1261 7.39205 47.4329 7.39205C47.7312 7.39205 47.9414 7.28835 48.0636 7.08097C48.1886 6.87074 48.2511 6.63352 48.2511 6.36932V5.90909C48.2511 5.64489 48.1914 5.40909 48.0721 5.2017C47.9528 4.99148 47.7397 4.88636 47.4329 4.88636C47.1346 4.88636 46.9201 4.99148 46.7894 5.2017C46.6616 5.40909 46.5977 5.64489 46.5977 5.90909ZM46.0522 13L52.0522 4.27273H53.0238L47.0238 13H46.0522ZM57.5408 8.63636C57.5408 9.71023 57.4002 10.6989 57.119 11.6023C56.8406 12.5028 56.4414 13.3324 55.9215 14.0909H55.0352C55.2397 13.8097 55.43 13.4631 55.6062 13.0511C55.7852 12.642 55.9414 12.1932 56.0749 11.7045C56.2085 11.2131 56.3121 10.706 56.386 10.1832C56.4627 9.65767 56.5011 9.14205 56.5011 8.63636C56.5011 7.96023 56.4357 7.27415 56.305 6.57812C56.1744 5.8821 55.9982 5.2358 55.7766 4.6392C55.555 4.04261 55.3079 3.55682 55.0352 3.18182H55.9215C56.4414 3.94034 56.8406 4.77131 57.119 5.67472C57.4002 6.57528 57.5408 7.5625 57.5408 8.63636Z" fill="black"/>
<path d="M7.832 35.776H11.228C11.12 35.26 11.048 34.708 11.012 34.156H7.832V35.776ZM14.504 31.408H7.832V33.316H14.504V31.408ZM16.28 36.616H12.356C12.968 38.656 14.084 40.048 15.188 40.036C15.548 40.024 15.68 39.532 15.74 38.26C15.956 38.44 16.28 38.608 16.532 38.68C16.388 40.444 16.016 40.9 15.14 40.9C13.496 40.912 12.104 39.112 11.42 36.616H7.832V39.556C8.996 39.4 10.328 39.208 11.6 39.028L11.636 39.892C9.584 40.204 7.4 40.528 5.888 40.756L5.684 39.832L6.932 39.676V30.592H15.404V34.156H11.912C11.948 34.72 12.032 35.26 12.14 35.776H16.28V36.616Z" fill="#E8E8E8"/>
<path d="M30.538 69.0795C30.2994 69.0758 30.0607 69.0303 29.8221 68.9432C29.5835 68.8561 29.3656 68.7093 29.1687 68.5028C28.9717 68.2945 28.8136 68.0133 28.6942 67.6591C28.5749 67.303 28.5153 66.8561 28.5153 66.3182C28.5153 65.803 28.5636 65.3466 28.6602 64.9489C28.7567 64.5492 28.8969 64.2131 29.0806 63.9403C29.2643 63.6657 29.4859 63.4574 29.7454 63.3153C30.0067 63.1733 30.3013 63.1023 30.6289 63.1023C30.9547 63.1023 31.2444 63.1676 31.4982 63.2983C31.7539 63.4271 31.9622 63.607 32.1232 63.8381C32.2842 64.0691 32.3884 64.3352 32.4357 64.6364H31.7425C31.6781 64.375 31.5531 64.1581 31.3675 63.9858C31.1819 63.8134 30.9357 63.7273 30.6289 63.7273C30.1781 63.7273 29.823 63.9233 29.5636 64.3153C29.306 64.7074 29.1763 65.2576 29.1744 65.9659H29.2198C29.3259 65.8049 29.4518 65.6676 29.5977 65.554C29.7454 65.4384 29.9083 65.3494 30.0863 65.2869C30.2643 65.2244 30.4528 65.1932 30.6516 65.1932C30.985 65.1932 31.2899 65.2765 31.5664 65.4432C31.8429 65.608 32.0645 65.8362 32.2312 66.1278C32.3978 66.4176 32.4812 66.75 32.4812 67.125C32.4812 67.4848 32.4007 67.8144 32.2397 68.1136C32.0787 68.411 31.8524 68.6477 31.5607 68.8239C31.271 68.9981 30.93 69.0833 30.538 69.0795ZM30.538 68.4545C30.7766 68.4545 30.9906 68.3949 31.18 68.2756C31.3713 68.1562 31.5219 67.9962 31.6317 67.7955C31.7435 67.5947 31.7994 67.3712 31.7994 67.125C31.7994 66.8845 31.7454 66.6657 31.6374 66.4688C31.5314 66.2699 31.3846 66.1117 31.1971 65.9943C31.0115 65.8769 30.7994 65.8182 30.5607 65.8182C30.3808 65.8182 30.2132 65.8542 30.0579 65.9261C29.9026 65.9962 29.7662 66.0928 29.6488 66.2159C29.5333 66.339 29.4424 66.4801 29.3761 66.6392C29.3098 66.7964 29.2766 66.9621 29.2766 67.1364C29.2766 67.3674 29.3306 67.5833 29.4386 67.7841C29.5484 67.9848 29.698 68.1468 29.8874 68.2699C30.0787 68.393 30.2956 68.4545 30.538 68.4545ZM35.4961 69.0795C35.0681 69.0795 34.7035 68.9631 34.4023 68.7301C34.1012 68.4953 33.8711 68.1553 33.712 67.7102C33.5529 67.2633 33.4734 66.7235 33.4734 66.0909C33.4734 65.4621 33.5529 64.9252 33.712 64.4801C33.873 64.0331 34.104 63.6922 34.4052 63.4574C34.7082 63.2206 35.0719 63.1023 35.4961 63.1023C35.9203 63.1023 36.283 63.2206 36.5842 63.4574C36.8872 63.6922 37.1183 64.0331 37.2773 64.4801C37.4383 64.9252 37.5188 65.4621 37.5188 66.0909C37.5188 66.7235 37.4393 67.2633 37.2802 67.7102C37.1211 68.1553 36.891 68.4953 36.5898 68.7301C36.2887 68.9631 35.9241 69.0795 35.4961 69.0795ZM35.4961 68.4545C35.9203 68.4545 36.2499 68.25 36.4847 67.8409C36.7196 67.4318 36.837 66.8485 36.837 66.0909C36.837 65.5871 36.783 65.1581 36.6751 64.804C36.569 64.4498 36.4156 64.1799 36.2148 63.9943C36.016 63.8087 35.7764 63.7159 35.4961 63.7159C35.0756 63.7159 34.747 63.9233 34.5103 64.3381C34.2736 64.7509 34.1552 65.3352 34.1552 66.0909C34.1552 66.5947 34.2082 67.0227 34.3143 67.375C34.4203 67.7273 34.5728 67.9953 34.7717 68.179C34.9724 68.3627 35.2139 68.4545 35.4961 68.4545Z" fill="#282828"/>
<path d="M30.538 169.08C30.2994 169.076 30.0607 169.03 29.8221 168.943C29.5835 168.856 29.3656 168.709 29.1687 168.503C28.9717 168.295 28.8136 168.013 28.6942 167.659C28.5749 167.303 28.5153 166.856 28.5153 166.318C28.5153 165.803 28.5636 165.347 28.6602 164.949C28.7567 164.549 28.8969 164.213 29.0806 163.94C29.2643 163.666 29.4859 163.457 29.7454 163.315C30.0067 163.173 30.3013 163.102 30.6289 163.102C30.9547 163.102 31.2444 163.168 31.4982 163.298C31.7539 163.427 31.9622 163.607 32.1232 163.838C32.2842 164.069 32.3884 164.335 32.4357 164.636H31.7425C31.6781 164.375 31.5531 164.158 31.3675 163.986C31.1819 163.813 30.9357 163.727 30.6289 163.727C30.1781 163.727 29.823 163.923 29.5636 164.315C29.306 164.707 29.1763 165.258 29.1744 165.966H29.2198C29.3259 165.805 29.4518 165.668 29.5977 165.554C29.7454 165.438 29.9083 165.349 30.0863 165.287C30.2643 165.224 30.4528 165.193 30.6516 165.193C30.985 165.193 31.2899 165.277 31.5664 165.443C31.8429 165.608 32.0645 165.836 32.2312 166.128C32.3978 166.418 32.4812 166.75 32.4812 167.125C32.4812 167.485 32.4007 167.814 32.2397 168.114C32.0787 168.411 31.8524 168.648 31.5607 168.824C31.271 168.998 30.93 169.083 30.538 169.08ZM30.538 168.455C30.7766 168.455 30.9906 168.395 31.18 168.276C31.3713 168.156 31.5219 167.996 31.6317 167.795C31.7435 167.595 31.7994 167.371 31.7994 167.125C31.7994 166.884 31.7454 166.666 31.6374 166.469C31.5314 166.27 31.3846 166.112 31.1971 165.994C31.0115 165.877 30.7994 165.818 30.5607 165.818C30.3808 165.818 30.2132 165.854 30.0579 165.926C29.9026 165.996 29.7662 166.093 29.6488 166.216C29.5333 166.339 29.4424 166.48 29.3761 166.639C29.3098 166.796 29.2766 166.962 29.2766 167.136C29.2766 167.367 29.3306 167.583 29.4386 167.784C29.5484 167.985 29.698 168.147 29.8874 168.27C30.0787 168.393 30.2956 168.455 30.538 168.455ZM35.4961 169.08C35.0681 169.08 34.7035 168.963 34.4023 168.73C34.1012 168.495 33.8711 168.155 33.712 167.71C33.5529 167.263 33.4734 166.723 33.4734 166.091C33.4734 165.462 33.5529 164.925 33.712 164.48C33.873 164.033 34.104 163.692 34.4052 163.457C34.7082 163.221 35.0719 163.102 35.4961 163.102C35.9203 163.102 36.283 163.221 36.5842 163.457C36.8872 163.692 37.1183 164.033 37.2773 164.48C37.4383 164.925 37.5188 165.462 37.5188 166.091C37.5188 166.723 37.4393 167.263 37.2802 167.71C37.1211 168.155 36.891 168.495 36.5898 168.73C36.2887 168.963 35.9241 169.08 35.4961 169.08ZM35.4961 168.455C35.9203 168.455 36.2499 168.25 36.4847 167.841C36.7196 167.432 36.837 166.848 36.837 166.091C36.837 165.587 36.783 165.158 36.6751 164.804C36.569 164.45 36.4156 164.18 36.2148 163.994C36.016 163.809 35.7764 163.716 35.4961 163.716C35.0756 163.716 34.747 163.923 34.5103 164.338C34.2736 164.751 34.1552 165.335 34.1552 166.091C34.1552 166.595 34.2082 167.023 34.3143 167.375C34.4203 167.727 34.5728 167.995 34.7717 168.179C34.9724 168.363 35.2139 168.455 35.4961 168.455Z" fill="#282828"/>
<path d="M30.6044 49.0795C30.3658 49.0758 30.1271 49.0303 29.8885 48.9432C29.6499 48.8561 29.4321 48.7093 29.2351 48.5028C29.0381 48.2945 28.88 48.0133 28.7607 47.6591C28.6413 47.303 28.5817 46.8561 28.5817 46.3182C28.5817 45.803 28.63 45.3466 28.7266 44.9489C28.8232 44.5492 28.9633 44.2131 29.147 43.9403C29.3307 43.6657 29.5523 43.4574 29.8118 43.3153C30.0732 43.1733 30.3677 43.1023 30.6953 43.1023C31.0211 43.1023 31.3108 43.1676 31.5646 43.2983C31.8203 43.4271 32.0286 43.607 32.1896 43.8381C32.3506 44.0691 32.4548 44.3352 32.5021 44.6364H31.8089C31.7446 44.375 31.6196 44.1581 31.4339 43.9858C31.2483 43.8134 31.0021 43.7273 30.6953 43.7273C30.2446 43.7273 29.8894 43.9233 29.63 44.3153C29.3724 44.7074 29.2427 45.2576 29.2408 45.9659H29.2862C29.3923 45.8049 29.5182 45.6676 29.6641 45.554C29.8118 45.4384 29.9747 45.3494 30.1527 45.2869C30.3307 45.2244 30.5192 45.1932 30.718 45.1932C31.0514 45.1932 31.3563 45.2765 31.6328 45.4432C31.9093 45.608 32.1309 45.8362 32.2976 46.1278C32.4643 46.4176 32.5476 46.75 32.5476 47.125C32.5476 47.4848 32.4671 47.8144 32.3061 48.1136C32.1451 48.411 31.9188 48.6477 31.6271 48.8239C31.3374 48.9981 30.9964 49.0833 30.6044 49.0795ZM30.6044 48.4545C30.843 48.4545 31.0571 48.3949 31.2464 48.2756C31.4377 48.1562 31.5883 47.9962 31.6982 47.7955C31.8099 47.5947 31.8658 47.3712 31.8658 47.125C31.8658 46.8845 31.8118 46.6657 31.7038 46.4688C31.5978 46.2699 31.451 46.1117 31.2635 45.9943C31.0779 45.8769 30.8658 45.8182 30.6271 45.8182C30.4472 45.8182 30.2796 45.8542 30.1243 45.9261C29.969 45.9962 29.8326 46.0928 29.7152 46.2159C29.5997 46.339 29.5088 46.4801 29.4425 46.6392C29.3762 46.7964 29.343 46.9621 29.343 47.1364C29.343 47.3674 29.397 47.5833 29.505 47.7841C29.6148 47.9848 29.7644 48.1468 29.9538 48.2699C30.1451 48.393 30.362 48.4545 30.6044 48.4545ZM35.483 49.0795C35.1496 49.0795 34.8494 49.0133 34.5824 48.8807C34.3153 48.7481 34.1013 48.5663 33.9403 48.3352C33.7794 48.1042 33.6913 47.8409 33.6761 47.5455H34.358C34.3845 47.8087 34.5038 48.0265 34.7159 48.1989C34.9299 48.3693 35.1856 48.4545 35.483 48.4545C35.7216 48.4545 35.9337 48.3987 36.1193 48.2869C36.3068 48.1752 36.4536 48.0218 36.5597 47.8267C36.6676 47.6297 36.7216 47.4072 36.7216 47.1591C36.7216 46.9053 36.6657 46.679 36.554 46.4801C36.4441 46.2794 36.2926 46.1212 36.0994 46.0057C35.9063 45.8902 35.6856 45.8314 35.4375 45.8295C35.2595 45.8277 35.0767 45.8551 34.8892 45.9119C34.7017 45.9669 34.5473 46.0379 34.4261 46.125L33.767 46.0455L34.1193 43.1818H37.142V43.8068H34.7102L34.5057 45.5227H34.5398C34.6591 45.428 34.8087 45.3494 34.9886 45.2869C35.1686 45.2244 35.3561 45.1932 35.5511 45.1932C35.9072 45.1932 36.2244 45.2784 36.5028 45.4489C36.7831 45.6174 37.0028 45.8485 37.1619 46.142C37.3229 46.4356 37.4034 46.7708 37.4034 47.1477C37.4034 47.5189 37.3201 47.8504 37.1534 48.142C36.9886 48.4318 36.7614 48.661 36.4716 48.8295C36.1818 48.9962 35.8523 49.0795 35.483 49.0795Z" fill="#282828"/>
<path d="M29.0614 29L31.6637 23.8523V23.8068H28.6637V23.1818H32.391V23.8409L29.8001 29H29.0614ZM35.2227 29.0795C34.7946 29.0795 34.43 28.9631 34.1289 28.7301C33.8278 28.4953 33.5977 28.1553 33.4386 27.7102C33.2795 27.2633 33.1999 26.7235 33.1999 26.0909C33.1999 25.4621 33.2795 24.9252 33.4386 24.4801C33.5996 24.0331 33.8306 23.6922 34.1317 23.4574C34.4348 23.2206 34.7984 23.1023 35.2227 23.1023C35.6469 23.1023 36.0096 23.2206 36.3107 23.4574C36.6138 23.6922 36.8448 24.0331 37.0039 24.4801C37.1649 24.9252 37.2454 25.4621 37.2454 26.0909C37.2454 26.7235 37.1658 27.2633 37.0067 27.7102C36.8477 28.1553 36.6175 28.4953 36.3164 28.7301C36.0153 28.9631 35.6507 29.0795 35.2227 29.0795ZM35.2227 28.4545C35.6469 28.4545 35.9764 28.25 36.2113 27.8409C36.4461 27.4318 36.5636 26.8485 36.5636 26.0909C36.5636 25.5871 36.5096 25.1581 36.4016 24.804C36.2956 24.4498 36.1422 24.1799 35.9414 23.9943C35.7425 23.8087 35.503 23.7159 35.2227 23.7159C34.8022 23.7159 34.4736 23.9233 34.2369 24.3381C34.0001 24.7509 33.8817 25.3352 33.8817 26.0909C33.8817 26.5947 33.9348 27.0227 34.0408 27.375C34.1469 27.7273 34.2994 27.9953 34.4982 28.179C34.699 28.3627 34.9405 28.4545 35.2227 28.4545Z" fill="#282828"/>
<path d="M30.6044 189.08C30.3658 189.076 30.1271 189.03 29.8885 188.943C29.6499 188.856 29.4321 188.709 29.2351 188.503C29.0381 188.295 28.88 188.013 28.7607 187.659C28.6413 187.303 28.5817 186.856 28.5817 186.318C28.5817 185.803 28.63 185.347 28.7266 184.949C28.8232 184.549 28.9633 184.213 29.147 183.94C29.3307 183.666 29.5523 183.457 29.8118 183.315C30.0732 183.173 30.3677 183.102 30.6953 183.102C31.0211 183.102 31.3108 183.168 31.5646 183.298C31.8203 183.427 32.0286 183.607 32.1896 183.838C32.3506 184.069 32.4548 184.335 32.5021 184.636H31.8089C31.7446 184.375 31.6196 184.158 31.4339 183.986C31.2483 183.813 31.0021 183.727 30.6953 183.727C30.2446 183.727 29.8894 183.923 29.63 184.315C29.3724 184.707 29.2427 185.258 29.2408 185.966H29.2862C29.3923 185.805 29.5182 185.668 29.6641 185.554C29.8118 185.438 29.9747 185.349 30.1527 185.287C30.3307 185.224 30.5192 185.193 30.718 185.193C31.0514 185.193 31.3563 185.277 31.6328 185.443C31.9093 185.608 32.1309 185.836 32.2976 186.128C32.4643 186.418 32.5476 186.75 32.5476 187.125C32.5476 187.485 32.4671 187.814 32.3061 188.114C32.1451 188.411 31.9188 188.648 31.6271 188.824C31.3374 188.998 30.9964 189.083 30.6044 189.08ZM30.6044 188.455C30.843 188.455 31.0571 188.395 31.2464 188.276C31.4377 188.156 31.5883 187.996 31.6982 187.795C31.8099 187.595 31.8658 187.371 31.8658 187.125C31.8658 186.884 31.8118 186.666 31.7038 186.469C31.5978 186.27 31.451 186.112 31.2635 185.994C31.0779 185.877 30.8658 185.818 30.6271 185.818C30.4472 185.818 30.2796 185.854 30.1243 185.926C29.969 185.996 29.8326 186.093 29.7152 186.216C29.5997 186.339 29.5088 186.48 29.4425 186.639C29.3762 186.796 29.343 186.962 29.343 187.136C29.343 187.367 29.397 187.583 29.505 187.784C29.6148 187.985 29.7644 188.147 29.9538 188.27C30.1451 188.393 30.362 188.455 30.6044 188.455ZM35.483 189.08C35.1496 189.08 34.8494 189.013 34.5824 188.881C34.3153 188.748 34.1013 188.566 33.9403 188.335C33.7794 188.104 33.6913 187.841 33.6761 187.545H34.358C34.3845 187.809 34.5038 188.027 34.7159 188.199C34.9299 188.369 35.1856 188.455 35.483 188.455C35.7216 188.455 35.9337 188.399 36.1193 188.287C36.3068 188.175 36.4536 188.022 36.5597 187.827C36.6676 187.63 36.7216 187.407 36.7216 187.159C36.7216 186.905 36.6657 186.679 36.554 186.48C36.4441 186.279 36.2926 186.121 36.0994 186.006C35.9063 185.89 35.6856 185.831 35.4375 185.83C35.2595 185.828 35.0767 185.855 34.8892 185.912C34.7017 185.967 34.5473 186.038 34.4261 186.125L33.767 186.045L34.1193 183.182H37.142V183.807H34.7102L34.5057 185.523H34.5398C34.6591 185.428 34.8087 185.349 34.9886 185.287C35.1686 185.224 35.3561 185.193 35.5511 185.193C35.9072 185.193 36.2244 185.278 36.5028 185.449C36.7831 185.617 37.0028 185.848 37.1619 186.142C37.3229 186.436 37.4034 186.771 37.4034 187.148C37.4034 187.519 37.3201 187.85 37.1534 188.142C36.9886 188.432 36.7614 188.661 36.4716 188.83C36.1818 188.996 35.8523 189.08 35.483 189.08Z" fill="#282828"/>
<path d="M29.0614 209L31.6637 203.852V203.807H28.6637V203.182H32.391V203.841L29.8001 209H29.0614ZM35.2227 209.08C34.7946 209.08 34.43 208.963 34.1289 208.73C33.8278 208.495 33.5977 208.155 33.4386 207.71C33.2795 207.263 33.1999 206.723 33.1999 206.091C33.1999 205.462 33.2795 204.925 33.4386 204.48C33.5996 204.033 33.8306 203.692 34.1317 203.457C34.4348 203.221 34.7984 203.102 35.2227 203.102C35.6469 203.102 36.0096 203.221 36.3107 203.457C36.6138 203.692 36.8448 204.033 37.0039 204.48C37.1649 204.925 37.2454 205.462 37.2454 206.091C37.2454 206.723 37.1658 207.263 37.0067 207.71C36.8477 208.155 36.6175 208.495 36.3164 208.73C36.0153 208.963 35.6507 209.08 35.2227 209.08ZM35.2227 208.455C35.6469 208.455 35.9764 208.25 36.2113 207.841C36.4461 207.432 36.5636 206.848 36.5636 206.091C36.5636 205.587 36.5096 205.158 36.4016 204.804C36.2956 204.45 36.1422 204.18 35.9414 203.994C35.7425 203.809 35.503 203.716 35.2227 203.716C34.8022 203.716 34.4736 203.923 34.2369 204.338C34.0001 204.751 33.8817 205.335 33.8817 206.091C33.8817 206.595 33.9348 207.023 34.0408 207.375C34.1469 207.727 34.2994 207.995 34.4982 208.179C34.699 208.363 34.9405 208.455 35.2227 208.455Z" fill="#282828"/>
<path d="M30.5533 89.0795C30.2199 89.0795 29.9197 89.0133 29.6527 88.8807C29.3857 88.7481 29.1716 88.5663 29.0107 88.3352C28.8497 88.1042 28.7616 87.8409 28.7464 87.5455H29.4283C29.4548 87.8087 29.5741 88.0265 29.7862 88.1989C30.0002 88.3693 30.2559 88.4545 30.5533 88.4545C30.7919 88.4545 31.004 88.3987 31.1896 88.2869C31.3771 88.1752 31.5239 88.0218 31.63 87.8267C31.7379 87.6297 31.7919 87.4072 31.7919 87.1591C31.7919 86.9053 31.736 86.679 31.6243 86.4801C31.5144 86.2794 31.3629 86.1212 31.1697 86.0057C30.9766 85.8902 30.7559 85.8314 30.5078 85.8295C30.3298 85.8277 30.147 85.8551 29.9595 85.9119C29.772 85.9669 29.6177 86.0379 29.4964 86.125L28.8374 86.0455L29.1896 83.1818H32.2124V83.8068H29.7805L29.576 85.5227H29.6101C29.7294 85.428 29.879 85.3494 30.0589 85.2869C30.2389 85.2244 30.4264 85.1932 30.6214 85.1932C30.9775 85.1932 31.2947 85.2784 31.5732 85.4489C31.8535 85.6174 32.0732 85.8485 32.2322 86.142C32.3932 86.4356 32.4737 86.7708 32.4737 87.1477C32.4737 87.5189 32.3904 87.8504 32.2237 88.142C32.0589 88.4318 31.8317 88.661 31.5419 88.8295C31.2521 88.9962 30.9226 89.0795 30.5533 89.0795ZM35.4205 89.0795C35.0871 89.0795 34.7869 89.0133 34.5199 88.8807C34.2528 88.7481 34.0388 88.5663 33.8778 88.3352C33.7169 88.1042 33.6288 87.8409 33.6136 87.5455H34.2955C34.322 87.8087 34.4413 88.0265 34.6534 88.1989C34.8674 88.3693 35.1231 88.4545 35.4205 88.4545C35.6591 88.4545 35.8712 88.3987 36.0568 88.2869C36.2443 88.1752 36.3911 88.0218 36.4972 87.8267C36.6051 87.6297 36.6591 87.4072 36.6591 87.1591C36.6591 86.9053 36.6032 86.679 36.4915 86.4801C36.3816 86.2794 36.2301 86.1212 36.0369 86.0057C35.8438 85.8902 35.6231 85.8314 35.375 85.8295C35.197 85.8277 35.0142 85.8551 34.8267 85.9119C34.6392 85.9669 34.4848 86.0379 34.3636 86.125L33.7045 86.0455L34.0568 83.1818H37.0795V83.8068H34.6477L34.4432 85.5227H34.4773C34.5966 85.428 34.7462 85.3494 34.9261 85.2869C35.1061 85.2244 35.2936 85.1932 35.4886 85.1932C35.8447 85.1932 36.1619 85.2784 36.4403 85.4489C36.7206 85.6174 36.9403 85.8485 37.0994 86.142C37.2604 86.4356 37.3409 86.7708 37.3409 87.1477C37.3409 87.5189 37.2576 87.8504 37.0909 88.142C36.9261 88.4318 36.6989 88.661 36.4091 88.8295C36.1193 88.9962 35.7898 89.0795 35.4205 89.0795Z" fill="#282828"/>
<path d="M33 109.08C32.572 109.08 32.2074 108.963 31.9062 108.73C31.6051 108.495 31.375 108.155 31.2159 107.71C31.0568 107.263 30.9773 106.723 30.9773 106.091C30.9773 105.462 31.0568 104.925 31.2159 104.48C31.3769 104.033 31.608 103.692 31.9091 103.457C32.2121 103.221 32.5758 103.102 33 103.102C33.4242 103.102 33.7869 103.221 34.0881 103.457C34.3911 103.692 34.6222 104.033 34.7812 104.48C34.9422 104.925 35.0227 105.462 35.0227 106.091C35.0227 106.723 34.9432 107.263 34.7841 107.71C34.625 108.155 34.3949 108.495 34.0938 108.73C33.7926 108.963 33.428 109.08 33 109.08ZM33 108.455C33.4242 108.455 33.7538 108.25 33.9886 107.841C34.2235 107.432 34.3409 106.848 34.3409 106.091C34.3409 105.587 34.2869 105.158 34.179 104.804C34.0729 104.45 33.9195 104.18 33.7188 103.994C33.5199 103.809 33.2803 103.716 33 103.716C32.5795 103.716 32.2509 103.923 32.0142 104.338C31.7775 104.751 31.6591 105.335 31.6591 106.091C31.6591 106.595 31.7121 107.023 31.8182 107.375C31.9242 107.727 32.0767 107.995 32.2756 108.179C32.4763 108.363 32.7178 108.455 33 108.455Z" fill="#282828"/>
<path d="M30.5533 149.08C30.2199 149.08 29.9197 149.013 29.6527 148.881C29.3857 148.748 29.1716 148.566 29.0107 148.335C28.8497 148.104 28.7616 147.841 28.7464 147.545H29.4283C29.4548 147.809 29.5741 148.027 29.7862 148.199C30.0002 148.369 30.2559 148.455 30.5533 148.455C30.7919 148.455 31.004 148.399 31.1896 148.287C31.3771 148.175 31.5239 148.022 31.63 147.827C31.7379 147.63 31.7919 147.407 31.7919 147.159C31.7919 146.905 31.736 146.679 31.6243 146.48C31.5144 146.279 31.3629 146.121 31.1697 146.006C30.9766 145.89 30.7559 145.831 30.5078 145.83C30.3298 145.828 30.147 145.855 29.9595 145.912C29.772 145.967 29.6177 146.038 29.4964 146.125L28.8374 146.045L29.1896 143.182H32.2124V143.807H29.7805L29.576 145.523H29.6101C29.7294 145.428 29.879 145.349 30.0589 145.287C30.2389 145.224 30.4264 145.193 30.6214 145.193C30.9775 145.193 31.2947 145.278 31.5732 145.449C31.8535 145.617 32.0732 145.848 32.2322 146.142C32.3932 146.436 32.4737 146.771 32.4737 147.148C32.4737 147.519 32.3904 147.85 32.2237 148.142C32.0589 148.432 31.8317 148.661 31.5419 148.83C31.2521 148.996 30.9226 149.08 30.5533 149.08ZM35.4205 149.08C35.0871 149.08 34.7869 149.013 34.5199 148.881C34.2528 148.748 34.0388 148.566 33.8778 148.335C33.7169 148.104 33.6288 147.841 33.6136 147.545H34.2955C34.322 147.809 34.4413 148.027 34.6534 148.199C34.8674 148.369 35.1231 148.455 35.4205 148.455C35.6591 148.455 35.8712 148.399 36.0568 148.287C36.2443 148.175 36.3911 148.022 36.4972 147.827C36.6051 147.63 36.6591 147.407 36.6591 147.159C36.6591 146.905 36.6032 146.679 36.4915 146.48C36.3816 146.279 36.2301 146.121 36.0369 146.006C35.8438 145.89 35.6231 145.831 35.375 145.83C35.197 145.828 35.0142 145.855 34.8267 145.912C34.6392 145.967 34.4848 146.038 34.3636 146.125L33.7045 146.045L34.0568 143.182H37.0795V143.807H34.6477L34.4432 145.523H34.4773C34.5966 145.428 34.7462 145.349 34.9261 145.287C35.1061 145.224 35.2936 145.193 35.4886 145.193C35.8447 145.193 36.1619 145.278 36.4403 145.449C36.7206 145.617 36.9403 145.848 37.0994 146.142C37.2604 146.436 37.3409 146.771 37.3409 147.148C37.3409 147.519 37.2576 147.85 37.0909 148.142C36.9261 148.432 36.6989 148.661 36.4091 148.83C36.1193 148.996 35.7898 149.08 35.4205 149.08Z" fill="#282828"/>
<path d="M33 129.08C32.572 129.08 32.2074 128.963 31.9062 128.73C31.6051 128.495 31.375 128.155 31.2159 127.71C31.0568 127.263 30.9773 126.723 30.9773 126.091C30.9773 125.462 31.0568 124.925 31.2159 124.48C31.3769 124.033 31.608 123.692 31.9091 123.457C32.2121 123.221 32.5758 123.102 33 123.102C33.4242 123.102 33.7869 123.221 34.0881 123.457C34.3911 123.692 34.6222 124.033 34.7812 124.48C34.9422 124.925 35.0227 125.462 35.0227 126.091C35.0227 126.723 34.9432 127.263 34.7841 127.71C34.625 128.155 34.3949 128.495 34.0938 128.73C33.7926 128.963 33.428 129.08 33 129.08ZM33 128.455C33.4242 128.455 33.7538 128.25 33.9886 127.841C34.2235 127.432 34.3409 126.848 34.3409 126.091C34.3409 125.587 34.2869 125.158 34.179 124.804C34.0729 124.45 33.9195 124.18 33.7188 123.994C33.5199 123.809 33.2803 123.716 33 123.716C32.5795 123.716 32.2509 123.923 32.0142 124.338C31.7775 124.751 31.6591 125.335 31.6591 126.091C31.6591 126.595 31.7121 127.023 31.8182 127.375C31.9242 127.727 32.0767 127.995 32.2756 128.179C32.4763 128.363 32.7178 128.455 33 128.455Z" fill="#282828"/>
</svg>
