<svg width="79" height="131" viewBox="0 0 79 131" fill="none" xmlns="http://www.w3.org/2000/svg">
<rect x="1" y="46" width="20" height="20" fill="#2540A2" stroke="#282828"/>
<rect x="1" y="26" width="20" height="20" fill="#152A77" stroke="#282828"/>
<rect x="1" y="66" width="20" height="20" fill="#294AC1" stroke="#282828"/>
<rect x="1" y="86" width="20" height="20" fill="#536ECE" stroke="#282828"/>
<rect x="1" y="106" width="20" height="20" fill="#9DADE6" stroke="#282828"/>
<path d="M10.732 4.972V4.012H6.784V4.972H10.732ZM10.732 6.592V5.62H6.784V6.592H10.732ZM11.62 3.34V7.276H5.92V3.34H11.62ZM4.036 3.004L4.888 3.328C4.18 4.348 3.016 5.464 1.96 6.172C1.864 5.968 1.648 5.632 1.492 5.452C2.44 4.84 3.508 3.844 4.036 3.004ZM4.252 5.62L5.032 5.932C4.756 6.424 4.408 6.928 4.048 7.408V13.912H3.172V8.416C2.716 8.908 2.236 9.352 1.768 9.712C1.696 9.532 1.456 9.076 1.3 8.86C2.38 8.068 3.544 6.856 4.252 5.62ZM5.944 11.248L6.58 10.84C7.132 11.332 7.792 12.04 8.104 12.508L7.42 12.988C7.132 12.508 6.496 11.776 5.944 11.248ZM12.4 9.868V10.636H10.612V12.94C10.612 13.42 10.504 13.648 10.156 13.792C9.796 13.924 9.232 13.936 8.332 13.936C8.296 13.684 8.164 13.36 8.044 13.12C8.716 13.144 9.316 13.144 9.484 13.132C9.676 13.12 9.724 13.072 9.724 12.916V10.636H4.912V9.868H9.724V8.848H5.188V8.08H12.184V8.848H10.612V9.868H12.4ZM19.888 5.104V4.18H18.004V5.104H19.888ZM22.66 5.776H20.74V7.156H22.66V5.776ZM18.004 5.776V7.156H19.888V5.776H18.004ZM15.352 5.776V7.156H17.176V5.776H15.352ZM17.176 5.104V4.18H13.804V3.436H24.124V4.18H20.74V5.104H23.536V7.84H14.524V5.104H17.176ZM22.9 9.34H15.136V8.632H22.9V9.34ZM16.276 11.2L17.092 11.488C16.384 12.364 15.244 13.204 14.248 13.732C14.104 13.576 13.768 13.276 13.576 13.144C14.584 12.688 15.652 11.968 16.276 11.2ZM20.74 11.704L21.376 11.236C22.348 11.752 23.62 12.556 24.28 13.108L23.596 13.624C22.984 13.084 21.724 12.268 20.74 11.704ZM13.672 10.168H24.352V10.9H19.456V12.976C19.456 13.444 19.36 13.66 19 13.792C18.652 13.924 18.088 13.936 17.224 13.936C17.188 13.684 17.056 13.36 16.936 13.132C17.608 13.156 18.172 13.156 18.352 13.144C18.532 13.132 18.568 13.084 18.568 12.952V10.9H13.672V10.168ZM36.34 9.532L35.68 10.096C35.104 9.592 33.916 8.872 32.98 8.392L33.604 7.888C34.516 8.332 35.716 9.04 36.34 9.532ZM35.056 5.452L35.836 5.86C35.224 6.412 34.456 6.964 33.844 7.348L33.208 6.964C33.796 6.568 34.6 5.92 35.056 5.452ZM29.008 6.16L29.344 6.376C29.656 5.98 29.98 5.5 30.208 5.116H26.044V4.312H30.52V2.968H31.408V4.312H35.992V5.116H30.772L31.084 5.236C30.712 5.752 30.268 6.304 29.884 6.724C30.22 6.964 30.544 7.204 30.796 7.42C31.276 6.868 31.72 6.316 32.056 5.836L32.764 6.172C32.056 7.06 31.12 8.104 30.256 8.932L32.32 8.824C32.092 8.5 31.852 8.188 31.612 7.912L32.26 7.624C32.848 8.284 33.508 9.172 33.772 9.784L33.088 10.144C33.004 9.952 32.884 9.712 32.74 9.472C31.216 9.58 29.692 9.676 28.54 9.76L28.42 9.004C28.684 8.992 28.996 8.98 29.32 8.968C29.632 8.668 29.968 8.332 30.304 7.972C29.836 7.564 29.14 7.06 28.564 6.688L29.008 6.16ZM28.564 6.904L27.94 7.444C27.544 7.06 26.728 6.496 26.056 6.112L26.656 5.62C27.316 5.968 28.156 6.52 28.564 6.904ZM28.648 8.02L28.816 8.692C27.868 9.136 26.884 9.616 26.08 9.964L25.636 9.244C26.404 8.968 27.532 8.488 28.648 8.02ZM31.408 9.76V10.684H36.328V11.512H31.408V13.948H30.52V11.512H25.684V10.684H30.52V9.76H31.408ZM41.6534 8.63636C41.6534 7.5625 41.7926 6.57528 42.071 5.67472C42.3523 4.77131 42.7528 3.94034 43.2727 3.18182H44.1591C43.9545 3.46307 43.7628 3.80966 43.5838 4.22159C43.4077 4.63068 43.2528 5.08097 43.1193 5.57244C42.9858 6.06108 42.8807 6.56676 42.804 7.08949C42.7301 7.61222 42.6932 8.12784 42.6932 8.63636C42.6932 9.3125 42.7585 9.99858 42.8892 10.6946C43.0199 11.3906 43.196 12.0369 43.4176 12.6335C43.6392 13.2301 43.8864 13.7159 44.1591 14.0909H43.2727C42.7528 13.3324 42.3523 12.5028 42.071 11.6023C41.7926 10.6989 41.6534 9.71023 41.6534 8.63636ZM50.0749 11.3636V10.9034C50.0749 10.5852 50.1403 10.294 50.271 10.0298C50.4045 9.76278 50.5977 9.54972 50.8505 9.39062C51.1062 9.22869 51.4158 9.14773 51.7795 9.14773C52.1488 9.14773 52.4585 9.22869 52.7085 9.39062C52.9585 9.54972 53.1474 9.76278 53.2752 10.0298C53.4031 10.294 53.467 10.5852 53.467 10.9034V11.3636C53.467 11.6818 53.4016 11.9744 53.271 12.2415C53.1431 12.5057 52.9528 12.7187 52.6999 12.8807C52.4499 13.0398 52.1431 13.1193 51.7795 13.1193C51.4102 13.1193 51.0991 13.0398 50.8462 12.8807C50.5934 12.7187 50.4016 12.5057 50.271 12.2415C50.1403 11.9744 50.0749 11.6818 50.0749 11.3636ZM50.9442 10.9034V11.3636C50.9442 11.6278 51.0067 11.8651 51.1317 12.0753C51.2567 12.2827 51.4727 12.3864 51.7795 12.3864C52.0778 12.3864 52.288 12.2827 52.4102 12.0753C52.5352 11.8651 52.5977 11.6278 52.5977 11.3636V10.9034C52.5977 10.6392 52.538 10.4034 52.4187 10.196C52.2994 9.9858 52.0863 9.88068 51.7795 9.88068C51.4812 9.88068 51.2667 9.9858 51.136 10.196C51.0082 10.4034 50.9442 10.6392 50.9442 10.9034ZM45.7283 6.36932V5.90909C45.7283 5.59091 45.7937 5.29972 45.9244 5.03551C46.0579 4.76847 46.2511 4.5554 46.5039 4.39631C46.7596 4.23437 47.0692 4.15341 47.4329 4.15341C47.8022 4.15341 48.1119 4.23437 48.3619 4.39631C48.6119 4.5554 48.8008 4.76847 48.9286 5.03551C49.0565 5.29972 49.1204 5.59091 49.1204 5.90909V6.36932C49.1204 6.6875 49.055 6.98011 48.9244 7.24716C48.7965 7.51136 48.6062 7.72443 48.3533 7.88636C48.1033 8.04545 47.7965 8.125 47.4329 8.125C47.0636 8.125 46.7525 8.04545 46.4996 7.88636C46.2468 7.72443 46.055 7.51136 45.9244 7.24716C45.7937 6.98011 45.7283 6.6875 45.7283 6.36932ZM46.5977 5.90909V6.36932C46.5977 6.63352 46.6602 6.87074 46.7852 7.08097C46.9102 7.28835 47.1261 7.39205 47.4329 7.39205C47.7312 7.39205 47.9414 7.28835 48.0636 7.08097C48.1886 6.87074 48.2511 6.63352 48.2511 6.36932V5.90909C48.2511 5.64489 48.1914 5.40909 48.0721 5.2017C47.9528 4.99148 47.7397 4.88636 47.4329 4.88636C47.1346 4.88636 46.9201 4.99148 46.7894 5.2017C46.6616 5.40909 46.5977 5.64489 46.5977 5.90909ZM46.0522 13L52.0522 4.27273H53.0238L47.0238 13H46.0522ZM57.5408 8.63636C57.5408 9.71023 57.4002 10.6989 57.119 11.6023C56.8406 12.5028 56.4414 13.3324 55.9215 14.0909H55.0352C55.2397 13.8097 55.43 13.4631 55.6062 13.0511C55.7852 12.642 55.9414 12.1932 56.0749 11.7045C56.2085 11.2131 56.3121 10.706 56.386 10.1832C56.4627 9.65767 56.5011 9.14205 56.5011 8.63636C56.5011 7.96023 56.4357 7.27415 56.305 6.57812C56.1744 5.8821 55.9982 5.2358 55.7766 4.6392C55.555 4.04261 55.3079 3.55682 55.0352 3.18182H55.9215C56.4414 3.94034 56.8406 4.77131 57.119 5.67472C57.4002 6.57528 57.5408 7.5625 57.5408 8.63636Z" fill="black"/>
<path d="M30.4869 69.0795C30.1535 69.0795 29.8533 69.0133 29.5863 68.8807C29.3192 68.7481 29.1052 68.5663 28.9442 68.3352C28.7833 68.1042 28.6952 67.8409 28.68 67.5455H29.3619C29.3884 67.8087 29.5077 68.0265 29.7198 68.1989C29.9338 68.3693 30.1895 68.4545 30.4869 68.4545C30.7255 68.4545 30.9376 68.3987 31.1232 68.2869C31.3107 68.1752 31.4575 68.0218 31.5636 67.8267C31.6715 67.6297 31.7255 67.4072 31.7255 67.1591C31.7255 66.9053 31.6696 66.679 31.5579 66.4801C31.448 66.2794 31.2965 66.1212 31.1033 66.0057C30.9102 65.8902 30.6895 65.8314 30.4414 65.8295C30.2634 65.8277 30.0806 65.8551 29.8931 65.9119C29.7056 65.9669 29.5513 66.0379 29.43 66.125L28.771 66.0455L29.1232 63.1818H32.146V63.8068H29.7141L29.5096 65.5227H29.5437C29.663 65.428 29.8126 65.3494 29.9925 65.2869C30.1725 65.2244 30.36 65.1932 30.555 65.1932C30.9111 65.1932 31.2283 65.2784 31.5067 65.4489C31.7871 65.6174 32.0067 65.8485 32.1658 66.142C32.3268 66.4356 32.4073 66.7708 32.4073 67.1477C32.4073 67.5189 32.324 67.8504 32.1573 68.142C31.9925 68.4318 31.7653 68.661 31.4755 68.8295C31.1857 68.9962 30.8562 69.0795 30.4869 69.0795ZM35.4336 69.0795C35.0056 69.0795 34.641 68.9631 34.3398 68.7301C34.0387 68.4953 33.8086 68.1553 33.6495 67.7102C33.4904 67.2633 33.4109 66.7235 33.4109 66.0909C33.4109 65.4621 33.4904 64.9252 33.6495 64.4801C33.8105 64.0331 34.0415 63.6922 34.3427 63.4574C34.6457 63.2206 35.0094 63.1023 35.4336 63.1023C35.8578 63.1023 36.2205 63.2206 36.5217 63.4574C36.8247 63.6922 37.0558 64.0331 37.2148 64.4801C37.3758 64.9252 37.4563 65.4621 37.4563 66.0909C37.4563 66.7235 37.3768 67.2633 37.2177 67.7102C37.0586 68.1553 36.8285 68.4953 36.5273 68.7301C36.2262 68.9631 35.8616 69.0795 35.4336 69.0795ZM35.4336 68.4545C35.8578 68.4545 36.1874 68.25 36.4222 67.8409C36.6571 67.4318 36.7745 66.8485 36.7745 66.0909C36.7745 65.5871 36.7205 65.1581 36.6126 64.804C36.5065 64.4498 36.3531 64.1799 36.1523 63.9943C35.9535 63.8087 35.7139 63.7159 35.4336 63.7159C35.0131 63.7159 34.6845 63.9233 34.4478 64.3381C34.2111 64.7509 34.0927 65.3352 34.0927 66.0909C34.0927 66.5947 34.1457 67.0227 34.2518 67.375C34.3578 67.7273 34.5103 67.9953 34.7092 68.179C34.9099 68.3627 35.1514 68.4545 35.4336 68.4545Z" fill="#282828"/>
<path d="M30.538 49.0795C30.2994 49.0758 30.0607 49.0303 29.8221 48.9432C29.5835 48.8561 29.3656 48.7093 29.1687 48.5028C28.9717 48.2945 28.8136 48.0133 28.6942 47.6591C28.5749 47.303 28.5153 46.8561 28.5153 46.3182C28.5153 45.803 28.5636 45.3466 28.6602 44.9489C28.7567 44.5492 28.8969 44.2131 29.0806 43.9403C29.2643 43.6657 29.4859 43.4574 29.7454 43.3153C30.0067 43.1733 30.3013 43.1023 30.6289 43.1023C30.9547 43.1023 31.2444 43.1676 31.4982 43.2983C31.7539 43.4271 31.9622 43.607 32.1232 43.8381C32.2842 44.0691 32.3884 44.3352 32.4357 44.6364H31.7425C31.6781 44.375 31.5531 44.1581 31.3675 43.9858C31.1819 43.8134 30.9357 43.7273 30.6289 43.7273C30.1781 43.7273 29.823 43.9233 29.5636 44.3153C29.306 44.7074 29.1763 45.2576 29.1744 45.9659H29.2198C29.3259 45.8049 29.4518 45.6676 29.5977 45.554C29.7454 45.4384 29.9083 45.3494 30.0863 45.2869C30.2643 45.2244 30.4528 45.1932 30.6516 45.1932C30.985 45.1932 31.2899 45.2765 31.5664 45.4432C31.8429 45.608 32.0645 45.8362 32.2312 46.1278C32.3978 46.4176 32.4812 46.75 32.4812 47.125C32.4812 47.4848 32.4007 47.8144 32.2397 48.1136C32.0787 48.411 31.8524 48.6477 31.5607 48.8239C31.271 48.9981 30.93 49.0833 30.538 49.0795ZM30.538 48.4545C30.7766 48.4545 30.9906 48.3949 31.18 48.2756C31.3713 48.1562 31.5219 47.9962 31.6317 47.7955C31.7435 47.5947 31.7994 47.3712 31.7994 47.125C31.7994 46.8845 31.7454 46.6657 31.6374 46.4688C31.5314 46.2699 31.3846 46.1117 31.1971 45.9943C31.0115 45.8769 30.7994 45.8182 30.5607 45.8182C30.3808 45.8182 30.2132 45.8542 30.0579 45.9261C29.9026 45.9962 29.7662 46.0928 29.6488 46.2159C29.5333 46.339 29.4424 46.4801 29.3761 46.6392C29.3098 46.7964 29.2766 46.9621 29.2766 47.1364C29.2766 47.3674 29.3306 47.5833 29.4386 47.7841C29.5484 47.9848 29.698 48.1468 29.8874 48.2699C30.0787 48.393 30.2956 48.4545 30.538 48.4545ZM35.4961 49.0795C35.0681 49.0795 34.7035 48.9631 34.4023 48.7301C34.1012 48.4953 33.8711 48.1553 33.712 47.7102C33.5529 47.2633 33.4734 46.7235 33.4734 46.0909C33.4734 45.4621 33.5529 44.9252 33.712 44.4801C33.873 44.0331 34.104 43.6922 34.4052 43.4574C34.7082 43.2206 35.0719 43.1023 35.4961 43.1023C35.9203 43.1023 36.283 43.2206 36.5842 43.4574C36.8872 43.6922 37.1183 44.0331 37.2773 44.4801C37.4383 44.9252 37.5188 45.4621 37.5188 46.0909C37.5188 46.7235 37.4393 47.2633 37.2802 47.7102C37.1211 48.1553 36.891 48.4953 36.5898 48.7301C36.2887 48.9631 35.9241 49.0795 35.4961 49.0795ZM35.4961 48.4545C35.9203 48.4545 36.2499 48.25 36.4847 47.8409C36.7196 47.4318 36.837 46.8485 36.837 46.0909C36.837 45.5871 36.783 45.1581 36.6751 44.804C36.569 44.4498 36.4156 44.1799 36.2148 43.9943C36.016 43.8087 35.7764 43.7159 35.4961 43.7159C35.0756 43.7159 34.747 43.9233 34.5103 44.3381C34.2736 44.7509 34.1552 45.3352 34.1552 46.0909C34.1552 46.5947 34.2082 47.0227 34.3143 47.375C34.4203 47.7273 34.5728 47.9953 34.7717 48.179C34.9724 48.3627 35.2139 48.4545 35.4961 48.4545Z" fill="#282828"/>
<path d="M29.0614 29L31.6637 23.8523V23.8068H28.6637V23.1818H32.391V23.8409L29.8001 29H29.0614ZM35.2227 29.0795C34.7946 29.0795 34.43 28.9631 34.1289 28.7301C33.8278 28.4953 33.5977 28.1553 33.4386 27.7102C33.2795 27.2633 33.1999 26.7235 33.1999 26.0909C33.1999 25.4621 33.2795 24.9252 33.4386 24.4801C33.5996 24.0331 33.8306 23.6922 34.1317 23.4574C34.4348 23.2206 34.7984 23.1023 35.2227 23.1023C35.6469 23.1023 36.0096 23.2206 36.3107 23.4574C36.6138 23.6922 36.8448 24.0331 37.0039 24.4801C37.1649 24.9252 37.2454 25.4621 37.2454 26.0909C37.2454 26.7235 37.1658 27.2633 37.0067 27.7102C36.8477 28.1553 36.6175 28.4953 36.3164 28.7301C36.0153 28.9631 35.6507 29.0795 35.2227 29.0795ZM35.2227 28.4545C35.6469 28.4545 35.9764 28.25 36.2113 27.8409C36.4461 27.4318 36.5636 26.8485 36.5636 26.0909C36.5636 25.5871 36.5096 25.1581 36.4016 24.804C36.2956 24.4498 36.1422 24.1799 35.9414 23.9943C35.7425 23.8087 35.503 23.7159 35.2227 23.7159C34.8022 23.7159 34.4736 23.9233 34.2369 24.3381C34.0001 24.7509 33.8817 25.3352 33.8817 26.0909C33.8817 26.5947 33.9348 27.0227 34.0408 27.375C34.1469 27.7273 34.2994 27.9953 34.4982 28.179C34.699 28.3627 34.9405 28.4545 35.2227 28.4545Z" fill="#282828"/>
<path d="M28.3995 87.8068V87.2273L30.9563 83.1818H31.3768V84.0795H31.0927L29.1609 87.1364V87.1818H32.604V87.8068H28.3995ZM31.1381 89V87.6307V87.3608V83.1818H31.8086V89H31.1381ZM35.5664 89.0795C35.1384 89.0795 34.7738 88.9631 34.4727 88.7301C34.1715 88.4953 33.9414 88.1553 33.7823 87.7102C33.6232 87.2633 33.5437 86.7235 33.5437 86.0909C33.5437 85.4621 33.6232 84.9252 33.7823 84.4801C33.9433 84.0331 34.1744 83.6922 34.4755 83.4574C34.7785 83.2206 35.1422 83.1023 35.5664 83.1023C35.9906 83.1023 36.3533 83.2206 36.6545 83.4574C36.9575 83.6922 37.1886 84.0331 37.3477 84.4801C37.5086 84.9252 37.5891 85.4621 37.5891 86.0909C37.5891 86.7235 37.5096 87.2633 37.3505 87.7102C37.1914 88.1553 36.9613 88.4953 36.6602 88.7301C36.359 88.9631 35.9944 89.0795 35.5664 89.0795ZM35.5664 88.4545C35.9906 88.4545 36.3202 88.25 36.555 87.8409C36.7899 87.4318 36.9073 86.8485 36.9073 86.0909C36.9073 85.5871 36.8533 85.1581 36.7454 84.804C36.6393 84.4498 36.4859 84.1799 36.2852 83.9943C36.0863 83.8087 35.8467 83.7159 35.5664 83.7159C35.146 83.7159 34.8174 83.9233 34.5806 84.3381C34.3439 84.7509 34.2255 85.3352 34.2255 86.0909C34.2255 86.5947 34.2785 87.0227 34.3846 87.375C34.4906 87.7273 34.6431 87.9953 34.842 88.179C35.0427 88.3627 35.2842 88.4545 35.5664 88.4545Z" fill="#282828"/>
<path d="M30.5213 109.08C30.1463 109.08 29.812 109.015 29.5185 108.886C29.2268 108.758 28.9948 108.579 28.8224 108.349C28.652 108.118 28.5592 107.85 28.544 107.545H29.2599C29.2751 107.733 29.3395 107.895 29.4531 108.031C29.5668 108.166 29.7154 108.27 29.8991 108.344C30.0829 108.418 30.2865 108.455 30.5099 108.455C30.7599 108.455 30.9815 108.411 31.1747 108.324C31.3679 108.237 31.5194 108.116 31.6293 107.96C31.7391 107.805 31.794 107.625 31.794 107.42C31.794 107.206 31.741 107.018 31.6349 106.855C31.5289 106.69 31.3736 106.562 31.169 106.469C30.9645 106.376 30.7145 106.33 30.419 106.33H29.9531V105.705H30.419C30.6501 105.705 30.8527 105.663 31.027 105.58C31.2031 105.496 31.3404 105.379 31.4389 105.227C31.5393 105.076 31.5895 104.898 31.5895 104.693C31.5895 104.496 31.5459 104.325 31.4588 104.179C31.3717 104.033 31.2486 103.92 31.0895 103.838C30.9323 103.757 30.7467 103.716 30.5327 103.716C30.3319 103.716 30.1425 103.753 29.9645 103.827C29.7884 103.899 29.6444 104.004 29.5327 104.142C29.4209 104.278 29.3603 104.443 29.3509 104.636H28.669C28.6804 104.331 28.7723 104.064 28.9446 103.835C29.117 103.604 29.3423 103.424 29.6207 103.295C29.901 103.167 30.2088 103.102 30.544 103.102C30.9039 103.102 31.2126 103.175 31.4702 103.321C31.7277 103.465 31.9257 103.655 32.0639 103.892C32.2022 104.129 32.2713 104.384 32.2713 104.659C32.2713 104.987 32.1851 105.266 32.0128 105.497C31.8423 105.728 31.6103 105.888 31.3168 105.977V106.023C31.6842 106.083 31.9711 106.24 32.1776 106.491C32.384 106.741 32.4872 107.051 32.4872 107.42C32.4872 107.737 32.401 108.021 32.2287 108.273C32.0582 108.523 31.8253 108.72 31.5298 108.864C31.2344 109.008 30.8982 109.08 30.5213 109.08ZM35.5469 109.08C35.1188 109.08 34.7543 108.963 34.4531 108.73C34.152 108.495 33.9219 108.155 33.7628 107.71C33.6037 107.263 33.5241 106.723 33.5241 106.091C33.5241 105.462 33.6037 104.925 33.7628 104.48C33.9238 104.033 34.1548 103.692 34.456 103.457C34.759 103.221 35.1226 103.102 35.5469 103.102C35.9711 103.102 36.3338 103.221 36.6349 103.457C36.938 103.692 37.169 104.033 37.3281 104.48C37.4891 104.925 37.5696 105.462 37.5696 106.091C37.5696 106.723 37.4901 107.263 37.331 107.71C37.1719 108.155 36.9418 108.495 36.6406 108.73C36.3395 108.963 35.9749 109.08 35.5469 109.08ZM35.5469 108.455C35.9711 108.455 36.3007 108.25 36.5355 107.841C36.7704 107.432 36.8878 106.848 36.8878 106.091C36.8878 105.587 36.8338 105.158 36.7259 104.804C36.6198 104.45 36.4664 104.18 36.2656 103.994C36.0668 103.809 35.8272 103.716 35.5469 103.716C35.1264 103.716 34.7978 103.923 34.5611 104.338C34.3243 104.751 34.206 105.335 34.206 106.091C34.206 106.595 34.259 107.023 34.3651 107.375C34.4711 107.727 34.6236 107.995 34.8224 108.179C35.0232 108.363 35.2647 108.455 35.5469 108.455Z" fill="#282828"/>
<path d="M33 129.08C32.572 129.08 32.2074 128.963 31.9062 128.73C31.6051 128.495 31.375 128.155 31.2159 127.71C31.0568 127.263 30.9773 126.723 30.9773 126.091C30.9773 125.462 31.0568 124.925 31.2159 124.48C31.3769 124.033 31.608 123.692 31.9091 123.457C32.2121 123.221 32.5758 123.102 33 123.102C33.4242 123.102 33.7869 123.221 34.0881 123.457C34.3911 123.692 34.6222 124.033 34.7812 124.48C34.9422 124.925 35.0227 125.462 35.0227 126.091C35.0227 126.723 34.9432 127.263 34.7841 127.71C34.625 128.155 34.3949 128.495 34.0938 128.73C33.7926 128.963 33.428 129.08 33 129.08ZM33 128.455C33.4242 128.455 33.7538 128.25 33.9886 127.841C34.2235 127.432 34.3409 126.848 34.3409 126.091C34.3409 125.587 34.2869 125.158 34.179 124.804C34.0729 124.45 33.9195 124.18 33.7188 123.994C33.5199 123.809 33.2803 123.716 33 123.716C32.5795 123.716 32.2509 123.923 32.0142 124.338C31.7775 124.751 31.6591 125.335 31.6591 126.091C31.6591 126.595 31.7121 127.023 31.8182 127.375C31.9242 127.727 32.0767 127.995 32.2756 128.179C32.4763 128.363 32.7178 128.455 33 128.455Z" fill="#282828"/>
</svg>
