<svg width="274" height="75" viewBox="0 0 274 75" fill="none" xmlns="http://www.w3.org/2000/svg">
<path d="M14.25 37.306C14.0727 36.242 13.6547 35.0007 12.996 33.582C13.7307 33.6327 14.7187 33.6453 15.96 33.62C16.1373 33.62 16.2513 33.62 16.302 33.62C16.7073 33.62 16.91 33.4553 16.91 33.126V28.376H11.438H5.966V25.678C5.30733 25.9567 4.53467 26.2733 3.648 26.628C3.09067 25.4627 2.36867 24.4367 1.482 23.55C3.66067 22.866 5.72533 21.8907 7.676 20.624C6.96667 19.9653 6.05467 19.2053 4.94 18.344C4.788 18.4453 4.56 18.61 4.256 18.838C4.12933 18.8887 4.04067 18.9393 3.99 18.99C3.23 17.8247 2.394 16.9633 1.482 16.406C4.62333 14.5567 6.97933 12.15 8.55 9.186L10.602 9.528V7.894H6.498C5.25667 7.894 3.90133 7.95733 2.432 8.084C2.356 7.98266 2.318 7.286 2.318 5.994C2.318 4.702 2.356 4.00533 2.432 3.904C3.52133 4.03066 4.87667 4.094 6.498 4.094H10.602V2.954C10.602 2.67533 10.5767 2.25733 10.526 1.7C11.514 1.64933 12.5273 1.662 13.566 1.738C14.8073 1.83933 15.428 2.004 15.428 2.232C15.124 2.536 14.972 2.84 14.972 3.144V4.094H22.914V2.954C22.914 2.67533 22.8887 2.25733 22.838 1.7C23.8513 1.64933 24.8773 1.662 25.916 1.738C27.1827 1.83933 27.816 2.004 27.816 2.232C27.512 2.536 27.36 2.84 27.36 3.144V4.094H31.502C32.718 4.094 34.086 4.03066 35.606 3.904C35.682 4.00533 35.72 4.702 35.72 5.994C35.72 7.286 35.682 7.98266 35.606 8.084C34.466 7.95733 33.098 7.894 31.502 7.894H27.36V8.958C27.36 9.338 27.3853 9.68 27.436 9.984C27.4107 10.0853 26.6507 10.136 25.156 10.136C23.6613 10.136 22.8887 10.0853 22.838 9.984C22.8887 9.68 22.914 9.338 22.914 8.958V7.894H14.972V9.984H12.198C12.1473 10.0853 12.046 10.2627 11.894 10.516C11.7673 10.744 11.666 10.9213 11.59 11.048H15.922L16.568 10.896L19.038 12.112C18.0753 14.8227 16.5173 17.356 14.364 19.712H23.864C21.736 17.204 20.064 14.164 18.848 10.592L22.572 9.718C23.1293 11.314 23.8007 12.72 24.586 13.936V11.276H31.73L32.452 11.048L34.922 12.872C33.3767 15.2787 31.6667 17.4447 29.792 19.37C31.844 20.738 34.1493 21.7387 36.708 22.372C35.6693 23.3093 34.77 24.576 34.01 26.172C33.6553 26.0707 33.1487 25.8933 32.49 25.64C32.3633 25.5893 32.262 25.5513 32.186 25.526V28.376H27.018C30.59 30.7067 33.1107 32.6193 34.58 34.114L31.122 36.66C30.362 35.824 29.2473 34.8107 27.778 33.62C26.3087 32.4547 24.9153 31.4287 23.598 30.542L26.676 28.376H21.09V33.278C21.09 34.266 20.9887 35.0007 20.786 35.482C20.558 36.014 20.1273 36.432 19.494 36.736C18.886 36.9893 18.126 37.154 17.214 37.23C16.6313 37.2807 15.6433 37.306 14.25 37.306ZM5.89 36.812C4.92733 35.6973 3.838 34.6587 2.622 33.696C4.16733 33.088 5.61133 32.3407 6.954 31.454C8.34733 30.4913 9.43667 29.516 10.222 28.528C11.286 28.908 12.2487 29.364 13.11 29.896C13.9967 30.428 14.3513 30.7953 14.174 30.998C14.0473 31.15 13.87 31.2513 13.642 31.302C13.2873 31.3527 12.9453 31.568 12.616 31.948C11.9827 32.5813 11.286 33.202 10.526 33.81C9.10733 34.9753 7.562 35.976 5.89 36.812ZM7.372 24.956H19.114H30.856C29.032 24.12 27.284 22.9673 25.612 21.498V23.018H12.502V21.498C10.83 22.8913 9.12 24.044 7.372 24.956ZM10.032 18.838C10.1587 18.7113 10.336 18.534 10.564 18.306C10.8173 18.078 11.0073 17.9133 11.134 17.812C10.8807 17.5587 10.4247 17.1787 9.766 16.672C9.05667 16.1653 8.52467 15.798 8.17 15.57C7.942 15.798 7.57467 16.14 7.068 16.596C8.23333 17.3053 9.22133 18.0527 10.032 18.838ZM27.208 17.204C28.0693 16.2413 28.804 15.304 29.412 14.392H24.89C25.346 15.0507 25.7007 15.5447 25.954 15.874C26.5113 16.482 26.9293 16.9253 27.208 17.204ZM12.882 15.798C13.338 15.19 13.794 14.5187 14.25 13.784H9.918C10.2473 13.9867 10.7667 14.316 11.476 14.772C12.1093 15.1773 12.578 15.5193 12.882 15.798ZM42.218 37.382C41.9647 36.85 41.572 36.2167 41.04 35.482C40.4573 34.6713 39.9253 34.0253 39.444 33.544C46.588 32.2267 51.1353 30.0607 53.086 27.046H46.664C44.8907 27.046 42.7627 27.1347 40.28 27.312C40.204 27.1853 40.166 26.4 40.166 24.956C40.166 23.512 40.204 22.7773 40.28 22.752C40.8373 22.8027 41.4327 22.828 42.066 22.828H43.852V18.458C43.852 16.7607 43.7887 15.3167 43.662 14.126C43.662 13.974 43.7253 13.898 43.852 13.898C45.1947 14.05 46.968 14.126 49.172 14.126H54.53V12.226C54.53 11.6687 54.5047 10.9847 54.454 10.174C55.518 10.1233 56.62 10.136 57.76 10.212C59.128 10.3133 59.812 10.478 59.812 10.706C59.4067 11.2633 59.204 11.8333 59.204 12.416V14.126H64.79C67.146 14.126 69.008 14.05 70.376 13.898C70.5027 13.898 70.566 13.974 70.566 14.126C70.4393 15.3167 70.376 16.7607 70.376 18.458V22.828H72.048C72.428 22.828 72.9727 22.8027 73.682 22.752C73.758 22.7773 73.796 23.512 73.796 24.956C73.796 26.3747 73.758 27.122 73.682 27.198C72.618 27.0967 71.5413 27.046 70.452 27.046H67.184H60.724C63.5107 30.466 68.1593 32.518 74.67 33.202C73.5553 34.342 72.6307 35.7353 71.896 37.382C68.4253 36.8247 65.512 35.862 63.156 34.494C60.8 33.1513 58.8367 31.34 57.266 29.06C54.8593 32.9107 49.8433 35.6847 42.218 37.382ZM48.146 22.828H54.454C54.5047 22.524 54.53 22.068 54.53 21.46V18.04H51.338H48.146V22.828ZM59.166 22.828H62.51H65.854V18.04H59.204V21.536C59.204 22.1187 59.1913 22.5493 59.166 22.828ZM50.122 12.34C48.6527 12.34 47.8927 12.2893 47.842 12.188C47.8927 11.6307 47.918 11.0733 47.918 10.516V8.806H44.27C43.434 8.806 42.2307 8.85666 40.66 8.958C40.584 8.882 40.546 8.16 40.546 6.792C40.546 5.39867 40.584 4.664 40.66 4.588C41.8253 4.68933 43.0287 4.74 44.27 4.74H47.918V3.296C47.918 2.89066 47.8927 2.35866 47.842 1.7C48.8553 1.64933 49.894 1.662 50.958 1.738C52.2753 1.83933 52.934 2.004 52.934 2.232C52.5287 2.63733 52.326 3.05533 52.326 3.486V4.74H61.522V3.296C61.522 2.89066 61.4967 2.35866 61.446 1.7C62.4593 1.64933 63.498 1.662 64.562 1.738C65.8793 1.83933 66.538 2.004 66.538 2.232C66.1327 2.63733 65.93 3.05533 65.93 3.486V4.74H69.616C70.4267 4.74 71.6427 4.68933 73.264 4.588C73.34 4.664 73.378 5.39867 73.378 6.792C73.378 8.16 73.34 8.882 73.264 8.958C72.048 8.85666 70.832 8.806 69.616 8.806H65.93V10.516C65.93 11.0733 65.9553 11.6307 66.006 12.188C65.9807 12.2893 65.2207 12.34 63.726 12.34C62.2567 12.34 61.4967 12.2893 61.446 12.188C61.4967 11.6307 61.522 11.0733 61.522 10.516V8.806H56.924H52.326V10.516C52.326 11.0733 52.3513 11.6307 52.402 12.188C52.3767 12.2893 51.6167 12.34 50.122 12.34ZM80.256 37.42C80.0027 36.8373 79.5847 36.09 79.002 35.178C78.4193 34.2913 77.9 33.5693 77.444 33.012C83.0427 31.5173 87.6913 29.326 91.39 26.438C88.1727 22.6633 85.5253 17.926 83.448 12.226H80.788C79.9013 12.226 79.0147 12.264 78.128 12.34C78.052 12.2893 78.014 11.5167 78.014 10.022C78.014 8.502 78.052 7.666 78.128 7.514C80.0787 7.71667 82.5107 7.818 85.424 7.818H92.72V4.816C92.72 3.87866 92.6693 2.82733 92.568 1.662C93.632 1.61133 94.7467 1.624 95.912 1.7C97.3053 1.80133 98.002 1.966 98.002 2.194C97.4953 3.106 97.242 4.04333 97.242 5.006V7.818H104.614H108.338C109.174 7.818 110.403 7.76733 112.024 7.666C112.1 7.742 112.138 8.52733 112.138 10.022C112.138 11.5167 112.1 12.2893 112.024 12.34C111.391 12.264 110.504 12.226 109.364 12.226H106.666C104.69 17.7233 101.967 22.3973 98.496 26.248C102.448 29.3387 107.185 31.5173 112.708 32.784C111.568 33.924 110.504 35.4313 109.516 37.306C103.715 35.8113 98.8 33.316 94.772 29.82C90.7947 33.0373 85.956 35.5707 80.256 37.42ZM95.038 23.056C97.6473 20.1933 99.788 16.5833 101.46 12.226H94.924H88.426C89.9967 16.406 92.2007 20.016 95.038 23.056Z" fill="#2C5E39"/>
<path d="M122.512 37.458C121.043 37.458 120.219 37.3947 120.042 37.268C120.27 35.3427 120.384 32.7207 120.384 29.402V21.498C119.016 22.866 117.901 23.892 117.04 24.576C116.863 24.044 116.546 23.284 116.09 22.296C115.609 21.232 115.216 20.434 114.912 19.902C116.635 18.6607 118.294 17.204 119.89 15.532C121.613 13.7333 122.993 11.9347 124.032 10.136C125.045 10.592 125.983 11.124 126.844 11.732C127.731 12.34 128.111 12.758 127.984 12.986C127.883 13.1633 127.705 13.29 127.452 13.366C127.047 13.4927 126.705 13.784 126.426 14.24C125.666 15.304 125.071 16.102 124.64 16.634V26.97V32.138C124.64 34.3167 124.716 36.0267 124.868 37.268C124.767 37.3947 123.981 37.458 122.512 37.458ZM137.218 37.268C137.041 36.0773 136.572 34.7347 135.812 33.24C136.876 33.2907 138.143 33.316 139.612 33.316C140.068 33.2907 140.296 33.088 140.296 32.708V27.426H132.468C134.469 29.3767 135.888 30.96 136.724 32.176L133.418 34.57C132.582 33.126 131.151 31.3653 129.124 29.288L131.898 27.426H129.276C128.415 27.426 127.541 27.464 126.654 27.54C126.578 27.4893 126.54 26.8053 126.54 25.488C126.54 24.1707 126.578 23.436 126.654 23.284C128.427 23.4867 130.695 23.588 133.456 23.588H140.296V21.422H133.912C132.113 21.422 129.998 21.5107 127.566 21.688C127.49 21.5613 127.452 20.8647 127.452 19.598C127.452 18.306 127.49 17.6093 127.566 17.508C128.909 17.66 130.695 17.736 132.924 17.736H138.32H143.716C145.54 17.736 147.339 17.66 149.112 17.508C149.188 17.6093 149.226 18.2933 149.226 19.56C149.226 20.8267 149.188 21.4853 149.112 21.536C148.58 21.46 147.871 21.422 146.984 21.422H144.818V23.588H149.872L149.91 27.426H144.818V32.822C144.818 33.9113 144.691 34.722 144.438 35.254C144.185 35.862 143.703 36.318 142.994 36.622C142.361 36.9007 141.537 37.0907 140.524 37.192C139.891 37.2427 138.789 37.268 137.218 37.268ZM147.896 16.444C145.363 16.1907 142.297 16.064 138.7 16.064H129.466V9.49C129.466 7.00733 129.377 4.816 129.2 2.916C129.2 2.78933 129.289 2.726 129.466 2.726C130.733 2.85267 132.265 2.916 134.064 2.916H138.662H147.896V9.49C147.896 11.9727 147.985 14.164 148.162 16.064C148.162 16.3173 148.073 16.444 147.896 16.444ZM117.496 13.138C117.065 12.0487 116.343 10.7693 115.33 9.3C116.799 8.36267 118.256 7.21 119.7 5.842C121.169 4.42333 122.284 3.09333 123.044 1.852C124.108 2.308 125.096 2.86533 126.008 3.524C126.92 4.18267 127.287 4.63867 127.11 4.892C126.958 5.06933 126.755 5.196 126.502 5.272C126.046 5.37333 125.615 5.69 125.21 6.222C124.526 7.00733 123.715 7.86866 122.778 8.806C121.081 10.4527 119.32 11.8967 117.496 13.138ZM133.76 12.91H138.586H143.412V10.934H133.76V12.91ZM133.76 7.97H138.586H143.412V6.07H133.76V7.97ZM165.87 37.344C165.718 36.2547 165.262 34.912 164.502 33.316C166.123 33.392 167.339 33.4047 168.15 33.354C168.555 33.354 168.758 33.1767 168.758 32.822V28.072H161.5C159.245 28.072 156.839 28.1733 154.28 28.376C154.204 28.224 154.166 27.54 154.166 26.324C154.166 25.0827 154.204 24.3733 154.28 24.196C156.383 24.424 159.169 24.538 162.64 24.538H171.038H179.436C182.273 24.538 185.073 24.424 187.834 24.196C187.91 24.3733 187.948 25.0827 187.948 26.324C187.948 27.54 187.91 28.224 187.834 28.376C185.883 28.1733 183.451 28.072 180.538 28.072H173.242V32.974C173.242 34.038 173.128 34.8233 172.9 35.33C172.647 35.9127 172.178 36.356 171.494 36.66C170.861 36.964 170.05 37.154 169.062 37.23C168.378 37.306 167.314 37.344 165.87 37.344ZM157.282 37.154C156.167 35.862 155.078 34.8487 154.014 34.114C155.483 33.43 156.889 32.5813 158.232 31.568C159.625 30.5293 160.753 29.4653 161.614 28.376C162.627 28.7307 163.565 29.1993 164.426 29.782C165.313 30.3393 165.667 30.7193 165.49 30.922C165.363 31.074 165.186 31.1753 164.958 31.226C164.578 31.2767 164.223 31.5047 163.894 31.91C163.362 32.4673 162.653 33.126 161.766 33.886C160.271 35.2287 158.777 36.318 157.282 37.154ZM183.996 36.736C183.211 35.9 181.982 34.8993 180.31 33.734C178.79 32.6447 177.245 31.644 175.674 30.732L178.942 28.49C180.361 29.2247 181.906 30.1493 183.578 31.264C185.199 32.328 186.517 33.3033 187.53 34.19L183.996 36.736ZM158.726 23.36C158.65 23.132 158.612 22.4227 158.612 21.232C158.612 20.016 158.65 19.3447 158.726 19.218C160.499 19.3953 162.551 19.484 164.882 19.484H171.038H177.194C178.917 19.484 180.969 19.3953 183.35 19.218C183.426 19.3447 183.464 20.0033 183.464 21.194C183.464 22.3847 183.426 23.0433 183.35 23.17C181.45 22.9927 179.246 22.904 176.738 22.904H170.126C166.326 22.904 162.526 23.056 158.726 23.36ZM185.136 18.382C182.299 18.078 178.499 17.926 173.736 17.926H156.978V13.29C156.978 11.466 156.915 9.92066 156.788 8.654C156.788 8.52733 156.851 8.464 156.978 8.464C158.042 8.59066 159.334 8.654 160.854 8.654H164.768V6.602H159.79C158.118 6.602 156.459 6.678 154.812 6.83C154.736 6.70333 154.698 6.032 154.698 4.816C154.698 3.6 154.736 2.90333 154.812 2.726C156.839 2.954 159.524 3.068 162.868 3.068H170.924H179.018C181.729 3.068 184.414 2.954 187.074 2.726C187.15 2.90333 187.188 3.6 187.188 4.816C187.188 6.032 187.15 6.70333 187.074 6.83C185.833 6.678 184.135 6.602 181.982 6.602H176.852V8.654H185.136V13.29C185.136 15.114 185.199 16.6593 185.326 17.926C185.326 18.23 185.263 18.382 185.136 18.382ZM161.044 14.696H164.768V11.846H162.906H161.044V14.696ZM168.834 14.696H172.71V11.846H170.772H168.834V14.696ZM176.852 14.696H178.79H180.766V11.846H176.852V14.696ZM168.834 8.654H170.772H172.71V6.602H168.834V8.654ZM202.692 37.496C201.273 37.496 200.501 37.4327 200.374 37.306C200.551 35.4567 200.64 33.316 200.64 30.884V24.462H198.018V25.184C198.018 27.16 197.815 29.022 197.41 30.77C196.853 33.202 195.928 35.1147 194.636 36.508C193.775 35.7733 192.66 35.0767 191.292 34.418C193.116 32.366 194.028 29.25 194.028 25.07V24.462H192.888C192.635 24.462 192.255 24.4873 191.748 24.538C191.672 24.4873 191.634 23.7907 191.634 22.448C191.634 21.08 191.672 20.3453 191.748 20.244C192.964 20.3707 194.446 20.434 196.194 20.434H200.64V16.292H194.864V16.254H193.078V9.87C193.078 7.53933 192.989 5.36066 192.812 3.334C193.851 3.28333 194.915 3.296 196.004 3.372C197.321 3.47333 197.98 3.638 197.98 3.866C197.372 5.082 197.068 6.298 197.068 7.514V12.264H200.64V7.02C200.64 4.892 200.564 3.106 200.412 1.662C201.451 1.61133 202.54 1.624 203.68 1.7C205.048 1.80133 205.732 1.966 205.732 2.194C205.124 3.41 204.82 4.626 204.82 5.842V17.622V33.43C207.632 31.3527 209.722 28.756 211.09 25.64C212.129 23.208 212.775 20.3073 213.028 16.938H209.532C208.747 16.938 207.594 16.9887 206.074 17.09C205.998 17.014 205.96 16.216 205.96 14.696C205.96 13.176 205.998 12.378 206.074 12.302C207.239 12.4033 208.417 12.454 209.608 12.454H213.142V7.134C213.142 4.95533 213.066 3.144 212.914 1.7C213.978 1.64933 215.08 1.662 216.22 1.738C217.613 1.83933 218.31 2.004 218.31 2.232C217.702 3.448 217.398 4.664 217.398 5.88V12.454H221.882C223.225 12.454 224.719 12.3907 226.366 12.264C226.442 12.3653 226.48 13.176 226.48 14.696C226.48 16.216 226.442 17.0267 226.366 17.128C225.277 17.0013 223.921 16.938 222.3 16.938H218.234C219.146 24.7913 222.021 30.2887 226.86 33.43C225.568 34.342 224.491 35.5833 223.63 37.154C220.083 34.6713 217.487 30.7953 215.84 25.526C214.32 30.4153 211.407 34.38 207.1 37.42C206.568 36.432 205.808 35.4693 204.82 34.532V35.938C204.82 36.394 204.845 36.85 204.896 37.306C204.871 37.4327 204.136 37.496 202.692 37.496ZM222.224 11.314C221.92 10.478 221.363 9.36333 220.552 7.97C219.893 6.77933 219.133 5.58866 218.272 4.398L221.768 2.764C223.82 5.39866 225.226 7.628 225.986 9.452L222.224 11.314ZM241.376 37.344C241.123 36.7613 240.73 36.1153 240.198 35.406C239.666 34.6713 239.159 34.1013 238.678 33.696C240.73 32.8853 242.275 31.8213 243.314 30.504C244.251 29.3387 244.91 27.806 245.29 25.906C245.543 24.538 245.721 22.4607 245.822 19.674H242.668V11.58C242.668 8.18533 242.554 5.48733 242.326 3.486C242.326 3.334 242.44 3.258 242.668 3.258C243.884 3.41 245.518 3.486 247.57 3.486H252.51H257.45C259.527 3.486 261.174 3.41 262.39 3.258C262.618 3.258 262.732 3.334 262.732 3.486C262.504 5.48733 262.39 8.18533 262.39 11.58V19.674H257.412V31.492C257.412 32.1 257.45 32.4927 257.526 32.67C257.627 32.822 257.843 32.898 258.172 32.898H259.844C260.173 32.898 260.389 32.5813 260.49 31.948C260.617 31.3147 260.705 29.8453 260.756 27.54C261.541 28.1987 262.833 28.794 264.632 29.326C264.455 32.29 264.049 34.304 263.416 35.368C262.808 36.432 261.757 36.964 260.262 36.964H257.374C255.626 36.964 254.448 36.5713 253.84 35.786C253.283 35.026 253.004 33.6073 253.004 31.53V19.674H250.154C249.951 24.5887 249.369 28.1987 248.406 30.504C247.139 33.544 244.796 35.824 241.376 37.344ZM234.688 36.85L230.926 34.076C231.99 32.5813 233.219 30.7067 234.612 28.452C236.031 26.1213 237.31 23.8413 238.45 21.612C239.387 22.448 240.173 23.2333 240.806 23.968C241.566 24.88 241.87 25.488 241.718 25.792C241.591 26.02 241.389 26.21 241.11 26.362C240.679 26.59 240.299 27.0207 239.97 27.654C238.298 30.8207 236.537 33.886 234.688 36.85ZM236.702 19.636C236.069 19.0787 234.992 18.3693 233.472 17.508C232.155 16.748 230.85 16.1147 229.558 15.608L231.838 12.226C233.13 12.6567 234.46 13.2013 235.828 13.86C237.272 14.5693 238.374 15.228 239.134 15.836L236.702 19.636ZM247 15.494H257.83V7.666H252.396H247V15.494ZM238.564 9.3C237.956 8.692 236.968 7.98267 235.6 7.172C234.46 6.488 233.219 5.86733 231.876 5.31L234.308 1.928C235.549 2.40933 236.791 2.96667 238.032 3.6C239.4 4.33467 240.439 5.006 241.148 5.614L238.564 9.3Z" fill="#282828"/>
<path d="M9.36475 60.25C10.5147 59.9833 11.3981 59.5833 12.0147 59.05C12.6314 58.5167 12.9397 57.9167 12.9397 57.25C12.9397 56.45 12.6314 55.8167 12.0147 55.35C11.3981 54.8833 10.5147 54.65 9.36475 54.65C8.23141 54.65 7.36475 54.8833 6.76475 55.35C6.18141 55.8 5.88975 56.4333 5.88975 57.25C5.88975 57.95 6.18141 58.5667 6.76475 59.1C7.36475 59.6167 8.23141 60 9.36475 60.25ZM9.23975 62.375C7.92308 62.6917 6.92308 63.1667 6.23975 63.8C5.55641 64.4167 5.21475 65.1083 5.21475 65.875C5.21475 66.875 5.58141 67.6667 6.31475 68.25C7.06475 68.8167 8.08141 69.1 9.36475 69.1C10.6481 69.1 11.6397 68.8167 12.3397 68.25C13.0564 67.6667 13.4147 66.875 13.4147 65.875C13.4147 64.125 12.0231 62.9583 9.23975 62.375ZM14.3147 69.825C13.1314 70.775 11.4814 71.25 9.36475 71.25C7.24808 71.25 5.58975 70.775 4.38975 69.825C3.20641 68.875 2.61475 67.6 2.61475 66C2.61475 65.0333 2.94808 64.1417 3.61475 63.325C4.28141 62.4917 5.19808 61.85 6.36475 61.4V61.35C5.36475 60.9167 4.58975 60.325 4.03975 59.575C3.50641 58.8083 3.23975 57.95 3.23975 57C3.23975 55.65 3.78141 54.5667 4.86475 53.75C5.94808 52.9167 7.44808 52.5 9.36475 52.5C11.2814 52.5 12.7814 52.9167 13.8647 53.75C14.9481 54.5667 15.4897 55.65 15.4897 57C15.4897 58.8667 14.4481 60.2333 12.3647 61.1V61.15C14.8647 62 16.1147 63.6167 16.1147 66C16.1147 67.6 15.5147 68.875 14.3147 69.825ZM20.4118 67.25H23.9118L21.1618 73.75H18.6618L20.4118 67.25ZM33.2114 71V56H33.1614L28.4614 60.25L27.4614 58L33.2114 52.75H35.9614V71H33.2114ZM43.3335 52.75H55.3335V55C53.8168 57.4667 52.5002 59.9667 51.3835 62.5C50.2835 65.0167 49.2668 67.85 48.3335 71H45.4585C47.3252 65.1667 49.7418 59.85 52.7085 55.05V55H43.3335V52.75ZM59.8806 54.725C61.0139 53.2417 62.7056 52.5 64.9556 52.5C67.2056 52.5 68.8889 53.2417 70.0056 54.725C71.1389 56.2083 71.7056 58.5917 71.7056 61.875C71.7056 65.1583 71.1389 67.5417 70.0056 69.025C68.8889 70.5083 67.2056 71.25 64.9556 71.25C62.7056 71.25 61.0139 70.5083 59.8806 69.025C58.7639 67.5417 58.2056 65.1583 58.2056 61.875C58.2056 58.5917 58.7639 56.2083 59.8806 54.725ZM61.9306 67.425C62.5972 68.5083 63.6056 69.05 64.9556 69.05C66.3056 69.05 67.3056 68.5083 67.9556 67.425C68.6222 66.325 68.9556 64.475 68.9556 61.875C68.9556 59.275 68.6222 57.4333 67.9556 56.35C67.3056 55.25 66.3056 54.7 64.9556 54.7C63.6056 54.7 62.5972 55.25 61.9306 56.35C61.2806 57.4333 60.9556 59.275 60.9556 61.875C60.9556 64.475 61.2806 66.325 61.9306 67.425ZM76.0026 67.25H79.5026L76.7526 73.75H74.2526L76.0026 67.25ZM88.9272 52.5C90.7939 52.5 92.2356 52.9667 93.2522 53.9C94.2856 54.8167 94.8022 56.1 94.8022 57.75C94.8022 59.4167 94.2689 61.025 93.2022 62.575C92.1522 64.125 90.1022 66.1667 87.0522 68.7V68.75H94.8022V71H83.3022V68.75C86.7022 66.05 88.9939 63.9417 90.1772 62.425C91.3606 60.8917 91.9522 59.4167 91.9522 58C91.9522 55.8667 90.8189 54.8 88.5522 54.8C87.0356 54.8 85.4522 55.35 83.8022 56.45L83.0522 54.25C84.7689 53.0833 86.7272 52.5 88.9272 52.5ZM99.0493 52.75H110.299V55L104.924 60.225V60.275H105.424C107.041 60.275 108.299 60.7083 109.199 61.575C110.099 62.425 110.549 63.65 110.549 65.25C110.549 67.15 109.966 68.625 108.799 69.675C107.649 70.725 106.024 71.25 103.924 71.25C102.108 71.25 100.483 70.8333 99.0493 70L99.7993 67.75C101.316 68.5833 102.691 69 103.924 69C105.158 69 106.108 68.675 106.774 68.025C107.458 67.375 107.799 66.45 107.799 65.25C107.799 64.2333 107.433 63.4833 106.699 63C105.983 62.5 104.808 62.25 103.174 62.25H101.424V60.15L106.799 55.05V55H99.0493V52.75ZM120.296 71V56H120.246L115.546 60.25L114.546 58L120.296 52.75H123.046V71H120.296ZM139.218 53.7V55H142.618V53.7H139.218ZM133.668 61.05H131.168V55H136.618V53.7H130.043V51.5H151.793V53.7H145.218V55H150.668V61.05H133.668ZM136.618 59.125V56.875H133.668V59.125H136.618ZM142.618 59.125V56.875H139.218V59.125H142.618ZM145.218 59.125H148.168V56.875H145.218V59.125ZM131.918 64.2V62.05H150.043V64.2H131.918ZM151.793 65.25V67.45H146.793C148.66 68.55 150.402 69.7 152.018 70.9L150.643 72.85C148.56 71.3333 146.485 69.9833 144.418 68.8L145.318 67.45H142.668V70.375C142.668 71.575 142.485 72.3167 142.118 72.6C141.752 72.9 140.81 73.05 139.293 73.05C138.393 73.05 137.243 73.0083 135.843 72.925L135.743 70.825C137.027 70.9083 138.018 70.95 138.718 70.95C139.302 70.95 139.643 70.9167 139.743 70.85C139.86 70.7667 139.918 70.525 139.918 70.125V67.45H135.993L137.093 68.75C135.393 70.3833 133.393 71.7333 131.093 72.8L129.868 70.825C131.802 69.9083 133.552 68.7833 135.118 67.45H130.043V65.25H151.793ZM165.14 63.3C165.14 67.8667 166.765 71.725 170.015 74.875H167.515C165.915 73.4083 164.682 71.675 163.815 69.675C162.949 67.675 162.515 65.55 162.515 63.3C162.515 61.05 162.949 58.9333 163.815 56.95C164.682 54.95 165.915 53.2167 167.515 51.75H170.015C166.765 54.9 165.14 58.75 165.14 63.3ZM184.195 55H176.57L176.32 60H176.37C177.27 59.5 178.295 59.25 179.445 59.25C181.178 59.25 182.528 59.7417 183.495 60.725C184.461 61.7083 184.945 63.0917 184.945 64.875C184.945 66.975 184.353 68.5667 183.17 69.65C181.986 70.7167 180.245 71.25 177.945 71.25C176.228 71.25 174.645 70.875 173.195 70.125L173.82 67.875C175.303 68.625 176.678 69 177.945 69C180.778 69 182.195 67.625 182.195 64.875C182.195 62.5583 181.111 61.4 178.945 61.4C177.711 61.4 176.711 61.7667 175.945 62.5H173.57L174.07 52.75H184.195V55ZM188.817 52.75H200.817V55C199.3 57.4667 197.984 59.9667 196.867 62.5C195.767 65.0167 194.75 67.85 193.817 71H190.942C192.809 65.1667 195.225 59.85 198.192 55.05V55H188.817V52.75ZM204.864 71V67.25H208.114V71H204.864ZM218.05 71V56H218L213.3 60.25L212.3 58L218.05 52.75H220.8V71H218.05ZM228.297 52.75H239.547V55L234.172 60.225V60.275H234.672C236.289 60.275 237.547 60.7083 238.447 61.575C239.347 62.425 239.797 63.65 239.797 65.25C239.797 67.15 239.214 68.625 238.047 69.675C236.897 70.725 235.272 71.25 233.172 71.25C231.356 71.25 229.731 70.8333 228.297 70L229.047 67.75C230.564 68.5833 231.939 69 233.172 69C234.406 69 235.356 68.675 236.022 68.025C236.706 67.375 237.047 66.45 237.047 65.25C237.047 64.2333 236.681 63.4833 235.947 63C235.231 62.5 234.056 62.25 232.422 62.25H230.672V60.15L236.047 55.05V55H228.297V52.75ZM256.469 52.75H259.219L248.969 71H246.219L256.469 52.75ZM254.994 62.775C255.761 61.925 256.836 61.5 258.219 61.5C259.603 61.5 260.678 61.925 261.444 62.775C262.211 63.6083 262.594 64.8083 262.594 66.375C262.594 67.9417 262.211 69.15 261.444 70C260.678 70.8333 259.603 71.25 258.219 71.25C256.836 71.25 255.761 70.8333 254.994 70C254.228 69.15 253.844 67.9417 253.844 66.375C253.844 64.8083 254.228 63.6083 254.994 62.775ZM243.994 53.775C244.761 52.925 245.836 52.5 247.219 52.5C248.603 52.5 249.678 52.925 250.444 53.775C251.211 54.6083 251.594 55.8083 251.594 57.375C251.594 58.9417 251.211 60.15 250.444 61C249.678 61.8333 248.603 62.25 247.219 62.25C245.836 62.25 244.761 61.8333 243.994 61C243.228 60.15 242.844 58.9417 242.844 57.375C242.844 55.8083 243.228 54.6083 243.994 53.775ZM256.469 66.375C256.469 68.2917 257.053 69.25 258.219 69.25C259.386 69.25 259.969 68.2917 259.969 66.375C259.969 64.4583 259.386 63.5 258.219 63.5C257.053 63.5 256.469 64.4583 256.469 66.375ZM245.469 57.375C245.469 59.2917 246.053 60.25 247.219 60.25C248.386 60.25 248.969 59.2917 248.969 57.375C248.969 55.4583 248.386 54.5 247.219 54.5C246.053 54.5 245.469 55.4583 245.469 57.375ZM263.331 51.75H265.831C267.431 53.2167 268.664 54.95 269.531 56.95C270.397 58.9333 270.831 61.05 270.831 63.3C270.831 65.55 270.397 67.675 269.531 69.675C268.664 71.675 267.431 73.4083 265.831 74.875H263.331C266.581 71.725 268.206 67.8667 268.206 63.3C268.206 58.75 266.581 54.9 263.331 51.75Z" fill="#282828"/>
</svg>
