<svg width="522" height="746" viewBox="0 0 522 746" fill="none" xmlns="http://www.w3.org/2000/svg">
<g opacity="0.6" clip-path="url(#clip0_175_6)" filter="url(#filter0_f_175_6)">
<path d="M329.493 426.402L330.858 430.571L328.702 434.164L324.678 435.889L323.671 438.189L324.39 441.064L328.415 443.652L332.943 447.389L334.955 452.852L335.171 454.648L323.959 457.38L319.359 460.326L316.484 463.13L310.878 466.795L310.232 470.892L311.885 475.204L309.944 478.726L304.626 481.601L304.051 486.56L305.56 493.676L303.404 503.163L303.332 511.213L300.242 515.453L294.133 520.628L292.48 527.672L293.414 533.494L295.57 536.8L300.026 541.4L300.888 544.922L298.085 545.281L294.348 544.634L291.258 544.778L285.149 549.593L280.908 545.64L275.446 539.244L270.272 540.537L265.528 544.778L256.113 540.034L249.357 543.269L244.757 548.372L239.008 550.384L226.215 549.593L224.993 553.115L224.059 558.29L222.19 563.968L222.549 568.999L222.478 575.827L218.381 591.064L218.309 596.167L220.25 601.558L220.537 607.452L214.716 622.186L212.847 621.395L211.697 621.467L210.403 621.97H208.822L199.479 614.639L190.783 602.349L199.91 613.417L198.832 608.098L196.101 602.924L192.292 598.611L185.824 592.574L183.308 589.555L182.158 586.105L183.739 582.799L184.53 579.852L183.452 575.683L181.511 571.659L177.99 566.124L174.684 558.793L173.965 555.559L174.037 553.403L175.115 550.815L175.33 549.09L174.971 548.228L173.031 546.575L172.671 544.922L170.587 541.4L170.084 539.962L168.575 530.188L172.959 527.528L173.102 527.888L175.905 534.069L179.355 535.865L190.639 537.447L196.532 536.8L202.569 537.519L205.588 536.441L208.103 534.572L212.775 532.703L217.303 529.541L219.028 525.588L221.184 521.85L224.993 516.747L229.377 512.147L234.049 508.266L239.367 503.091L244.039 497.054L251.226 484.835L258.7 473.982L260.353 469.239L259.635 464.423L258.628 461.189L258.7 457.595L261.288 455.08L266.247 455.583L270.415 455.152L279.255 449.905L282.49 446.024L288.167 441.639L293.701 438.549L296.72 434.955L299.307 430.068L305.416 425.18L318.712 418.424L321.803 419.143L325.971 420.724L328.99 424.965L329.493 426.402Z" fill="#D3D3D3" stroke="#282828" stroke-width="2.5" stroke-linecap="round" stroke-linejoin="round"/>
<path d="M207.025 648.276L208.462 650.361L208.247 651.08L206.306 652.373L202.713 655.464L202.066 653.092L203.072 651.151L205.084 648.564H206.522L207.025 648.276ZM298.085 545.282L300.6 550.025L301.104 553.547L304.985 554.482L308.937 557.069L306.925 566.988L306.853 570.725L305.416 574.319L298.372 577.265L294.923 579.206L289.46 580.356L285.58 583.59L283.855 588.334L281.195 593.078L279.039 598.468L278.464 609.034L279.327 613.705L280.764 618.09L281.555 623.193V627.074L283.423 630.667L286.729 634.692L284.933 637.424L281.124 639.723L279.614 642.527L279.255 645.761L281.195 648.564L283.639 649.786L285.867 652.948L285.795 657.045L286.226 661.429L288.526 665.67L291.832 669.192L299.163 672.57L302.397 672.354L303.044 709.441L301.894 714.688L300.097 719L297.654 720.797L294.779 723.456L294.851 729.422L295.929 736.034L295.641 740.275L292.407 735.387L287.52 731.65L281.914 729.134L276.164 727.769L275.949 732.512L274.296 734.165L271.852 733.59L269.193 731.362L269.049 729.637L269.984 724.606L266.031 717.994L265.671 716.269L265.743 714.759L266.031 712.46V704.697L266.39 702.469L268.187 699.882L268.546 697.725L254.244 660.639L253.094 658.554L249.141 653.667L245.979 646.551L244.541 644.539L238.648 639.867L234.767 637.711L234.12 635.052L233.617 634.117L230.455 632.033L223.268 628.583L220.034 626.355L216.584 623.336L214.715 622.186L220.537 607.452L220.249 601.559L218.309 596.168L218.38 591.065L222.477 575.828L222.549 569L222.19 563.969L224.058 558.291L224.993 553.116L226.214 549.594L239.007 550.385L244.757 548.372L249.357 543.269L256.113 540.035L265.528 544.779L270.271 540.538L275.446 539.244L280.908 545.641L285.148 549.594L291.257 544.779L294.348 544.635L298.085 545.282Z" fill="#D3D3D3" stroke="#282828" stroke-width="2.5" stroke-linecap="round" stroke-linejoin="round"/>
<path d="M145.504 506.182L145.072 507.044L143.419 505.607L142.198 502.588L142.413 501.654H142.916L143.563 502.516L144.066 503.882L145.575 505.463L145.504 506.182ZM145.863 486.345L143.779 491.232L146.582 481.673L147.013 481.745L145.863 486.345ZM148.378 477.145L150.894 470.029L151.253 469.957L151.397 471.323L148.378 477.145ZM152.906 460.973L152.619 462.698L153.05 455.08L153.409 455.223L152.906 460.973ZM260.353 469.239L258.7 473.982L251.225 484.835L244.038 497.054L239.367 503.091L234.048 508.266L229.377 512.147L224.993 516.747L221.183 521.85L219.027 525.587L217.302 529.54L212.775 532.703L208.103 534.572L205.588 536.44L202.569 537.518L196.532 536.8L190.638 537.447L179.355 535.865L175.905 534.068L173.102 527.887L172.958 527.528L168.574 530.187L167.855 525.659L166.562 523.072L163.759 520.269L167.137 517.825L169.077 513.441L168.287 509.703L163.759 509.057L162.896 510.35L162.106 512.794L160.812 514.735L158.44 514.663L157.506 513.01L157.865 507.978L157.29 506.254L154.344 504.96L152.691 506.469L151.397 508.553L149.385 509.057L147.3 507.26L146.797 504.744L147.3 502.3L148.091 500.647L150.247 499.497L152.906 499.138L155.134 498.419L155.853 496.263L154.847 495.185L148.091 493.46V492.094L153.769 492.023L153.194 490.154L150.103 487.495L148.091 485.195L148.594 482.32L150.391 481.242L152.331 480.595L153.337 478.798L152.762 475.995L151.756 473.695L152.403 471.539L153.409 468.879L155.062 467.011L154.703 465.358L155.062 463.704L157.434 457.236L158.584 456.014L160.453 455.583L157.793 453.786L158.943 450.839L162.681 452.277L169.077 453.211L174.252 454.505L178.708 452.492L180.505 448.97L184.673 446.383L189.417 442.717L192.794 439.267L197.179 435.961L202.785 433.446L213.709 431.433L219.818 431.074L224.993 432.799L227.867 434.524L229.377 437.542L230.599 441.208L237.714 448.467L238.432 453.858L237.139 464.064L238.289 467.37L241.523 469.886H244.254L248.063 468.161L251.657 467.729L254.316 468.52L260.353 469.239Z" fill="#D3D3D3" stroke="#282828" stroke-width="2.5" stroke-linecap="round" stroke-linejoin="round"/>
<path d="M318.353 161.691L318.21 161.835L314.903 162.626L311.741 161.404L309.801 158.673L306.71 156.804L301.751 154.863L302.614 151.917L306.567 143.723L308.148 141.567L308.651 140.489V139.267L308.148 137.901L307.357 136.32L308.435 134.164L309.729 132.87L315.694 135.458L326.547 138.908L330.427 140.92L333.159 143.723L334.524 146.382L333.805 148.97L332.081 149.976L328.415 150.623L324.175 152.348L321.731 155.438L320.078 159.463L318.353 161.691Z" fill="#D3D3D3" stroke="#282828" stroke-width="2.5" stroke-linecap="round" stroke-linejoin="round"/>
<path d="M403.735 186.56L402.082 191.232L401.076 194.61L401.507 197.772L398.776 201.941L388.714 212.147L385.623 219.694L383.611 219.119L375.993 219.838L375.418 220.269L374.987 216.747L371.681 211.141L369.309 208.769L368.375 205.607L364.781 202.732L355.797 205.032L352.347 204.672L347.46 205.032L341.926 206.541L338.979 205.822L339.626 202.157L340.561 198.851L339.842 195.976L339.123 193.891L339.842 191.663L340.417 189.148L340.632 186.344L340.129 182.607L337.326 180.163L328.63 176.067L324.318 172.832L321.515 169.67L318.353 161.692L320.078 159.464L321.731 155.439L324.174 152.348L328.414 150.623L332.08 149.976L333.805 148.97L334.523 146.383L333.158 143.723L330.427 140.92L326.546 138.908L315.693 135.458L309.728 132.871L310.806 131.217L311.237 128.414L311.884 126.33L313.322 124.246L315.262 122.736L317.059 122.09L316.915 121.227L317.418 119.143L318.999 114.758L320.509 112.387L322.737 113.177L332.583 112.458L335.889 114.687L338.764 120.94L342.357 122.377L345.448 123.24L348.394 124.677L353.282 126.258L355.869 129.277L355.078 133.446L357.594 136.105L362.266 137.614L365.284 139.842L367.512 142.07L370.243 142.573L373.046 142.358L375.49 144.873L377.358 148.108L380.449 149.689L382.892 151.558L383.18 155.151L384.33 160.398L382.964 166.004L379.658 170.676L380.018 173.767L383.755 176.57L388.211 179.301L392.164 179.948L395.038 182.032L400.285 184.979L403.735 186.56Z" fill="#D3D3D3" stroke="#282828" stroke-width="2.5" stroke-linecap="round" stroke-linejoin="round"/>
<path d="M503.85 132.87L505.359 133.23L506.509 134.811L506.006 136.464L503.275 136.392L502.269 135.817L501.047 133.877L501.694 134.092L503.85 132.87ZM470.071 242.549H469.28L461.303 241.327L448.007 233.349L445.276 233.996L443.551 238.309L440.029 241.543H435.358L429.392 239.243L418.612 236.512L413.94 234.284L412.143 232.774L407.903 229.396H404.381L401.003 231.049L398.129 231.481L395.469 229.684L392.307 227.815L388.786 227.096L387.779 224.365L388.211 220.412L385.623 219.693L388.714 212.147L398.776 201.941L401.507 197.772L401.075 194.61L402.082 191.232L403.735 186.56L404.094 185.482L406.897 184.332L409.269 184.763L411.712 183.829L413.293 181.097L411.065 172.185L414.946 169.382L417.174 168.735L421.271 167.585L424.793 166.292L427.524 163.92L431.117 161.404L435.861 159.104L438.664 157.092L438.376 155.654L437.657 153.354L437.514 150.336L438.951 146.814L442.329 143.939L445.06 142.286L454.403 138.477L464.106 132.655L468.562 131.289L472.155 128.702L474.383 125.108L476.755 122.161L479.414 120.724L481.93 119.861L485.236 117.777L486.386 115.046L484.589 112.458L485.595 110.374L493.644 108.721L496.304 106.924L502.341 103.762L506.581 102.827L508.953 104.193L509.528 104.984L500.903 109.296L496.951 112.674L483.511 129.061L481.426 132.511L479.773 137.399L478.624 142.933L478.264 148.395L478.48 153.714L480.852 164.854L480.708 167.729L479.63 170.532L479.773 176.354L482.289 180.882L486.961 183.757L492.423 184.763V186.057L490.123 185.841L487.895 186.057L486.026 186.632L484.661 187.638L486.601 191.232L487.535 195.903L486.961 199.928L482.648 202.372L482.361 204.169L482.864 206.325L484.086 208.266L484.517 210.278L482.72 212.003L478.264 214.59L473.233 220.34L473.018 222.64L473.377 227.671L472.515 229.54L471.58 231.193L471.005 233.493L470.646 238.093L470.215 239.243L469.496 240.177L469.137 241.184L470.071 242.549Z" fill="#D3D3D3" stroke="#282828" stroke-width="2.5" stroke-linecap="round" stroke-linejoin="round"/>
<path d="M469.64 72.5685L469.425 81.1215L469.569 83.2777L472.228 86.0807L471.94 87.8776L470.144 89.1713L467.269 90.2494L463.603 89.8182L455.985 86.6557L453.829 85.0745L451.17 82.6308L449.157 80.1152L447.935 77.5997L445.851 74.9403L445.42 72.856L447.72 71.2748L452.895 69.0467L456.057 66.9624L457.063 67.6093L458.788 69.5498L461.591 70.5561L469.64 72.5685Z" fill="#D3D3D3" stroke="#282828" stroke-width="2.5" stroke-linecap="round" stroke-linejoin="round"/>
<path d="M318.353 161.692L321.516 169.67L324.319 172.832L328.631 176.067L337.327 180.164L340.13 182.607L340.633 186.345L340.418 189.148L339.843 191.663L339.124 193.891L339.843 195.976L340.561 198.851L339.627 202.157L338.98 205.822L341.927 206.541L347.461 205.032L352.348 204.672L355.798 205.032L364.782 202.732L368.375 205.607L369.31 208.769L371.681 211.141L374.987 216.747L375.419 220.269L372.759 222.138L371.466 226.162L367.944 227.6L364.135 227.528L361.116 229.684L357.81 232.847L353.57 235.147L345.233 241.759L340.346 243.843L333.949 247.221L330.068 245.712L326.475 241.687L322.163 239.962L315.047 239.387L311.094 241.759L310.448 247.078L306.71 249.09L298.014 249.593L289.677 244.778L284.934 243.915L279.687 241.328L268.835 233.35L264.307 229.397L260.929 225.803L254.317 215.525L259.491 209.703L260.857 206.829L261.504 202.085L263.085 198.06L267.325 190.585L268.475 186.057L269.553 184.117L274.44 182.679L275.806 181.17L276.597 179.301L277.603 177.504L280.621 174.414L283.927 171.97L287.952 170.892L293.055 171.826L292.408 167.945L294.349 165.286L297.008 162.555L298.373 158.458L298.948 157.092L301.536 155.798L301.751 154.864L306.71 156.805L309.801 158.673L311.741 161.405L314.904 162.626L318.21 161.836L318.353 161.692Z" fill="#D3D3D3" stroke="#282828" stroke-width="2.5" stroke-linecap="round" stroke-linejoin="round"/>
<path d="M442.761 107.212L439.742 108.433L435.574 108.362L432.124 107.643L429.465 105.271L426.734 102.18L422.565 98.8743L419.762 94.0587L420.84 88.7401L419.978 84.2121L415.881 80.259L413.15 77.2403L414.3 75.0841L415.594 73.3592L417.103 70.053L419.69 67.178L427.524 62.5781L429.608 60.7813L432.483 59.3438L435.214 60.2063L436.724 61.7875L436.364 64.375L436.652 66.8905L438.951 71.7779L440.748 78.9653L443.551 81.4809L444.701 84.6433L443.551 89.387L443.623 93.0525L446.929 94.9212L449.66 97.2212L448.223 100.312L442.761 107.212Z" fill="#D3D3D3" stroke="#282828" stroke-width="2.5" stroke-linecap="round" stroke-linejoin="round"/>
<path d="M456.057 66.9626L452.895 69.0469L447.72 71.275L445.42 72.8562L445.851 74.9406L447.935 77.5999L449.157 80.1155L451.17 82.6311L453.829 85.0748L455.985 86.656L463.603 89.8184L467.269 90.2497L470.143 89.1716L471.94 87.8778L472.228 86.081L469.569 83.2779L469.425 81.1217L469.64 72.5688L494.508 78.6061L496.807 80.0436L495.658 82.7029L495.37 84.7873L495.873 88.5247L497.598 94.7777L499.467 97.7245L501.048 98.3714L506.079 97.6527L508.666 97.9401L511.685 98.7308L514.344 100.096L515.781 101.893L509.529 104.984L508.954 104.193L506.582 102.828L502.342 103.762L496.304 106.924L493.645 108.721L485.596 110.374L484.589 112.459L486.386 115.046L485.236 117.777L481.93 119.862L479.415 120.724L476.756 122.162L474.384 125.108L472.156 128.702L468.562 131.29L464.106 132.655L454.404 138.477L445.061 142.286L442.33 143.939L438.952 146.814L437.514 150.336L437.658 153.355L438.377 155.655L438.664 157.092L435.861 159.105L431.118 161.405L427.524 163.92L424.793 166.292L421.271 167.586L417.175 168.736L415.378 164.855L408.982 158.745L407.975 154.72L407.4 150.983L409.628 148.324L410.706 144.514L404.597 135.674L401.004 134.236L395.685 134.524L392.02 132.44L392.954 127.624L392.236 123.958L388.355 120.293L387.636 116.627L388.355 112.459L388.211 108.002L390.87 105.128L400.285 102.324L402.657 99.8807L403.376 96.862L403.016 93.9152L399.351 88.5247L396.332 86.9435L393.386 86.2248L391.086 84.2123L387.708 81.9842L383.18 79.828L380.161 76.5218L388.211 75.0125L391.661 73.7187L396.045 69.9813L397.41 69.3344L398.992 69.0469H401.219L403.735 69.8376L405.101 71.7781L405.963 73.7187L407.041 74.8687L409.557 73.8625L406.969 69.7657L402.801 65.5251L400.573 64.1595L401.219 62.219L402.513 61.1408L403.879 60.494L404.454 59.7752L405.963 56.1097L408.263 51.8691L413.006 47.6286L419.906 44.1068L427.812 42.3099L435.574 43.1724L438.808 45.6161L445.995 55.8222L448.582 61.1408L449.445 60.7815L451.385 60.2784L453.541 59.9909L455.122 60.4221L455.051 61.069L454.26 62.0033L453.541 63.2971L453.613 64.8783L454.404 65.7408L456.057 66.9626ZM442.761 107.212L448.223 100.312L449.66 97.2214L446.929 94.9215L443.623 93.0527L443.551 89.3872L444.701 84.6435L443.551 81.4811L440.748 78.9655L438.952 71.7781L436.652 66.8907L436.364 64.3752L436.724 61.7877L435.214 60.2065L432.483 59.344L429.608 60.7815L427.524 62.5783L419.69 67.1782L417.103 70.0532L415.594 73.3594L414.3 75.0843L413.15 77.2405L415.881 80.2592L419.978 84.2123L420.84 88.7403L419.762 94.059L422.565 98.8745L426.734 102.181L429.465 105.271L432.124 107.643L435.574 108.362L439.742 108.434L442.761 107.212Z" fill="#D3D3D3" stroke="#282828" stroke-width="2.5" stroke-linecap="round" stroke-linejoin="round"/>
<path d="M417.175 168.735L414.947 169.382L411.066 172.185L413.294 181.097L411.713 183.829L409.269 184.763L406.897 184.332L404.094 185.482L403.735 186.56L400.285 184.979L395.039 182.032L392.164 179.948L388.211 179.301L383.755 176.569L380.018 173.766L379.658 170.676L382.964 166.004L384.33 160.398L383.18 155.151L382.892 151.557L380.449 149.689L377.358 148.108L375.49 144.873L373.046 142.358L370.243 142.573L367.512 142.07L365.284 139.842L362.266 137.614L357.594 136.105L355.079 133.445L355.869 129.277L353.282 126.258L348.395 124.677L345.448 123.239L342.358 122.377L338.764 120.939L335.889 114.686L332.583 112.458L322.737 113.177L320.509 112.386L326.905 102.18L331.864 96.2149L337.039 91.8306L350.263 87.4464L353.354 85.5058L356.013 83.2058L359.247 81.409L365.715 79.1091L380.161 76.5216L383.18 79.8278L387.708 81.984L391.086 84.2121L393.386 86.2245L396.332 86.9433L399.351 88.5245L403.016 93.915L403.376 96.8618L402.657 99.8805L400.285 102.324L390.87 105.127L388.211 108.002L388.355 112.458L387.636 116.627L388.355 120.293L392.236 123.958L392.954 127.624L392.02 132.439L395.685 134.523L401.004 134.236L404.597 135.673L410.706 144.514L409.628 148.323L407.4 150.982L407.975 154.72L408.981 158.745L415.378 164.854L417.175 168.735Z" fill="#D3D3D3" stroke="#282828" stroke-width="2.5" stroke-linecap="round" stroke-linejoin="round"/>
<path d="M262.94 305.869L263.012 308.457L259.922 309.607L259.059 311.691L259.418 314.566L257.981 317.872L256.831 321.754L256.759 325.85L255.897 330.594L255.25 340.225L256.759 344.753L259.347 347.125L262.15 348.131L266.174 350.216L265.456 352.731L262.725 353.809L260.928 355.462L259.203 356.612L258.484 357.115L249.86 355.39L245.691 355.462L236.923 351.15L222.764 349.497L214.428 346.334L209.684 345.041L204.222 344.753L188.41 346.622L182.948 343.459L183.523 342.453L184.673 337.35L185.536 335.194L190.638 330.307L192.076 328.294L194.016 322.688L197.035 317.154L201.131 305.582L203.072 302.204L205.228 300.048L207.025 298.826L208.606 298.035L209.756 297.029L210.187 294.873L211.05 292.86L214.715 289.985L215.577 287.829L216.009 280.57L216.655 278.558L218.596 276.689L226.717 267.202L230.886 268.567L233.761 271.083L235.701 275.611L236.42 281.073L239.654 284.954L248.207 287.47L251.297 290.057L253.597 293.651L255.034 296.526L255.106 299.401L255.969 301.773L259.059 302.348L262.94 304.863V305.869Z" fill="#D3D3D3" stroke="#282828" stroke-width="2.5" stroke-linecap="round" stroke-linejoin="round"/>
<path d="M156.859 452.204L155.566 453.21L155.278 452.42L157.003 450.192L157.65 448.467L158.44 447.389L158.872 447.748L158.944 448.539L157.937 449.976L156.859 452.204ZM158.44 443.148L157.937 442.645L159.375 439.914L160.022 439.626L159.662 440.992L158.44 443.148ZM161.962 436.68L161.89 433.517L162.25 433.805L162.321 435.889L161.962 436.68ZM162.968 429.708L162.393 430.858L162.034 429.42L162.968 429.708ZM162.034 425.324L161.675 426.258L160.74 424.749L162.034 425.324ZM140.617 426.042L138.317 427.192L141.048 423.311L151.038 413.177L158.656 403.474L160.453 402.899L153.984 413.464L150.75 416.699L148.666 419.214L145.935 421.945L143.779 423.455L140.617 426.042ZM276.811 389.315L281.195 389.818L286.083 391.687L289.029 392.549L292.695 394.562L292.479 398.371L290.323 402.036L291.185 405.486L293.126 410.158L293.413 414.399L294.204 417.13L299.666 418.136L318.065 418.28L318.712 418.424L305.416 425.18L299.307 430.067L296.719 434.955L293.701 438.548L288.167 441.639L282.489 446.023L279.255 449.904L270.415 455.151L266.246 455.582L261.287 455.079L258.7 457.595L258.628 461.188L259.634 464.423L260.353 469.238L254.316 468.52L251.657 467.729L248.063 468.16L244.254 469.885H241.523L238.289 467.37L237.139 464.063L238.432 453.857L237.714 448.467L230.598 441.208L229.377 437.542L227.867 434.523L224.993 432.798L219.818 431.073L213.709 431.433L202.785 433.445L197.179 435.961L192.795 439.267L189.417 442.717L184.673 446.382L180.505 448.97L178.708 452.492L174.252 454.504L169.077 453.21L162.681 452.276L158.944 450.839L161.675 450.623L164.046 449.617L165.053 449.976L164.406 447.676L162.825 448.826L161.531 448.467L159.734 448.395V446.023L161.459 441.998L164.118 441.783L167.999 441.854L165.34 434.308L162.393 428.558L163.759 425.898V424.533L161.531 423.455L161.818 422.161L163.112 420.724L163.759 418.855L166.634 415.117L160.525 415.477L160.381 409.224L168.718 408.218L174.683 411.596L179.067 411.668L181.87 409.368L183.092 405.846L184.601 403.69L188.41 403.115L193.441 399.018L196.604 397.293L199.335 394.562L211.05 387.805L216.224 386.368L225.28 384.715L230.239 384.427L234.048 387.734L237.642 391.974L246.697 395.28L249.357 394.921L255.322 393.196L258.7 395.64L260.425 398.443L264.953 398.012L273.361 396.287L276.236 395.352V392.909L276.452 389.315H276.811ZM210.187 411.452L207.456 414.399L208.103 418.424L212.487 420.149L217.518 423.383L222.765 424.605L227.652 422.664L230.886 422.233L233.042 420.652L231.245 415.764L229.449 412.889L226.502 411.308L222.477 409.799L216.871 410.302L210.187 411.452Z" fill="#D3D3D3" stroke="#282828" stroke-width="2.5" stroke-linecap="round" stroke-linejoin="round"/>
<path d="M210.187 411.452L216.871 410.302L222.477 409.799L226.502 411.308L229.449 412.89L231.246 415.765L233.042 420.652L230.886 422.233L227.652 422.665L222.765 424.605L217.518 423.383L212.487 420.149L208.103 418.424L207.456 414.399L210.187 411.452Z" fill="#D3D3D3" stroke="#282828" stroke-width="2.5" stroke-linecap="round" stroke-linejoin="round"/>
<path d="M470.072 242.549L470.503 243.124L471.653 245.209L471.796 245.999L470.79 247.724L466.622 251.821L462.166 258.002L458.788 260.662L457.782 262.099L458.285 263.608L457.638 264.686L452.894 268.352L451.098 270.077L449.085 274.389L447.001 283.158L441.683 290.992L440.605 294.155L440.748 297.533L442.042 301.27L443.12 302.923L444.054 303.642L444.629 304.648L444.701 306.948L443.911 309.536L441.251 313.704L440.748 316.22L440.461 320.82L438.161 332.535L433.561 344.754L427.812 373.575L424.362 380.619L416.456 426.69L413.941 425.971L406.178 429.708L403.376 433.589L404.597 438.549L405.029 443.508L402.441 448.467L399.998 452.205L398.057 456.948L396.332 462.986L393.673 468.52L390.223 478.007L387.995 482.392L388.067 487.207L387.42 491.663L382.749 494.323L376.855 493.532L368.446 486.56L361.834 475.06L357.738 473.982L353.21 473.335L349.616 469.886L345.232 467.801L339.626 465.789L336.033 459.967L335.17 454.648L334.955 452.852L332.942 447.389L328.414 443.652L324.39 441.064L323.671 438.189L324.677 435.889L328.702 434.164L330.858 430.571L329.492 426.402L333.805 423.886L336.033 421.874L334.811 417.418L335.889 415.477L336.967 412.602L340.704 409.799L346.023 408.649L351.341 408.434L355.15 405.056L356.085 398.946L358.959 395.209L364.422 393.196L367.656 390.968L368.806 387.303L371.106 378.247L371.968 372.209L371.321 367.034L370.459 363.153L368.159 360.206L366.65 357.332L370.746 350.575L370.89 347.916L372.687 342.885L375.49 336.776L377.646 330.451L378.796 323.335L379.227 317.873L377.933 314.639L376.496 312.267L378.149 306.804L381.814 299.114L387.564 291.639L387.78 288.836L386.702 285.602L382.964 283.158L380.88 280.93L380.736 273.814L383.395 271.73L388.139 270.149L391.876 268.424L391.732 265.765L390.726 261.308L392.739 259.871L393.601 258.362L396.045 257.14L398.273 254.409L399.207 250.743L401.363 247.149L406.753 243.771L408.478 239.315L408.766 236.296L412.144 232.775L413.941 234.284L418.612 236.512L429.393 239.243L435.358 241.543H440.03L443.551 238.309L445.276 233.996L448.007 233.35L461.303 241.328L469.281 242.549H470.072Z" fill="#D3D3D3" stroke="#282828" stroke-width="2.5" stroke-linecap="round" stroke-linejoin="round"/>
<path d="M390.727 261.308L391.733 265.764L391.877 268.423L388.14 270.148L383.396 271.729L380.737 273.814L380.881 280.929L382.965 283.157L386.702 285.601L387.78 288.835L387.565 291.638L381.815 299.113L378.149 306.804L376.496 312.266L377.934 314.638L379.228 317.872L378.796 323.335L377.646 330.45L375.49 336.775L372.687 342.884L370.891 347.915L370.747 350.575L366.65 357.331L368.159 360.206L370.459 363.152L371.322 367.034L371.969 372.209L371.106 378.246L368.806 387.302L367.656 390.968L364.422 393.196L358.96 395.208L356.085 398.945L355.151 405.055L351.342 408.433L346.023 408.648L340.705 409.798L336.968 412.601L335.889 415.476L334.811 417.417L336.033 421.873L333.805 423.886L329.493 426.401L328.99 424.964L325.971 420.723L321.803 419.142L318.712 418.423L318.066 418.279L299.667 418.136L294.204 417.129L293.414 414.398L293.126 410.158L291.186 405.486L290.323 402.036L292.48 398.37L292.695 394.561L289.03 392.549L286.083 391.686L281.196 389.818L276.812 389.314L274.943 386.799L269.05 387.446L264.162 388.883L259.994 387.086L257.119 383.708L257.766 379.612L259.132 375.874L258.413 370.34L259.132 365.165L260.569 361.787L259.203 356.612L260.928 355.462L262.725 353.809L265.456 352.731L266.175 350.215L262.15 348.131L259.347 347.125L256.76 344.753L255.25 340.225L255.897 330.594L256.76 325.85L256.832 321.753L257.982 317.872L259.419 314.566L259.06 311.691L259.922 309.607L263.013 308.457L262.941 305.869L266.031 306.013L278.896 307.81L281.915 307.379L285.508 303.929L290.97 293.579L293.629 287.47L298.229 285.314L305.488 286.32L309.8 286.176L313.969 280.642L316.125 279.276L322.521 284.092L325.037 283.445L326.906 279.492L330.284 276.689L335.027 276.761L338.621 275.395L344.298 269.933L347.964 267.848L351.126 267.273L357.451 263.895L361.907 263.751L366.435 263.033L374.412 259.87L377.718 259.655L381.096 260.373L390.727 261.308Z" fill="#D3D3D3" stroke="#282828" stroke-width="2.5" stroke-linecap="round" stroke-linejoin="round"/>
<path d="M375.418 220.269L375.993 219.837L383.611 219.119L385.624 219.694L388.211 220.412L387.78 224.365L388.786 227.097L392.308 227.815L395.47 229.684L398.129 231.481L401.004 231.05L404.382 229.397H407.903L412.144 232.775L408.766 236.296L408.478 239.315L406.753 243.771L401.363 247.149L399.207 250.743L398.273 254.409L396.045 257.14L393.601 258.362L392.739 259.871L390.726 261.308L381.096 260.374L377.718 259.655L374.412 259.871L366.434 263.033L361.906 263.752L357.45 263.896L351.126 267.274L347.963 267.849L344.298 269.933L338.62 275.396L335.027 276.761L330.283 276.689L326.905 279.492L325.037 283.445L322.521 284.092L316.125 279.277L313.969 280.642L309.8 286.177L305.488 286.32L298.229 285.314L293.629 287.47L290.97 293.58L285.508 303.929L281.914 307.379L278.896 307.811L266.031 306.014L262.94 305.87V304.864L259.059 302.348L255.969 301.773L255.106 299.401L255.035 296.526L253.597 293.651L251.297 290.058L248.207 287.47L239.654 284.955L236.42 281.074L235.701 275.611L233.761 271.083L230.886 268.568L226.718 267.202L227.149 266.627L227.724 264.255L230.095 262.315L231.677 257.643L233.617 248.802L240.301 237.231L242.313 230.115L244.757 226.162L254.316 215.525L260.928 225.803L264.306 229.397L268.834 233.35L279.686 241.328L284.933 243.915L289.676 244.778L298.013 249.593L306.71 249.09L310.447 247.077L311.094 241.759L315.047 239.387L322.162 239.962L326.474 241.687L330.068 245.712L333.949 247.221L340.345 243.843L345.232 241.759L353.569 235.146L357.81 232.847L361.116 229.684L364.134 227.528L367.943 227.6L371.465 226.162L372.759 222.137L375.418 220.269Z" fill="#D3D3D3" stroke="#282828" stroke-width="2.5" stroke-linecap="round" stroke-linejoin="round"/>
<path d="M259.203 356.613L260.568 361.788L259.131 365.166L258.412 370.34L259.131 375.875L257.766 379.612L257.119 383.709L259.993 387.087L264.162 388.884L269.049 387.446L274.943 386.799L276.811 389.315H276.452L276.236 392.909V395.352L273.361 396.287L264.953 398.012L260.425 398.443L258.7 395.64L255.322 393.196L249.357 394.921L246.697 395.281L237.642 391.974L234.048 387.734L230.239 384.428L225.28 384.715L216.224 386.368L211.05 387.806L199.335 394.562L196.604 397.293L193.441 399.018L188.41 403.115L184.601 403.69L183.092 405.846L181.87 409.368L179.067 411.668L174.683 411.596L168.718 408.218L160.381 409.224L163.687 405.487L163.543 393.699L164.046 384.859L166.059 377.815L169.149 372.281L170.083 365.094L171.736 358.769L172.671 356.613L177.055 350.791L177.845 348.778L178.349 347.7L182.373 344.61L182.948 343.46L188.41 346.622L204.222 344.754L209.684 345.041L214.428 346.335L222.765 349.497L236.923 351.15L245.691 355.463L249.86 355.391L258.484 357.116L259.203 356.613Z" fill="#D3D3D3" stroke="#282828" stroke-width="2.5" stroke-linecap="round" stroke-linejoin="round"/>
<path d="M436.867 717.993L432.914 719.215L427.667 717.13L422.78 713.68L419.977 711.021L420.84 709.08L420.768 707.284L420.049 705.559L418.827 704.049H432.842V705.343L431.908 707.859L431.62 709.943L432.267 711.74L435.645 714.255L437.082 716.052L436.867 717.993ZM419.618 590.346L419.546 591.136L417.102 590.849L416.815 590.417L414.874 589.699L412.862 586.177L411.856 583.086L412.287 582.655L419.474 582.152L420.265 582.583L420.84 584.021L420.265 586.824L419.618 587.974L419.33 589.196L419.618 590.346ZM302.397 672.353L299.163 672.569L291.832 669.191L288.526 665.669L286.226 661.428L285.795 657.044L285.867 652.947L283.639 649.785L281.195 648.563L279.255 645.76L279.614 642.526L281.123 639.723L284.932 637.423L286.729 634.691L283.423 630.666L281.554 627.073V623.192L280.764 618.089L279.327 613.704L278.464 609.033L279.039 598.467L281.195 593.077L283.854 588.333L285.579 583.589L289.46 580.355L294.922 579.205L298.372 577.264L305.415 574.318L306.853 570.724L306.925 566.987L308.937 557.068L304.984 554.481L301.103 553.546L300.6 550.025L298.085 545.281L300.888 544.921L300.025 541.4L295.569 536.8L293.413 533.494L292.479 527.672L294.132 520.628L300.241 515.453L303.331 511.213L303.403 503.163L305.559 493.676L304.05 486.56L304.625 481.601L309.943 478.726L311.884 475.204L310.231 470.892L310.878 466.795L316.484 463.129L319.358 460.326L323.958 457.38L335.17 454.648L336.032 459.967L339.626 465.789L345.232 467.801L349.616 469.886L353.209 473.335L357.737 473.982L361.834 475.06L368.446 486.56L376.855 493.532L382.748 494.323L387.42 491.663L388.067 487.207L387.995 482.392L390.223 478.007L393.672 468.52L396.332 462.986L398.057 456.948L399.997 452.205L402.441 448.467L405.028 443.508L404.597 438.549L403.375 433.589L406.178 429.708L413.94 425.971L416.455 426.69L413.149 445.664L411.568 449.186L406.465 455.942L404.597 459.464L403.088 463.848L402.009 472.042L402.153 479.373L401.434 486.345L397.913 493.46L396.404 494.969L393.026 497.485L391.444 499.066L390.726 500.719L389.504 504.888L386.054 510.925L383.97 520.341L382.461 524.581L375.058 535.219L374.124 537.159L364.134 545.64L361.762 548.371L361.474 550.312L361.906 554.768L361.762 556.781L360.9 559.081L359.318 561.596L355.94 565.98L352.563 569.215L340.991 576.905L333.229 585.458L331.289 586.464L329.78 588.405L326.042 598.108L324.174 601.701L318.424 608.889L316.052 613.201L314.687 622.042L311.237 634.116L304.409 646.119L303.403 650.216L302.181 661.788L302.397 672.353Z" fill="#D3D3D3" stroke="#282828" stroke-width="2.5" stroke-linecap="round" stroke-linejoin="round"/>
<path d="M28.283 476.138L26.9894 476.785L26.055 475.707L24.977 472.329L25.6957 471.466L28.4268 470.532L30.3673 471.035L30.4392 472.544L30.2954 473.694L29.433 474.557L28.283 476.138ZM27.4206 467.513L26.1988 469.741L24.6176 469.31L23.1802 467.513L22.9646 465.716L23.827 464.926L26.1269 465.285L27.4206 467.513ZM62.4935 465.213L62.206 465.285L61.3436 464.207L61.5592 463.776L63.3559 463.632L63.9309 465.069L62.4935 465.213ZM72.5554 461.907L72.771 462.051H74.424V462.985L73.6334 464.063L73.1303 465.357L72.3398 463.344L72.5554 461.907ZM48.4787 440.632L47.2569 440.704L45.1008 441.998L44.8133 441.71L45.1008 440.776L45.8914 439.698L46.3944 439.267L47.5444 439.051L48.6224 439.698L48.4787 440.632ZM42.4416 435.817L42.5134 437.47L42.8728 438.62L43.879 439.482L43.4477 440.632L42.5853 441.495L43.0165 442.86L41.9385 443.292L39.7105 443.076L38.5605 442.573L39.5667 440.345L39.423 437.326L38.7761 437.757L37.3387 438.189L36.9075 436.536L38.4168 432.87L39.5667 432.654L41.5072 435.242L42.4416 435.817ZM6.86556 431.72L8.59045 432.151V433.301L8.15925 433.948L6.64996 434.379L5.85938 433.589L6.86556 431.72ZM48.9099 413.895L46.6101 415.405L45.1008 415.836L43.5196 416.627L42.5853 416.267L42.3697 414.974L42.8728 414.542L44.1664 414.902L47.0413 413.464L48.9099 413.895ZM62.9247 393.771L62.4935 394.705L65.3683 393.771L67.5963 394.058L69.2493 393.915L70.3993 391.974L73.7772 398.227L74.6396 401.102L74.2803 403.258L72.8429 401.821L71.0461 400.599L69.0337 400.239L66.1589 401.821L64.1465 402.036L63.1403 402.611L62.6372 403.689L61.8466 406.636L61.3436 407.499L57.9656 409.439L54.5158 409.942L51.066 408.577L47.5444 405.055L48.4787 403.258L50.4192 405.558L53.294 406.205L56.3845 405.342L58.8999 403.258L57.175 402.611L55.7376 401.749L54.6596 400.599L53.6534 399.018L53.0784 400.024L52.3597 400.455L52.1441 397.58L52.3597 394.705H53.6534L55.1627 395.065L60.4811 391.758L63.7872 390.608L62.9247 393.771ZM34.2483 400.455H31.5172L32.0203 398.946L32.8828 398.011L34.2483 397.652L36.0451 397.508L37.6262 396.861L38.0574 395.424L38.1293 391.974L40.4292 384.499L42.6572 382.343L45.6757 384.93L43.879 386.008L42.6572 388.596L40.6448 394.705L40.5729 396.286L41.076 397.724L40.8604 398.658L38.7043 399.018L37.1231 399.089L36.0451 399.305L35.1108 399.736L34.2483 400.455ZM58.5406 387.59L56.9594 388.093L56.1689 387.015L55.522 384.499L54.0846 382.415L50.9942 379.324L54.9471 376.377L57.3188 377.599L59.6186 379.612L60.6249 381.696L58.8281 383.421L59.5468 385.937L58.5406 387.59ZM60.4092 365.74L60.1936 366.387L59.2593 364.231L59.1156 363.225L60.4092 362.147L61.5592 359.99L61.9185 360.781L63.7153 361.787L63.4278 363.081L61.8466 364.015L60.4092 365.74Z" fill="#D3D3D3" stroke="#282828" stroke-width="2.5" stroke-linecap="round" stroke-linejoin="round"/>
<path d="M66.015 244.922L62.2777 246L60.1216 245.137L63.7151 238.022L64.6494 237.016L66.1587 236.656L67.668 236.584L69.1054 237.591L70.2553 238.884V241.112L69.2491 242.622L68.0992 242.694L67.3086 243.556L66.8774 244.419L66.015 244.922ZM105.544 225.659L108.922 234.716L108.203 241.04L105.4 244.347L100.513 241.256L96.9193 240.106L91.0978 240.681L85.995 243.915L83.192 248.3L80.7484 249.522L77.9455 248.156L76.005 248.084L74.2801 247.293L73.4176 245.784L73.777 245.281L75.2863 243.269L75.7894 242.406L75.9331 240.897L75.8612 239.1L75.3581 236.009L74.0645 232.991L73.9207 231.481L74.9988 230.834L80.461 228.175L87.648 232.919L92.679 232.272L93.4695 226.019L95.1226 222.066L100.513 220.988L105.544 225.659ZM155.35 148.252L153.266 149.33L152.332 148.467L152.835 146.167L154.56 145.161L155.781 145.377L155.925 146.742L155.35 148.252Z" fill="#D3D3D3" stroke="#282828" stroke-width="2.5" stroke-linecap="round" stroke-linejoin="round"/>
<path d="M192.507 93.3401L192.364 94.9932L190.998 96.5025L188.051 97.94L189.848 93.9151L191.645 94.2744L191.717 93.6276L192.507 93.3401ZM184.027 92.7651L182.589 94.2744L180.864 91.8307L183.452 90.8964L185.392 91.9745L184.027 92.7651ZM181.727 53.3065L182.446 53.6659L185.608 51.7972H187.62V53.0909L185.608 55.3909L181.655 57.4752L180.433 57.6908L178.636 56.469L178.061 54.744L178.421 52.7316L179.211 51.2941L179.93 51.1503L180.146 52.7316L181.727 53.3065ZM197.035 40.5131L196.604 42.0943L197.035 42.9568L196.029 42.813L194.951 41.2318L194.16 40.7287L192.507 41.663L191.789 41.3755L190.854 41.5912L189.776 42.813L188.914 46.4067L188.123 45.9036L187.764 44.8255L188.123 41.7349L188.483 40.5849L189.273 40.0818L191.214 39.435L191.717 38.7881L193.298 37.8537L195.095 38.1412L196.029 39.5068L197.035 40.5131ZM290.323 7.73876L289.461 8.02625L288.67 7.73876L287.664 8.67312L286.873 10.1825L286.658 9.82309L285.795 9.67934L284.502 8.96061L285.292 7.73876L284.933 6.73253L285.58 6.30129L287.161 5.00757L289.03 6.08567L289.461 7.02003L290.323 7.73876Z" fill="#D3D3D3" stroke="#282828" stroke-width="2.5" stroke-linecap="round" stroke-linejoin="round"/>
</g>
<defs>
<filter id="filter0_f_175_6" x="0.5" y="0.00756836" width="521" height="745.985" filterUnits="userSpaceOnUse" color-interpolation-filters="sRGB">
<feFlood flood-opacity="0" result="BackgroundImageFix"/>
<feBlend mode="normal" in="SourceGraphic" in2="BackgroundImageFix" result="shape"/>
<feGaussianBlur stdDeviation="2.5" result="effect1_foregroundBlur_175_6"/>
</filter>
<clipPath id="clip0_175_6">
<rect width="511" height="735.985" fill="white" transform="translate(5.5 5.00757)"/>
</clipPath>
</defs>
</svg>
