<svg width="274" height="75" viewBox="0 0 274 75" fill="none" xmlns="http://www.w3.org/2000/svg">
<path d="M18.886 37.496C17.3153 37.496 16.4667 37.4327 16.34 37.306C16.5173 35.406 16.606 33.2147 16.606 30.732V24.158C13.262 29.3513 9.25933 33.316 4.598 36.052C3.43267 34.3547 2.34333 33.0753 1.33 32.214C3.66067 31.0487 5.90267 29.4907 8.056 27.54C10.2347 25.564 12.046 23.436 13.49 21.156H7.942C6.06733 21.156 4.218 21.232 2.394 21.384C2.318 21.2573 2.28 20.4593 2.28 18.99C2.28 17.4953 2.318 16.672 2.394 16.52C4.26867 16.7227 6.63733 16.824 9.5 16.824H16.606V14.088C16.606 12.9987 16.568 12.036 16.492 11.2C17.556 11.1493 18.6707 11.162 19.836 11.238C21.2293 11.3393 21.926 11.504 21.926 11.732C21.4193 12.5427 21.166 13.3913 21.166 14.278V16.824H28.386H31.996C32.832 16.824 34.0353 16.7733 35.606 16.672C35.682 16.748 35.72 17.5333 35.72 19.028C35.72 20.4973 35.682 21.2953 35.606 21.422C33.934 21.2447 31.9833 21.156 29.754 21.156H23.902C25.4727 23.284 27.398 25.298 29.678 27.198C31.958 29.0727 34.276 30.58 36.632 31.72C35.4413 32.7587 34.314 34.1013 33.25 35.748C31.0713 34.456 28.918 32.8093 26.79 30.808C24.6873 28.7813 22.8127 26.59 21.166 24.234V30.77C21.166 33.2273 21.2547 35.406 21.432 37.306C21.3053 37.4327 20.4567 37.496 18.886 37.496ZM5.13 14.81C3.61 14.81 2.79933 14.7593 2.698 14.658C2.82467 13.442 2.888 11.9473 2.888 10.174V5.652H16.53V3.752C16.53 3.19467 16.5047 2.51067 16.454 1.7C17.518 1.64933 18.62 1.662 19.76 1.738C21.1533 1.83933 21.85 2.004 21.85 2.232C21.4447 2.78933 21.242 3.35933 21.242 3.942V5.652H35.036V10.174C35.036 11.9473 35.0993 13.442 35.226 14.658C35.1247 14.7593 34.276 14.81 32.68 14.81C31.084 14.81 30.2607 14.7593 30.21 14.658C30.286 14.0753 30.324 13.29 30.324 12.302V9.946H18.848H7.372V12.302C7.372 13.29 7.41 14.0753 7.486 14.658C7.43533 14.7593 6.65 14.81 5.13 14.81ZM42.37 37.42C42.066 36.812 41.6353 36.1407 41.078 35.406C40.5207 34.6713 39.9887 34.1013 39.482 33.696C41.8127 32.6573 43.4847 31.1753 44.498 29.25C45.182 27.9327 45.6633 26.0833 45.942 23.702H50.73C50.5527 25.3233 50.3247 26.628 50.046 27.616C51.0087 29.7947 52.5667 31.2513 54.72 31.986V22.41H47.994C45.8913 22.41 43.6493 22.5113 41.268 22.714C41.192 22.562 41.154 21.802 41.154 20.434C41.154 19.0407 41.192 18.268 41.268 18.116C43.1427 18.3187 45.4987 18.42 48.336 18.42H55.404H69.54L70.224 18.268L73.492 19.028C72.58 21.6373 71.5667 23.9933 70.452 26.096L68.4 25.64V29.326H59.09V32.822C60.2553 32.8727 61.18 32.898 61.864 32.898C68.476 32.898 72.694 32.86 74.518 32.784C73.8593 33.772 73.3653 35.1653 73.036 36.964H61.674C58.2287 36.964 55.5307 36.66 53.58 36.052C51.3253 35.3173 49.5393 34.0507 48.222 32.252C46.854 34.4053 44.9033 36.128 42.37 37.42ZM59.09 25.526H63.498H67.906L66.538 25.222C66.7913 24.7407 67.1713 23.8667 67.678 22.6C67.7033 22.524 67.7287 22.4607 67.754 22.41H59.09V25.526ZM48.64 17.47C47.272 17.47 46.5627 17.4193 46.512 17.318C46.588 16.6593 46.626 15.798 46.626 14.734V12.15C45.106 14.2273 43.5987 15.836 42.104 16.976C41.116 15.608 40.1913 14.5693 39.33 13.86C41.458 12.6187 43.358 10.896 45.03 8.692H42.712C41.9267 8.692 41.154 8.73 40.394 8.806C40.318 8.75533 40.28 8.10933 40.28 6.868C40.28 5.60133 40.318 4.95533 40.394 4.93C40.9007 4.98067 41.42 5.006 41.952 5.006H43.51H46.626V3.41C46.626 2.97933 46.6007 2.40933 46.55 1.7C47.4873 1.64933 48.4373 1.662 49.4 1.738C50.616 1.83933 51.224 2.004 51.224 2.232C50.8187 2.688 50.616 3.144 50.616 3.6V5.006H53.504C54.4667 5.006 55.4167 4.968 56.354 4.892C56.43 4.94266 56.468 5.60133 56.468 6.868C56.468 8.10933 56.43 8.75533 56.354 8.806C55.67 8.73 54.7453 8.692 53.58 8.692H50.768C52.7947 9.832 54.5933 10.9213 56.164 11.96L53.998 15.684C53.1367 14.6707 52.0093 13.556 50.616 12.34V14.848C50.616 15.8867 50.654 16.71 50.73 17.318C50.6793 17.4193 49.9827 17.47 48.64 17.47ZM65.056 17.432C63.6627 17.432 62.9407 17.3813 62.89 17.28C62.966 16.6973 63.004 15.912 63.004 14.924V12.53C61.56 14.354 60.04 15.836 58.444 16.976C57.608 15.76 56.658 14.6833 55.594 13.746C57.8233 12.606 59.85 10.9213 61.674 8.692H59.432C58.6973 8.692 57.9627 8.73 57.228 8.806C57.152 8.75533 57.114 8.10933 57.114 6.868C57.114 5.60133 57.152 4.93 57.228 4.854C58.1907 4.95533 59.1533 5.006 60.116 5.006H63.004V3.41C63.004 2.97933 62.9787 2.40933 62.928 1.7C63.8653 1.64933 64.8407 1.662 65.854 1.738C67.0953 1.83933 67.716 2.004 67.716 2.232C67.3107 2.688 67.108 3.144 67.108 3.6V5.006H70.452H72.162C72.5673 5.006 73.1247 4.98067 73.834 4.93C73.91 4.95533 73.948 5.60133 73.948 6.868C73.948 8.10933 73.91 8.75533 73.834 8.806C73.2767 8.73 72.4787 8.692 71.44 8.692H69.046C70.8193 10.9213 72.7827 12.6313 74.936 13.822C73.8973 14.6833 72.9473 15.76 72.086 17.052C70.3633 15.7853 68.704 14.0247 67.108 11.77V14.544C67.108 15.684 67.146 16.596 67.222 17.28C67.1713 17.3813 66.4493 17.432 65.056 17.432ZM91.466 37.496C90.326 37.496 89.6927 37.4327 89.566 37.306C89.718 36.0647 89.794 34.3927 89.794 32.29V27.236V22.182C89.794 20.054 89.718 18.3693 89.566 17.128C89.566 16.976 89.642 16.9 89.794 16.9C91.01 17.052 92.6693 17.128 94.772 17.128H99.788V33.506C99.788 34.3167 99.7247 34.9373 99.598 35.368C99.446 35.9 99.1547 36.3053 98.724 36.584C98.0147 37.0653 96.8873 37.306 95.342 37.306C95.2153 36.242 94.8227 35.0893 94.164 33.848H96.026C96.2793 33.848 96.406 33.7087 96.406 33.43V30.466L95.418 31.644C94.962 30.9853 94.2147 30.2507 93.176 29.44V33.392C93.176 34.9373 93.2393 36.242 93.366 37.306C93.2647 37.4327 92.6313 37.496 91.466 37.496ZM103.588 37.268C103.309 35.8747 102.828 34.2153 102.144 32.29C101.485 30.3647 100.738 28.452 99.902 26.552C101.067 22.98 101.929 19.75 102.486 16.862C103.423 17.0393 104.297 17.3433 105.108 17.774C105.995 18.23 106.387 18.6227 106.286 18.952C106.21 19.2053 106.058 19.446 105.83 19.674C105.475 20.0033 105.197 20.5227 104.994 21.232C104.538 22.7773 103.981 24.538 103.322 26.514C105.07 30.162 106.324 33.3413 107.084 36.052L103.588 37.268ZM109.326 37.268C108.997 35.9 108.427 34.2407 107.616 32.29C106.628 29.9593 105.716 28.0467 104.88 26.552C106.349 23.0307 107.464 19.8007 108.224 16.862C109.161 17.0647 110.035 17.3813 110.846 17.812C111.707 18.2933 112.087 18.6987 111.986 19.028C111.91 19.3067 111.745 19.5347 111.492 19.712C111.087 20.0413 110.77 20.548 110.542 21.232C110.238 22.0427 109.795 23.1953 109.212 24.69C108.883 25.5007 108.642 26.1087 108.49 26.514C110.491 30.086 111.935 33.2527 112.822 36.014L109.326 37.268ZM77.9 32.366L77.216 28.072C77.7733 27.996 78.7233 27.8187 80.066 27.54C80.674 27.4133 81.1427 27.3247 81.472 27.274V19.788H79.838C79.458 19.788 78.9133 19.8133 78.204 19.864C78.128 19.8133 78.09 19.1293 78.09 17.812C78.09 16.4693 78.128 15.7853 78.204 15.76C78.7107 15.8107 79.2553 15.836 79.838 15.836H81.472V8.996H79.648C79.2173 8.996 78.622 9.02133 77.862 9.072C77.786 9.02133 77.748 8.312 77.748 6.944C77.748 5.576 77.786 4.86667 77.862 4.816C78.546 4.892 79.4707 4.93 80.636 4.93H83.41H86.222C87.1593 4.93 88.084 4.892 88.996 4.816C89.072 4.86667 89.11 5.576 89.11 6.944C89.11 8.312 89.072 9.02133 88.996 9.072C88.4387 9.02133 87.856 8.996 87.248 8.996H85.5V15.836H87.02C87.3493 15.836 87.8433 15.8107 88.502 15.76C88.578 15.7853 88.616 16.4693 88.616 17.812C88.616 19.1293 88.578 19.8133 88.502 19.864C88.046 19.8133 87.552 19.788 87.02 19.788H85.5V26.4L88.882 25.64L89.262 29.744C85.7407 30.6053 81.9533 31.4793 77.9 32.366ZM96.406 28.642V24.918L95.532 26.02C95.304 25.7667 94.962 25.4627 94.506 25.108C94.05 24.728 93.6067 24.386 93.176 24.082V27.73L94.05 26.856C95.038 27.5147 95.8233 28.11 96.406 28.642ZM96.406 23.132V20.586H93.176V22.866L94.126 21.688C94.5313 21.8907 94.924 22.106 95.304 22.334C95.76 22.638 96.1273 22.904 96.406 23.132ZM89.718 16.444C89.1353 15 88.3627 13.7967 87.4 12.834C90.516 11.4407 93.366 9.19867 95.95 6.108H93.784C93.0493 6.108 92.34 6.146 91.656 6.222C91.58 6.17133 91.542 5.538 91.542 4.322C91.542 3.106 91.58 2.47266 91.656 2.422C92.3147 2.498 93.214 2.536 94.354 2.536H97.09H102.524C103.385 4.63866 104.753 6.57666 106.628 8.35C108.503 10.098 110.618 11.4407 112.974 12.378C112.594 12.758 112.151 13.3407 111.644 14.126C111.163 14.8607 110.783 15.532 110.504 16.14C108.528 15.152 106.704 13.898 105.032 12.378V14.886H94.962V12.454C93.3153 13.9993 91.5673 15.3293 89.718 16.444ZM95.988 11.466H100.016H104.044C102.524 9.97133 101.219 8.32467 100.13 6.526C98.99 8.198 97.6093 9.84467 95.988 11.466Z" fill="#83431F"/>
<path d="M122.512 37.458C121.043 37.458 120.219 37.3947 120.042 37.268C120.27 35.3427 120.384 32.7207 120.384 29.402V21.498C119.016 22.866 117.901 23.892 117.04 24.576C116.863 24.044 116.546 23.284 116.09 22.296C115.609 21.232 115.216 20.434 114.912 19.902C116.635 18.6607 118.294 17.204 119.89 15.532C121.613 13.7333 122.993 11.9347 124.032 10.136C125.045 10.592 125.983 11.124 126.844 11.732C127.731 12.34 128.111 12.758 127.984 12.986C127.883 13.1633 127.705 13.29 127.452 13.366C127.047 13.4927 126.705 13.784 126.426 14.24C125.666 15.304 125.071 16.102 124.64 16.634V26.97V32.138C124.64 34.3167 124.716 36.0267 124.868 37.268C124.767 37.3947 123.981 37.458 122.512 37.458ZM137.218 37.268C137.041 36.0773 136.572 34.7347 135.812 33.24C136.876 33.2907 138.143 33.316 139.612 33.316C140.068 33.2907 140.296 33.088 140.296 32.708V27.426H132.468C134.469 29.3767 135.888 30.96 136.724 32.176L133.418 34.57C132.582 33.126 131.151 31.3653 129.124 29.288L131.898 27.426H129.276C128.415 27.426 127.541 27.464 126.654 27.54C126.578 27.4893 126.54 26.8053 126.54 25.488C126.54 24.1707 126.578 23.436 126.654 23.284C128.427 23.4867 130.695 23.588 133.456 23.588H140.296V21.422H133.912C132.113 21.422 129.998 21.5107 127.566 21.688C127.49 21.5613 127.452 20.8647 127.452 19.598C127.452 18.306 127.49 17.6093 127.566 17.508C128.909 17.66 130.695 17.736 132.924 17.736H138.32H143.716C145.54 17.736 147.339 17.66 149.112 17.508C149.188 17.6093 149.226 18.2933 149.226 19.56C149.226 20.8267 149.188 21.4853 149.112 21.536C148.58 21.46 147.871 21.422 146.984 21.422H144.818V23.588H149.872L149.91 27.426H144.818V32.822C144.818 33.9113 144.691 34.722 144.438 35.254C144.185 35.862 143.703 36.318 142.994 36.622C142.361 36.9007 141.537 37.0907 140.524 37.192C139.891 37.2427 138.789 37.268 137.218 37.268ZM147.896 16.444C145.363 16.1907 142.297 16.064 138.7 16.064H129.466V9.49C129.466 7.00733 129.377 4.816 129.2 2.916C129.2 2.78933 129.289 2.726 129.466 2.726C130.733 2.85267 132.265 2.916 134.064 2.916H138.662H147.896V9.49C147.896 11.9727 147.985 14.164 148.162 16.064C148.162 16.3173 148.073 16.444 147.896 16.444ZM117.496 13.138C117.065 12.0487 116.343 10.7693 115.33 9.3C116.799 8.36267 118.256 7.21 119.7 5.842C121.169 4.42333 122.284 3.09333 123.044 1.852C124.108 2.308 125.096 2.86533 126.008 3.524C126.92 4.18267 127.287 4.63867 127.11 4.892C126.958 5.06933 126.755 5.196 126.502 5.272C126.046 5.37333 125.615 5.69 125.21 6.222C124.526 7.00733 123.715 7.86866 122.778 8.806C121.081 10.4527 119.32 11.8967 117.496 13.138ZM133.76 12.91H138.586H143.412V10.934H133.76V12.91ZM133.76 7.97H138.586H143.412V6.07H133.76V7.97ZM165.87 37.344C165.718 36.2547 165.262 34.912 164.502 33.316C166.123 33.392 167.339 33.4047 168.15 33.354C168.555 33.354 168.758 33.1767 168.758 32.822V28.072H161.5C159.245 28.072 156.839 28.1733 154.28 28.376C154.204 28.224 154.166 27.54 154.166 26.324C154.166 25.0827 154.204 24.3733 154.28 24.196C156.383 24.424 159.169 24.538 162.64 24.538H171.038H179.436C182.273 24.538 185.073 24.424 187.834 24.196C187.91 24.3733 187.948 25.0827 187.948 26.324C187.948 27.54 187.91 28.224 187.834 28.376C185.883 28.1733 183.451 28.072 180.538 28.072H173.242V32.974C173.242 34.038 173.128 34.8233 172.9 35.33C172.647 35.9127 172.178 36.356 171.494 36.66C170.861 36.964 170.05 37.154 169.062 37.23C168.378 37.306 167.314 37.344 165.87 37.344ZM157.282 37.154C156.167 35.862 155.078 34.8487 154.014 34.114C155.483 33.43 156.889 32.5813 158.232 31.568C159.625 30.5293 160.753 29.4653 161.614 28.376C162.627 28.7307 163.565 29.1993 164.426 29.782C165.313 30.3393 165.667 30.7193 165.49 30.922C165.363 31.074 165.186 31.1753 164.958 31.226C164.578 31.2767 164.223 31.5047 163.894 31.91C163.362 32.4673 162.653 33.126 161.766 33.886C160.271 35.2287 158.777 36.318 157.282 37.154ZM183.996 36.736C183.211 35.9 181.982 34.8993 180.31 33.734C178.79 32.6447 177.245 31.644 175.674 30.732L178.942 28.49C180.361 29.2247 181.906 30.1493 183.578 31.264C185.199 32.328 186.517 33.3033 187.53 34.19L183.996 36.736ZM158.726 23.36C158.65 23.132 158.612 22.4227 158.612 21.232C158.612 20.016 158.65 19.3447 158.726 19.218C160.499 19.3953 162.551 19.484 164.882 19.484H171.038H177.194C178.917 19.484 180.969 19.3953 183.35 19.218C183.426 19.3447 183.464 20.0033 183.464 21.194C183.464 22.3847 183.426 23.0433 183.35 23.17C181.45 22.9927 179.246 22.904 176.738 22.904H170.126C166.326 22.904 162.526 23.056 158.726 23.36ZM185.136 18.382C182.299 18.078 178.499 17.926 173.736 17.926H156.978V13.29C156.978 11.466 156.915 9.92066 156.788 8.654C156.788 8.52733 156.851 8.464 156.978 8.464C158.042 8.59066 159.334 8.654 160.854 8.654H164.768V6.602H159.79C158.118 6.602 156.459 6.678 154.812 6.83C154.736 6.70333 154.698 6.032 154.698 4.816C154.698 3.6 154.736 2.90333 154.812 2.726C156.839 2.954 159.524 3.068 162.868 3.068H170.924H179.018C181.729 3.068 184.414 2.954 187.074 2.726C187.15 2.90333 187.188 3.6 187.188 4.816C187.188 6.032 187.15 6.70333 187.074 6.83C185.833 6.678 184.135 6.602 181.982 6.602H176.852V8.654H185.136V13.29C185.136 15.114 185.199 16.6593 185.326 17.926C185.326 18.23 185.263 18.382 185.136 18.382ZM161.044 14.696H164.768V11.846H162.906H161.044V14.696ZM168.834 14.696H172.71V11.846H170.772H168.834V14.696ZM176.852 14.696H178.79H180.766V11.846H176.852V14.696ZM168.834 8.654H170.772H172.71V6.602H168.834V8.654ZM202.692 37.496C201.273 37.496 200.501 37.4327 200.374 37.306C200.551 35.4567 200.64 33.316 200.64 30.884V24.462H198.018V25.184C198.018 27.16 197.815 29.022 197.41 30.77C196.853 33.202 195.928 35.1147 194.636 36.508C193.775 35.7733 192.66 35.0767 191.292 34.418C193.116 32.366 194.028 29.25 194.028 25.07V24.462H192.888C192.635 24.462 192.255 24.4873 191.748 24.538C191.672 24.4873 191.634 23.7907 191.634 22.448C191.634 21.08 191.672 20.3453 191.748 20.244C192.964 20.3707 194.446 20.434 196.194 20.434H200.64V16.292H194.864V16.254H193.078V9.87C193.078 7.53933 192.989 5.36066 192.812 3.334C193.851 3.28333 194.915 3.296 196.004 3.372C197.321 3.47333 197.98 3.638 197.98 3.866C197.372 5.082 197.068 6.298 197.068 7.514V12.264H200.64V7.02C200.64 4.892 200.564 3.106 200.412 1.662C201.451 1.61133 202.54 1.624 203.68 1.7C205.048 1.80133 205.732 1.966 205.732 2.194C205.124 3.41 204.82 4.626 204.82 5.842V17.622V33.43C207.632 31.3527 209.722 28.756 211.09 25.64C212.129 23.208 212.775 20.3073 213.028 16.938H209.532C208.747 16.938 207.594 16.9887 206.074 17.09C205.998 17.014 205.96 16.216 205.96 14.696C205.96 13.176 205.998 12.378 206.074 12.302C207.239 12.4033 208.417 12.454 209.608 12.454H213.142V7.134C213.142 4.95533 213.066 3.144 212.914 1.7C213.978 1.64933 215.08 1.662 216.22 1.738C217.613 1.83933 218.31 2.004 218.31 2.232C217.702 3.448 217.398 4.664 217.398 5.88V12.454H221.882C223.225 12.454 224.719 12.3907 226.366 12.264C226.442 12.3653 226.48 13.176 226.48 14.696C226.48 16.216 226.442 17.0267 226.366 17.128C225.277 17.0013 223.921 16.938 222.3 16.938H218.234C219.146 24.7913 222.021 30.2887 226.86 33.43C225.568 34.342 224.491 35.5833 223.63 37.154C220.083 34.6713 217.487 30.7953 215.84 25.526C214.32 30.4153 211.407 34.38 207.1 37.42C206.568 36.432 205.808 35.4693 204.82 34.532V35.938C204.82 36.394 204.845 36.85 204.896 37.306C204.871 37.4327 204.136 37.496 202.692 37.496ZM222.224 11.314C221.92 10.478 221.363 9.36333 220.552 7.97C219.893 6.77933 219.133 5.58866 218.272 4.398L221.768 2.764C223.82 5.39866 225.226 7.628 225.986 9.452L222.224 11.314ZM241.376 37.344C241.123 36.7613 240.73 36.1153 240.198 35.406C239.666 34.6713 239.159 34.1013 238.678 33.696C240.73 32.8853 242.275 31.8213 243.314 30.504C244.251 29.3387 244.91 27.806 245.29 25.906C245.543 24.538 245.721 22.4607 245.822 19.674H242.668V11.58C242.668 8.18533 242.554 5.48733 242.326 3.486C242.326 3.334 242.44 3.258 242.668 3.258C243.884 3.41 245.518 3.486 247.57 3.486H252.51H257.45C259.527 3.486 261.174 3.41 262.39 3.258C262.618 3.258 262.732 3.334 262.732 3.486C262.504 5.48733 262.39 8.18533 262.39 11.58V19.674H257.412V31.492C257.412 32.1 257.45 32.4927 257.526 32.67C257.627 32.822 257.843 32.898 258.172 32.898H259.844C260.173 32.898 260.389 32.5813 260.49 31.948C260.617 31.3147 260.705 29.8453 260.756 27.54C261.541 28.1987 262.833 28.794 264.632 29.326C264.455 32.29 264.049 34.304 263.416 35.368C262.808 36.432 261.757 36.964 260.262 36.964H257.374C255.626 36.964 254.448 36.5713 253.84 35.786C253.283 35.026 253.004 33.6073 253.004 31.53V19.674H250.154C249.951 24.5887 249.369 28.1987 248.406 30.504C247.139 33.544 244.796 35.824 241.376 37.344ZM234.688 36.85L230.926 34.076C231.99 32.5813 233.219 30.7067 234.612 28.452C236.031 26.1213 237.31 23.8413 238.45 21.612C239.387 22.448 240.173 23.2333 240.806 23.968C241.566 24.88 241.87 25.488 241.718 25.792C241.591 26.02 241.389 26.21 241.11 26.362C240.679 26.59 240.299 27.0207 239.97 27.654C238.298 30.8207 236.537 33.886 234.688 36.85ZM236.702 19.636C236.069 19.0787 234.992 18.3693 233.472 17.508C232.155 16.748 230.85 16.1147 229.558 15.608L231.838 12.226C233.13 12.6567 234.46 13.2013 235.828 13.86C237.272 14.5693 238.374 15.228 239.134 15.836L236.702 19.636ZM247 15.494H257.83V7.666H252.396H247V15.494ZM238.564 9.3C237.956 8.692 236.968 7.98267 235.6 7.172C234.46 6.488 233.219 5.86733 231.876 5.31L234.308 1.928C235.549 2.40933 236.791 2.96667 238.032 3.6C239.4 4.33467 240.439 5.006 241.148 5.614L238.564 9.3Z" fill="#282828"/>
<path d="M29.4116 71.25C27.295 71.25 25.6616 70.6333 24.5116 69.4C23.3616 68.1667 22.7866 66.325 22.7866 63.875C22.7866 60.525 23.6283 57.8417 25.3116 55.825C27.0116 53.8083 29.3616 52.7 32.3616 52.5L32.8616 54.75C31.0116 54.9167 29.5283 55.4167 28.4116 56.25C27.3116 57.0833 26.47 58.325 25.8866 59.975L25.9366 60.025C27.0866 59.0917 28.4533 58.625 30.0366 58.625C31.92 58.625 33.3866 59.1667 34.4366 60.25C35.5033 61.3167 36.0366 62.8167 36.0366 64.75C36.0366 66.7333 35.4366 68.3167 34.2366 69.5C33.0366 70.6667 31.4283 71.25 29.4116 71.25ZM29.4116 69C30.6616 69 31.62 68.6417 32.2866 67.925C32.9533 67.2083 33.2866 66.15 33.2866 64.75C33.2866 63.4667 32.945 62.475 32.2616 61.775C31.5783 61.0583 30.6283 60.7 29.4116 60.7C28.245 60.7 27.3116 61.0667 26.6116 61.8C25.9283 62.5167 25.5866 63.5 25.5866 64.75C25.5866 66.1333 25.92 67.1917 26.5866 67.925C27.2533 68.6417 28.195 69 29.4116 69ZM39.9587 54.725C41.092 53.2417 42.7837 52.5 45.0337 52.5C47.2837 52.5 48.967 53.2417 50.0837 54.725C51.217 56.2083 51.7837 58.5917 51.7837 61.875C51.7837 65.1583 51.217 67.5417 50.0837 69.025C48.967 70.5083 47.2837 71.25 45.0337 71.25C42.7837 71.25 41.092 70.5083 39.9587 69.025C38.842 67.5417 38.2837 65.1583 38.2837 61.875C38.2837 58.5917 38.842 56.2083 39.9587 54.725ZM42.0087 67.425C42.6754 68.5083 43.6837 69.05 45.0337 69.05C46.3837 69.05 47.3837 68.5083 48.0337 67.425C48.7004 66.325 49.0337 64.475 49.0337 61.875C49.0337 59.275 48.7004 57.4333 48.0337 56.35C47.3837 55.25 46.3837 54.7 45.0337 54.7C43.6837 54.7 42.6754 55.25 42.0087 56.35C41.3587 57.4333 41.0337 59.275 41.0337 61.875C41.0337 64.475 41.3587 66.325 42.0087 67.425ZM60.7808 60.25C61.9308 59.9833 62.8141 59.5833 63.4308 59.05C64.0474 58.5167 64.3558 57.9167 64.3558 57.25C64.3558 56.45 64.0474 55.8167 63.4308 55.35C62.8141 54.8833 61.9308 54.65 60.7808 54.65C59.6474 54.65 58.7808 54.8833 58.1808 55.35C57.5974 55.8 57.3058 56.4333 57.3058 57.25C57.3058 57.95 57.5974 58.5667 58.1808 59.1C58.7808 59.6167 59.6474 60 60.7808 60.25ZM60.6558 62.375C59.3391 62.6917 58.3391 63.1667 57.6558 63.8C56.9724 64.4167 56.6308 65.1083 56.6308 65.875C56.6308 66.875 56.9974 67.6667 57.7308 68.25C58.4808 68.8167 59.4974 69.1 60.7808 69.1C62.0641 69.1 63.0558 68.8167 63.7558 68.25C64.4724 67.6667 64.8308 66.875 64.8308 65.875C64.8308 64.125 63.4391 62.9583 60.6558 62.375ZM65.7308 69.825C64.5474 70.775 62.8974 71.25 60.7808 71.25C58.6641 71.25 57.0058 70.775 55.8058 69.825C54.6224 68.875 54.0308 67.6 54.0308 66C54.0308 65.0333 54.3641 64.1417 55.0308 63.325C55.6974 62.4917 56.6141 61.85 57.7808 61.4V61.35C56.7808 60.9167 56.0058 60.325 55.4558 59.575C54.9224 58.8083 54.6558 57.95 54.6558 57C54.6558 55.65 55.1974 54.5667 56.2808 53.75C57.3641 52.9167 58.8641 52.5 60.7808 52.5C62.6974 52.5 64.1974 52.9167 65.2808 53.75C66.3641 54.5667 66.9058 55.65 66.9058 57C66.9058 58.8667 65.8641 60.2333 63.7808 61.1V61.15C66.2808 62 67.5308 63.6167 67.5308 66C67.5308 67.6 66.9308 68.875 65.7308 69.825ZM71.8278 67.25H75.3278L72.5778 73.75H70.0778L71.8278 67.25ZM90.1274 55H82.5024L82.2524 60H82.3024C83.2024 59.5 84.2274 59.25 85.3774 59.25C87.1108 59.25 88.4608 59.7417 89.4274 60.725C90.3941 61.7083 90.8774 63.0917 90.8774 64.875C90.8774 66.975 90.2858 68.5667 89.1024 69.65C87.9191 70.7167 86.1774 71.25 83.8774 71.25C82.1608 71.25 80.5774 70.875 79.1274 70.125L79.7524 67.875C81.2358 68.625 82.6108 69 83.8774 69C86.7108 69 88.1274 67.625 88.1274 64.875C88.1274 62.5583 87.0441 61.4 84.8774 61.4C83.6441 61.4 82.6441 61.7667 81.8774 62.5H79.5024L80.0024 52.75H90.1274V55ZM100.5 52.5C102.616 52.5 104.25 53.1167 105.4 54.35C106.55 55.5833 107.125 57.3833 107.125 59.75C107.125 63.2167 106.25 65.95 104.5 67.95C102.766 69.95 100.366 71.05 97.2995 71.25L96.7995 69C98.7495 68.8167 100.291 68.3167 101.425 67.5C102.575 66.6833 103.441 65.4417 104.025 63.775L103.975 63.725C102.825 64.6583 101.458 65.125 99.8745 65.125C98.0078 65.125 96.5412 64.5833 95.4745 63.5C94.4078 62.4167 93.8745 60.875 93.8745 58.875C93.8745 56.9417 94.4745 55.4 95.6745 54.25C96.8912 53.0833 98.4995 52.5 100.5 52.5ZM100.5 54.75C99.2495 54.75 98.2912 55.1083 97.6245 55.825C96.9578 56.525 96.6245 57.5417 96.6245 58.875C96.6245 60.225 96.9662 61.2583 97.6495 61.975C98.3495 62.6917 99.2995 63.05 100.5 63.05C101.65 63.05 102.575 62.6833 103.275 61.95C103.975 61.2 104.325 60.175 104.325 58.875C104.325 57.5583 103.991 56.5417 103.325 55.825C102.658 55.1083 101.716 54.75 100.5 54.75ZM111.297 54.725C112.43 53.2417 114.122 52.5 116.372 52.5C118.622 52.5 120.305 53.2417 121.422 54.725C122.555 56.2083 123.122 58.5917 123.122 61.875C123.122 65.1583 122.555 67.5417 121.422 69.025C120.305 70.5083 118.622 71.25 116.372 71.25C114.122 71.25 112.43 70.5083 111.297 69.025C110.18 67.5417 109.622 65.1583 109.622 61.875C109.622 58.5917 110.18 56.2083 111.297 54.725ZM113.347 67.425C114.013 68.5083 115.022 69.05 116.372 69.05C117.722 69.05 118.722 68.5083 119.372 67.425C120.038 66.325 120.372 64.475 120.372 61.875C120.372 59.275 120.038 57.4333 119.372 56.35C118.722 55.25 117.722 54.7 116.372 54.7C115.022 54.7 114.013 55.25 113.347 56.35C112.697 57.4333 112.372 59.275 112.372 61.875C112.372 64.475 112.697 66.325 113.347 67.425ZM135.044 53.7V55H138.444V53.7H135.044ZM129.494 61.05H126.994V55H132.444V53.7H125.869V51.5H147.619V53.7H141.044V55H146.494V61.05H129.494ZM132.444 59.125V56.875H129.494V59.125H132.444ZM138.444 59.125V56.875H135.044V59.125H138.444ZM141.044 59.125H143.994V56.875H141.044V59.125ZM127.744 64.2V62.05H145.869V64.2H127.744ZM147.619 65.25V67.45H142.619C144.485 68.55 146.227 69.7 147.844 70.9L146.469 72.85C144.385 71.3333 142.31 69.9833 140.244 68.8L141.144 67.45H138.494V70.375C138.494 71.575 138.31 72.3167 137.944 72.6C137.577 72.9 136.635 73.05 135.119 73.05C134.219 73.05 133.069 73.0083 131.669 72.925L131.569 70.825C132.852 70.9083 133.844 70.95 134.544 70.95C135.127 70.95 135.469 70.9167 135.569 70.85C135.685 70.7667 135.744 70.525 135.744 70.125V67.45H131.819L132.919 68.75C131.219 70.3833 129.219 71.7333 126.919 72.8L125.694 70.825C127.627 69.9083 129.377 68.7833 130.944 67.45H125.869V65.25H147.619ZM160.966 63.3C160.966 67.8667 162.591 71.725 165.841 74.875H163.341C161.741 73.4083 160.507 71.675 159.641 69.675C158.774 67.675 158.341 65.55 158.341 63.3C158.341 61.05 158.774 58.9333 159.641 56.95C160.507 54.95 161.741 53.2167 163.341 51.75H165.841C162.591 54.9 160.966 58.75 160.966 63.3ZM175.645 64.8V56.725H175.595L170.02 64.75V64.8H175.645ZM178.345 64.8H181.27V67H178.345V71H175.645V67H167.27V64.8L175.645 52.75H178.345V64.8ZM184.942 71V67.25H188.192V71H184.942ZM198.253 52.5C200.12 52.5 201.562 52.9667 202.578 53.9C203.612 54.8167 204.128 56.1 204.128 57.75C204.128 59.4167 203.595 61.025 202.528 62.575C201.478 64.125 199.428 66.1667 196.378 68.7V68.75H204.128V71H192.628V68.75C196.028 66.05 198.32 63.9417 199.503 62.425C200.687 60.8917 201.278 59.4167 201.278 58C201.278 55.8667 200.145 54.8 197.878 54.8C196.362 54.8 194.778 55.35 193.128 56.45L192.378 54.25C194.095 53.0833 196.053 52.5 198.253 52.5ZM214.25 71.25C212.134 71.25 210.5 70.6333 209.35 69.4C208.2 68.1667 207.625 66.325 207.625 63.875C207.625 60.525 208.467 57.8417 210.15 55.825C211.85 53.8083 214.2 52.7 217.2 52.5L217.7 54.75C215.85 54.9167 214.367 55.4167 213.25 56.25C212.15 57.0833 211.309 58.325 210.725 59.975L210.775 60.025C211.925 59.0917 213.292 58.625 214.875 58.625C216.759 58.625 218.225 59.1667 219.275 60.25C220.342 61.3167 220.875 62.8167 220.875 64.75C220.875 66.7333 220.275 68.3167 219.075 69.5C217.875 70.6667 216.267 71.25 214.25 71.25ZM214.25 69C215.5 69 216.459 68.6417 217.125 67.925C217.792 67.2083 218.125 66.15 218.125 64.75C218.125 63.4667 217.784 62.475 217.1 61.775C216.417 61.0583 215.467 60.7 214.25 60.7C213.084 60.7 212.15 61.0667 211.45 61.8C210.767 62.5167 210.425 63.5 210.425 64.75C210.425 66.1333 210.759 67.1917 211.425 67.925C212.092 68.6417 213.034 69 214.25 69ZM236.548 52.75H239.298L229.048 71H226.298L236.548 52.75ZM235.073 62.775C235.839 61.925 236.914 61.5 238.298 61.5C239.681 61.5 240.756 61.925 241.523 62.775C242.289 63.6083 242.673 64.8083 242.673 66.375C242.673 67.9417 242.289 69.15 241.523 70C240.756 70.8333 239.681 71.25 238.298 71.25C236.914 71.25 235.839 70.8333 235.073 70C234.306 69.15 233.923 67.9417 233.923 66.375C233.923 64.8083 234.306 63.6083 235.073 62.775ZM224.073 53.775C224.839 52.925 225.914 52.5 227.298 52.5C228.681 52.5 229.756 52.925 230.523 53.775C231.289 54.6083 231.673 55.8083 231.673 57.375C231.673 58.9417 231.289 60.15 230.523 61C229.756 61.8333 228.681 62.25 227.298 62.25C225.914 62.25 224.839 61.8333 224.073 61C223.306 60.15 222.923 58.9417 222.923 57.375C222.923 55.8083 223.306 54.6083 224.073 53.775ZM236.548 66.375C236.548 68.2917 237.131 69.25 238.298 69.25C239.464 69.25 240.048 68.2917 240.048 66.375C240.048 64.4583 239.464 63.5 238.298 63.5C237.131 63.5 236.548 64.4583 236.548 66.375ZM225.548 57.375C225.548 59.2917 226.131 60.25 227.298 60.25C228.464 60.25 229.048 59.2917 229.048 57.375C229.048 55.4583 228.464 54.5 227.298 54.5C226.131 54.5 225.548 55.4583 225.548 57.375ZM243.409 51.75H245.909C247.509 53.2167 248.742 54.95 249.609 56.95C250.476 58.9333 250.909 61.05 250.909 63.3C250.909 65.55 250.476 67.675 249.609 69.675C248.742 71.675 247.509 73.4083 245.909 74.875H243.409C246.659 71.725 248.284 67.8667 248.284 63.3C248.284 58.75 246.659 54.9 243.409 51.75Z" fill="#282828"/>
</svg>
